<svg width="24" height="24" viewBox="0 0 24 24" fill="none" xmlns="http://www.w3.org/2000/svg">
<path d="M12 24C5.3827 24 0 18.6173 0 12C0 5.3827 5.3827 0 12 0C18.6173 0 24 5.3827 24 12C24 18.6173 18.6173 24 12 24ZM12 1.67442C6.30586 1.67442 1.67442 6.30586 1.67442 12C1.67442 17.6941 6.30586 22.3256 12 22.3256C17.6941 22.3256 22.3256 17.6941 22.3256 12C22.3256 6.30586 17.6941 1.67442 12 1.67442ZM13.1386 15.907C13.1386 15.2908 12.6397 14.7907 12.0223 14.7907H12.0112C11.395 14.7907 10.9003 15.2908 10.9003 15.907C10.9003 16.5232 11.4062 17.0233 12.0223 17.0233C12.6385 17.0233 13.1386 16.5232 13.1386 15.907ZM12.8372 12.0793V6.97674C12.8372 6.5146 12.4621 6.13954 12 6.13954C11.5379 6.13954 11.1628 6.5146 11.1628 6.97674V12.0793C11.1628 12.5414 11.5379 12.9165 12 12.9165C12.4621 12.9165 12.8372 12.5414 12.8372 12.0793Z" fill="#AC0D0D"/>
</svg>
