<svg width="24" height="24" viewBox="0 0 24 24" fill="none" xmlns="http://www.w3.org/2000/svg">
<path d="M23.424 5.6992C23.4228 5.69674 23.4241 5.6943 23.4228 5.69184C23.4204 5.68569 23.4142 5.68199 23.4117 5.67584C22.9355 4.81059 22.1934 4.09671 21.2557 3.67947L13.8718 0.396933C12.6793 -0.132311 11.3145 -0.132311 10.122 0.396933L2.73816 3.67947C1.79917 4.09671 1.05823 4.81059 0.581973 5.67584C0.579512 5.68199 0.573468 5.68569 0.571007 5.69184C0.569776 5.6943 0.570885 5.69674 0.569655 5.6992C0.209075 6.3626 0 7.11093 0 7.89619V16.102C0 17.9235 1.0755 19.5789 2.74056 20.3199L10.1244 23.6025C10.7176 23.8658 11.3538 23.9963 11.9901 23.9988C11.9938 23.9988 11.9963 24 12 24C12.0037 24 12.0061 23.9988 12.0098 23.9988C12.646 23.9975 13.2822 23.8658 13.8754 23.6025L21.2593 20.3199C22.9244 19.5802 24 17.9248 24 16.102V7.89619C23.9938 7.11093 23.7846 6.36137 23.424 5.6992ZM10.8703 2.08312C11.2272 1.92435 11.6123 1.84435 11.995 1.84435C12.3778 1.84435 12.7629 1.92311 13.1198 2.08188L20.5037 5.36442C20.7129 5.45796 20.8963 5.58722 21.0723 5.72384L17.7089 7.21926L8.77571 3.01362L10.8703 2.08312ZM6.54697 4.00441L15.4803 8.21005L13.1273 9.25623C12.4061 9.57009 11.5803 9.57007 10.869 9.25868L2.91783 5.72384C3.09381 5.58722 3.27722 5.45673 3.48643 5.36442L6.54697 4.00441ZM3.48643 18.6312C2.48715 18.1869 1.84221 17.1937 1.84221 16.1007V7.89495C1.84221 7.69186 1.88645 7.49743 1.92829 7.30543L10.1244 10.9486C10.4309 11.0815 10.7484 11.1787 11.0721 11.2427V21.9778C11.0056 21.9544 10.9355 21.9409 10.8703 21.9125L3.48643 18.6312ZM22.1479 16.1007C22.1479 17.1937 21.5029 18.1869 20.5037 18.6312L13.1198 21.9138C13.0546 21.9433 12.9845 21.9556 12.918 21.979V11.2427C13.2429 11.1775 13.5629 11.0803 13.8706 10.9461L16.7688 9.65746V11.8631C16.7688 12.3726 17.1823 12.7862 17.6917 12.7862C18.2012 12.7862 18.6147 12.3726 18.6147 11.8631V8.83777L22.0604 7.30663C22.1035 7.49986 22.1467 7.6931 22.1467 7.89619V16.1007H22.1479Z" fill="#AC0D0D"/>
</svg>
