<svg width="24" height="24" viewBox="0 0 24 24" fill="none" xmlns="http://www.w3.org/2000/svg">
<mask id="path-1-inside-1_415_31" fill="white">
<path d="M9.54631 5.71826H7.87431C7.78562 5.71826 7.70056 5.75328 7.63785 5.81561C7.57514 5.87794 7.53991 5.96249 7.53991 6.05064C7.53991 6.13879 7.57514 6.22333 7.63785 6.28566C7.70056 6.34799 7.78562 6.38301 7.87431 6.38301H8.37591V8.37727H6.72065C6.94184 8.09124 7.06234 7.74089 7.06361 7.38014C7.0636 7.01431 6.94215 6.6587 6.71809 6.36847C6.49402 6.07824 6.17987 5.8696 5.82435 5.77492C5.46884 5.68023 5.09182 5.70479 4.75177 5.84479C4.41173 5.98478 4.12766 6.23239 3.94363 6.5492C3.9214 6.587 3.90691 6.62879 3.90099 6.67217C3.89506 6.71556 3.89782 6.75967 3.90911 6.80199C3.92039 6.84431 3.93998 6.884 3.96674 6.91877C3.99351 6.95354 4.02692 6.98271 4.06506 7.00461C4.1032 7.0265 4.14532 7.04069 4.189 7.04636C4.23267 7.05202 4.27705 7.04906 4.31957 7.03762C4.36208 7.02619 4.40191 7.00652 4.43676 6.97974C4.4716 6.95296 4.50078 6.9196 4.52261 6.88158C4.61065 6.72997 4.73729 6.60407 4.8898 6.51653C5.04231 6.42899 5.21531 6.38289 5.39142 6.38287C5.56754 6.38285 5.74055 6.42891 5.89308 6.51642C6.04561 6.60393 6.17227 6.7298 6.26034 6.88139C6.34841 7.03297 6.39479 7.20493 6.3948 7.37998C6.39482 7.55503 6.34848 7.72699 6.26043 7.87859C6.17239 8.0302 6.04575 8.15609 5.89324 8.24363C5.74073 8.33116 5.56772 8.37725 5.39161 8.37727C5.30292 8.37727 5.21786 8.41228 5.15515 8.47462C5.09244 8.53695 5.05721 8.62149 5.05721 8.70964C5.05721 8.79779 5.09244 8.88234 5.15515 8.94467C5.21786 9.007 5.30292 9.04202 5.39161 9.04202C5.5677 9.04205 5.74068 9.08815 5.89316 9.17569C6.04564 9.26323 6.17226 9.38912 6.26028 9.54071C6.34831 9.6923 6.39463 9.86424 6.39461 10.0393C6.39459 10.2143 6.34822 10.3862 6.26016 10.5378C6.1721 10.6894 6.04545 10.8152 5.89295 10.9027C5.74044 10.9902 5.56745 11.0363 5.39136 11.0363C5.21527 11.0363 5.04229 10.9902 4.88979 10.9027C4.73729 10.8152 4.61066 10.6893 4.52261 10.5377C4.47813 10.4617 4.40513 10.4063 4.31961 10.3836C4.2341 10.361 4.14305 10.373 4.06642 10.417C3.98979 10.461 3.93383 10.5334 3.91081 10.6183C3.88779 10.7033 3.89959 10.7938 3.94362 10.8701C4.12765 11.1869 4.41172 11.4345 4.75177 11.5745C5.09181 11.7145 5.46883 11.7391 5.82435 11.6444C6.17987 11.5497 6.49403 11.3411 6.71809 11.0508C6.94215 10.7606 7.0636 10.405 7.06361 10.0391C7.06234 9.67839 6.94184 9.32805 6.72065 9.04202H8.37591V11.3686C8.37591 11.4568 8.41114 11.5413 8.47385 11.6037C8.53657 11.666 8.62162 11.701 8.71031 11.701C8.799 11.701 8.88405 11.666 8.94677 11.6037C9.00948 11.5413 9.04471 11.4568 9.04471 11.3686V6.38301H9.54631C9.635 6.38301 9.72006 6.34799 9.78277 6.28566C9.84548 6.22333 9.88071 6.13879 9.88071 6.05064C9.88071 5.96249 9.84548 5.87794 9.78277 5.81561C9.72006 5.75328 9.635 5.71826 9.54631 5.71826Z"/>
</mask>
<path d="M9.54631 5.71826H7.87431C7.78562 5.71826 7.70056 5.75328 7.63785 5.81561C7.57514 5.87794 7.53991 5.96249 7.53991 6.05064C7.53991 6.13879 7.57514 6.22333 7.63785 6.28566C7.70056 6.34799 7.78562 6.38301 7.87431 6.38301H8.37591V8.37727H6.72065C6.94184 8.09124 7.06234 7.74089 7.06361 7.38014C7.0636 7.01431 6.94215 6.6587 6.71809 6.36847C6.49402 6.07824 6.17987 5.8696 5.82435 5.77492C5.46884 5.68023 5.09182 5.70479 4.75177 5.84479C4.41173 5.98478 4.12766 6.23239 3.94363 6.5492C3.9214 6.587 3.90691 6.62879 3.90099 6.67217C3.89506 6.71556 3.89782 6.75967 3.90911 6.80199C3.92039 6.84431 3.93998 6.884 3.96674 6.91877C3.99351 6.95354 4.02692 6.98271 4.06506 7.00461C4.1032 7.0265 4.14532 7.04069 4.189 7.04636C4.23267 7.05202 4.27705 7.04906 4.31957 7.03762C4.36208 7.02619 4.40191 7.00652 4.43676 6.97974C4.4716 6.95296 4.50078 6.9196 4.52261 6.88158C4.61065 6.72997 4.73729 6.60407 4.8898 6.51653C5.04231 6.42899 5.21531 6.38289 5.39142 6.38287C5.56754 6.38285 5.74055 6.42891 5.89308 6.51642C6.04561 6.60393 6.17227 6.7298 6.26034 6.88139C6.34841 7.03297 6.39479 7.20493 6.3948 7.37998C6.39482 7.55503 6.34848 7.72699 6.26043 7.87859C6.17239 8.0302 6.04575 8.15609 5.89324 8.24363C5.74073 8.33116 5.56772 8.37725 5.39161 8.37727C5.30292 8.37727 5.21786 8.41228 5.15515 8.47462C5.09244 8.53695 5.05721 8.62149 5.05721 8.70964C5.05721 8.79779 5.09244 8.88234 5.15515 8.94467C5.21786 9.007 5.30292 9.04202 5.39161 9.04202C5.5677 9.04205 5.74068 9.08815 5.89316 9.17569C6.04564 9.26323 6.17226 9.38912 6.26028 9.54071C6.34831 9.6923 6.39463 9.86424 6.39461 10.0393C6.39459 10.2143 6.34822 10.3862 6.26016 10.5378C6.1721 10.6894 6.04545 10.8152 5.89295 10.9027C5.74044 10.9902 5.56745 11.0363 5.39136 11.0363C5.21527 11.0363 5.04229 10.9902 4.88979 10.9027C4.73729 10.8152 4.61066 10.6893 4.52261 10.5377C4.47813 10.4617 4.40513 10.4063 4.31961 10.3836C4.2341 10.361 4.14305 10.373 4.06642 10.417C3.98979 10.461 3.93383 10.5334 3.91081 10.6183C3.88779 10.7033 3.89959 10.7938 3.94362 10.8701C4.12765 11.1869 4.41172 11.4345 4.75177 11.5745C5.09181 11.7145 5.46883 11.7391 5.82435 11.6444C6.17987 11.5497 6.49403 11.3411 6.71809 11.0508C6.94215 10.7606 7.0636 10.405 7.06361 10.0391C7.06234 9.67839 6.94184 9.32805 6.72065 9.04202H8.37591V11.3686C8.37591 11.4568 8.41114 11.5413 8.47385 11.6037C8.53657 11.666 8.62162 11.701 8.71031 11.701C8.799 11.701 8.88405 11.666 8.94677 11.6037C9.00948 11.5413 9.04471 11.4568 9.04471 11.3686V6.38301H9.54631C9.635 6.38301 9.72006 6.34799 9.78277 6.28566C9.84548 6.22333 9.88071 6.13879 9.88071 6.05064C9.88071 5.96249 9.84548 5.87794 9.78277 5.81561C9.72006 5.75328 9.635 5.71826 9.54631 5.71826Z" fill="#AC0D0D"/>
<path d="M9.54631 5.71826V4.71826V5.71826ZM7.87431 5.71826L7.87431 4.71826L7.87431 5.71826ZM8.37591 6.38301H9.37591V5.38301H8.37591V6.38301ZM8.37591 8.37727V9.37727H9.37591V8.37727H8.37591ZM6.72065 8.37727L5.92959 7.76553L4.68323 9.37727H6.72065V8.37727ZM7.06361 7.38014L8.06361 7.38366L8.06361 7.38012L7.06361 7.38014ZM3.94363 6.5492L4.80567 7.05606L4.80832 7.0515L3.94363 6.5492ZM4.52261 6.88158L3.65784 6.3794L3.65542 6.38361L4.52261 6.88158ZM5.39161 8.37727L5.39161 9.37727L5.39168 9.37727L5.39161 8.37727ZM5.39161 9.04202L5.3918 8.04202H5.39161V9.04202ZM4.52261 10.5377L5.38732 10.0354L5.38573 10.0327L4.52261 10.5377ZM3.94362 10.8701L3.07748 11.3699L3.07892 11.3724L3.94362 10.8701ZM7.06361 10.0391L8.06361 10.0392L8.0636 10.0356L7.06361 10.0391ZM6.72065 9.04202V8.04202H4.68323L5.92959 9.65375L6.72065 9.04202ZM8.37591 9.04202H9.37591V8.04202H8.37591V9.04202ZM9.04471 6.38301V5.38301H8.04471V6.38301H9.04471ZM9.54631 5.71826V4.71826H7.87431V5.71826V6.71826H9.54631V5.71826ZM7.87431 5.71826L7.87431 4.71826C7.52236 4.71826 7.18361 4.85717 6.9329 5.10636L7.63785 5.81561L8.34281 6.52486C8.21752 6.64939 8.04888 6.71826 7.87431 6.71826L7.87431 5.71826ZM7.63785 5.81561L6.9329 5.10636C6.68198 5.35576 6.53991 5.6953 6.53991 6.05064H7.53991H8.53991C8.53991 6.22967 8.4683 6.40013 8.34281 6.52486L7.63785 5.81561ZM7.53991 6.05064H6.53991C6.53991 6.40597 6.68198 6.74552 6.9329 6.99491L7.63785 6.28566L8.34281 5.57641C8.4683 5.70114 8.53991 5.87161 8.53991 6.05064H7.53991ZM7.63785 6.28566L6.9329 6.99491C7.1836 7.2441 7.52236 7.38301 7.87431 7.38301V6.38301V5.38301C8.04888 5.38301 8.21752 5.45189 8.34281 5.57641L7.63785 6.28566ZM7.87431 6.38301V7.38301H8.37591V6.38301V5.38301H7.87431V6.38301ZM8.37591 6.38301H7.37591V8.37727H8.37591H9.37591V6.38301H8.37591ZM8.37591 8.37727V7.37727H6.72065V8.37727V9.37727H8.37591V8.37727ZM6.72065 8.37727L7.51172 8.989C7.86729 8.5292 8.06156 7.96517 8.0636 7.38366L7.06361 7.38014L6.06361 7.37662C6.06312 7.51662 6.0164 7.65328 5.92959 7.76553L6.72065 8.37727ZM7.06361 7.38014L8.06361 7.38012C8.0636 6.79261 7.86851 6.22222 7.50965 5.75738L6.71809 6.36847L5.92653 6.97956C6.01579 7.09518 6.06361 7.236 6.06361 7.38016L7.06361 7.38014ZM6.71809 6.36847L7.50965 5.75738C7.15086 5.29264 6.64869 4.9596 6.08171 4.8086L5.82435 5.77492L5.567 6.74123C5.71106 6.7796 5.83719 6.86384 5.92653 6.97956L6.71809 6.36847ZM5.82435 5.77492L6.08171 4.8086C5.5148 4.65761 4.91363 4.69672 4.37108 4.92008L4.75177 5.84479L5.13247 6.76949C5.27001 6.71286 5.42288 6.70285 5.567 6.74123L5.82435 5.77492ZM4.75177 5.84479L4.37108 4.92008C3.82845 5.14348 3.37389 5.53913 3.07893 6.04691L3.94363 6.5492L4.80832 7.0515C4.88143 6.92564 4.99501 6.82608 5.13247 6.76949L4.75177 5.84479ZM3.94363 6.5492L3.08159 6.04235C2.99238 6.19408 2.93404 6.36214 2.91018 6.53688L3.90099 6.67217L4.89179 6.80747C4.87978 6.89544 4.85043 6.97992 4.80566 7.05606L3.94363 6.5492ZM3.90099 6.67217L2.91018 6.53688C2.88632 6.71161 2.89745 6.8893 2.94287 7.05964L3.90911 6.80199L4.87535 6.54435C4.8982 6.63005 4.9038 6.7195 4.89179 6.80747L3.90099 6.67217ZM3.90911 6.80199L2.94287 7.05964C2.98829 7.22997 3.06703 7.38936 3.1743 7.52871L3.96674 6.91877L4.75918 6.30882C4.81292 6.37864 4.8525 6.45865 4.87535 6.54435L3.90911 6.80199ZM3.96674 6.91877L3.1743 7.52871C3.28155 7.66806 3.41516 7.78458 3.5672 7.87187L4.06506 7.00461L4.56292 6.13735C4.63868 6.18084 4.70546 6.23902 4.75918 6.30882L3.96674 6.91877ZM4.06506 7.00461L3.5672 7.87187C3.71923 7.95914 3.88683 8.01554 4.06036 8.03805L4.189 7.04636L4.31764 6.05467C4.40382 6.06585 4.48717 6.09387 4.56292 6.13735L4.06506 7.00461ZM4.189 7.04636L4.06036 8.03805C4.23388 8.06056 4.41019 8.04877 4.57923 8.00332L4.31957 7.03762L4.0599 6.07192C4.1439 6.04934 4.23147 6.04349 4.31764 6.05467L4.189 7.04636ZM4.31957 7.03762L4.57923 8.00332C4.74829 7.95786 4.90698 7.87956 5.04611 7.77264L4.43676 6.97974L3.8274 6.18684C3.89684 6.13347 3.97588 6.09452 4.0599 6.07192L4.31957 7.03762ZM4.43676 6.97974L5.04611 7.77264C5.18526 7.6657 5.30216 7.53218 5.38981 7.37954L4.52261 6.88158L3.65542 6.38361C3.6994 6.30701 3.75794 6.24022 3.8274 6.18684L4.43676 6.97974ZM4.52261 6.88158L5.38738 7.38375L5.38762 7.38381L4.8898 6.51653L4.39197 5.64925C4.08771 5.8239 3.83432 6.07551 3.65785 6.3794L4.52261 6.88158ZM4.8898 6.51653L5.38762 7.38381C5.38842 7.38335 5.38979 7.38287 5.39153 7.38287L5.39142 6.38287L5.39131 5.38287C5.04083 5.38291 4.69619 5.47463 4.39197 5.64925L4.8898 6.51653ZM5.39142 6.38287L5.39153 7.38287C5.39327 7.38287 5.39464 7.38335 5.39544 7.38381L5.89308 6.51642L6.39071 5.64903C6.08646 5.47448 5.7418 5.38284 5.39131 5.38287L5.39142 6.38287ZM5.89308 6.51642L5.39544 7.38381L5.39569 7.38375L6.26034 6.88139L7.125 6.37902C6.94846 6.07517 6.69501 5.82362 6.39071 5.64903L5.89308 6.51642ZM6.26034 6.88139L5.39569 7.38375C5.39527 7.38303 5.3948 7.38174 5.3948 7.38007L6.3948 7.37998L7.3948 7.37989C7.39477 7.02813 7.30156 6.68292 7.125 6.37902L6.26034 6.88139ZM6.3948 7.37998L5.3948 7.38007C5.3948 7.3784 5.39527 7.37711 5.39569 7.37639L6.26043 7.87859L7.12518 8.3808C7.30169 8.07687 7.39484 7.73165 7.3948 7.37989L6.3948 7.37998ZM6.26043 7.87859L5.39569 7.37639L5.39544 7.37633L5.89324 8.24363L6.39103 9.11092C6.6953 8.93629 6.9487 8.68468 7.12518 8.3808L6.26043 7.87859ZM5.89324 8.24363L5.39544 7.37633C5.39465 7.37679 5.39328 7.37727 5.39153 7.37727L5.39161 8.37727L5.39168 9.37727C5.74216 9.37724 6.08681 9.28554 6.39103 9.11092L5.89324 8.24363ZM5.39161 8.37727V7.37727C5.03965 7.37727 4.7009 7.51618 4.45019 7.76537L5.15515 8.47462L5.86011 9.18387C5.73482 9.30839 5.56618 9.37727 5.39161 9.37727V8.37727ZM5.15515 8.47462L4.45019 7.76537C4.19928 8.01476 4.05721 8.35431 4.05721 8.70964H5.05721H6.05721C6.05721 8.88867 5.9856 9.05914 5.86011 9.18387L5.15515 8.47462ZM5.05721 8.70964H4.05721C4.05721 9.06498 4.19928 9.40452 4.45019 9.65392L5.15515 8.94467L5.86011 8.23542C5.9856 8.36015 6.05721 8.53061 6.05721 8.70964H5.05721ZM5.15515 8.94467L4.45019 9.65392C4.7009 9.90311 5.03965 10.042 5.39161 10.042V9.04202V8.04202C5.56618 8.04202 5.73482 8.11089 5.86011 8.23542L5.15515 8.94467ZM5.39161 9.04202L5.39141 10.042C5.39314 10.042 5.3945 10.0425 5.39529 10.0429L5.89316 9.17569L6.39103 8.30844C6.08685 8.13382 5.74225 8.04209 5.3918 8.04202L5.39161 9.04202ZM5.89316 9.17569L5.39529 10.0429L5.3955 10.0429L6.26028 9.54071L7.12506 9.03856C6.94862 8.73469 6.69525 8.48309 6.39103 8.30844L5.89316 9.17569ZM6.26028 9.54071L5.3955 10.0429C5.39508 10.0421 5.39461 10.0408 5.39461 10.0391L6.39461 10.0393L7.39461 10.0394C7.39466 9.68766 7.30153 9.34246 7.12506 9.03856L6.26028 9.54071ZM6.39461 10.0393L5.39461 10.0391C5.39461 10.0375 5.39508 10.0362 5.3955 10.0354L6.26016 10.5378L7.12482 11.0402C7.30136 10.7363 7.39457 10.3911 7.39461 10.0394L6.39461 10.0393ZM6.26016 10.5378L5.3955 10.0354L5.39529 10.0353L5.89295 10.9027L6.39061 11.7701C6.69487 11.5955 6.9483 11.344 7.12482 11.0402L6.26016 10.5378ZM5.89295 10.9027L5.39529 10.0353C5.3945 10.0358 5.39314 10.0363 5.39141 10.0363L5.39136 11.0363L5.39131 12.0363C5.74176 12.0363 6.08639 11.9446 6.39061 11.7701L5.89295 10.9027ZM5.39136 11.0363L5.39141 10.0363C5.38968 10.0363 5.38832 10.0358 5.38753 10.0353L4.88979 10.9027L4.39204 11.77C4.69625 11.9446 5.04086 12.0363 5.39131 12.0363L5.39136 11.0363ZM4.88979 10.9027L5.38753 10.0353L5.38732 10.0354L4.52261 10.5377L3.65791 11.04C3.8344 11.3438 4.0878 11.5954 4.39204 11.77L4.88979 10.9027ZM4.52261 10.5377L5.38573 10.0327C5.20715 9.72748 4.91522 9.50682 4.57538 9.41691L4.31961 10.3836L4.06384 11.3504C3.89503 11.3057 3.74911 11.1959 3.6595 11.0427L4.52261 10.5377ZM4.31961 10.3836L4.57538 9.41691C4.23568 9.32704 3.8738 9.37453 3.56856 9.54975L4.06642 10.417L4.56427 11.2843C4.4123 11.3715 4.23252 11.395 4.06384 11.3504L4.31961 10.3836ZM4.06642 10.417L3.56856 9.54975C3.26311 9.7251 3.03832 10.0148 2.94563 10.3567L3.91081 10.6183L4.87599 10.8799C4.82934 11.052 4.71646 11.1969 4.56427 11.2843L4.06642 10.417ZM3.91081 10.6183L2.94563 10.3567C2.85291 10.6988 2.9006 11.0634 3.07749 11.3699L3.94362 10.8701L4.80975 10.3703C4.89858 10.5242 4.92268 10.7077 4.87599 10.8799L3.91081 10.6183ZM3.94362 10.8701L3.07892 11.3724C3.37388 11.8802 3.82843 12.2758 4.37107 12.4992L4.75177 11.5745L5.13247 10.6498C4.99501 10.5932 4.88143 10.4937 4.80832 10.3678L3.94362 10.8701ZM4.75177 11.5745L4.37107 12.4992C4.91362 12.7226 5.51479 12.7617 6.08171 12.6107L5.82435 11.6444L5.567 10.6781C5.42287 10.7164 5.27001 10.7064 5.13247 10.6498L4.75177 11.5745ZM5.82435 11.6444L6.08171 12.6107C6.64869 12.4597 7.15087 12.1267 7.50965 11.6619L6.71809 11.0508L5.92653 10.4397C5.83719 10.5555 5.71106 10.6397 5.567 10.6781L5.82435 11.6444ZM6.71809 11.0508L7.50965 11.6619C7.86852 11.1971 8.0636 10.6267 8.06361 10.0392L7.06361 10.0391L6.06361 10.0391C6.06361 10.1833 6.01579 10.3241 5.92653 10.4397L6.71809 11.0508ZM7.06361 10.0391L8.0636 10.0356C8.06156 9.45412 7.86729 8.89009 7.51172 8.43029L6.72065 9.04202L5.92959 9.65375C6.0164 9.766 6.06312 9.90266 6.06361 10.0427L7.06361 10.0391ZM6.72065 9.04202V10.042H8.37591V9.04202V8.04202H6.72065V9.04202ZM8.37591 9.04202H7.37591V11.3686H8.37591H9.37591V9.04202H8.37591ZM8.37591 11.3686H7.37591C7.37591 11.724 7.51798 12.0635 7.7689 12.3129L8.47385 11.6037L9.17881 10.8944C9.3043 11.0192 9.37591 11.1896 9.37591 11.3686H8.37591ZM8.47385 11.6037L7.7689 12.3129C8.01961 12.5621 8.35836 12.701 8.71031 12.701V11.701V10.701C8.88488 10.701 9.05352 10.7699 9.17881 10.8944L8.47385 11.6037ZM8.71031 11.701V12.701C9.06226 12.701 9.40101 12.5621 9.65172 12.3129L8.94677 11.6037L8.24181 10.8944C8.3671 10.7699 8.53574 10.701 8.71031 10.701V11.701ZM8.94677 11.6037L9.65172 12.3129C9.90264 12.0635 10.0447 11.724 10.0447 11.3686H9.04471H8.04471C8.04471 11.1896 8.11632 11.0192 8.24181 10.8944L8.94677 11.6037ZM9.04471 11.3686H10.0447V6.38301H9.04471H8.04471V11.3686H9.04471ZM9.04471 6.38301V7.38301H9.54631V6.38301V5.38301H9.04471V6.38301ZM9.54631 6.38301V7.38301C9.89826 7.38301 10.237 7.2441 10.4877 6.99491L9.78277 6.28566L9.07781 5.57641C9.2031 5.45189 9.37174 5.38301 9.54631 5.38301V6.38301ZM9.78277 6.28566L10.4877 6.99491C10.7386 6.74552 10.8807 6.40597 10.8807 6.05064H9.88071H8.88071C8.88071 5.87161 8.95232 5.70114 9.07781 5.57641L9.78277 6.28566ZM9.88071 6.05064H10.8807C10.8807 5.6953 10.7386 5.35576 10.4877 5.10636L9.78277 5.81561L9.07781 6.52486C8.95232 6.40013 8.88071 6.22967 8.88071 6.05064H9.88071ZM9.78277 5.81561L10.4877 5.10636C10.237 4.85717 9.89826 4.71826 9.54631 4.71826L9.54631 5.71826L9.54631 6.71826C9.37174 6.71826 9.2031 6.64939 9.07781 6.52486L9.78277 5.81561Z" fill="#AC0D0D" mask="url(#path-1-inside-1_415_31)"/>
<path d="M9.27205 14.9699H2.69484C1.76097 14.9699 1.00391 14.2128 1.00391 13.279V4.38869C1.00391 3.45482 1.76097 2.69775 2.69484 2.69775H11.5851C12.519 2.69775 13.276 3.45482 13.276 4.38869V6.35202" stroke="#AC0D0D" stroke-width="1.27481" stroke-miterlimit="10" stroke-linecap="round" stroke-linejoin="round"/>
<path d="M21.3093 7.79346H12.419C11.4851 7.79346 10.728 8.55052 10.728 9.48439V18.3747C10.728 19.3085 11.4851 20.0656 12.419 20.0656H13.5361V22.3016L16.0841 20.0656H21.3092C22.2432 20.0656 23.0002 19.3085 23.0002 18.3747V9.48444C23.0002 8.55052 22.2432 7.79346 21.3093 7.79346Z" stroke="#AC0D0D" stroke-width="1.27481" stroke-miterlimit="10" stroke-linecap="round" stroke-linejoin="round"/>
<path d="M14.1924 17.2074L16.8592 10.6431L19.5259 17.2074" stroke="#AC0D0D" stroke-miterlimit="10" stroke-linecap="round" stroke-linejoin="round"/>
<path d="M15.0581 15.0752H18.5924" stroke="#AC0D0D" stroke-miterlimit="10" stroke-linecap="round" stroke-linejoin="round"/>
</svg>
