<svg width="24" height="24" viewBox="0 0 24 24" fill="none" xmlns="http://www.w3.org/2000/svg">
<path d="M17.6023 24C17.0375 24 16.469 23.9237 15.9079 23.7698C8.32238 21.6873 2.31453 15.6834 0.231113 8.10028C-0.242671 6.3759 0.0169221 4.5789 0.964491 3.04283C1.91575 1.49939 3.47993 0.41134 5.2557 0.055633C6.42847 -0.179453 7.60493 0.344884 8.20423 1.35662L10.1277 4.60472C11.0617 6.18263 10.5976 8.21595 9.07041 9.23137L7.67876 10.157C8.97951 12.8291 11.1674 15.0224 13.8267 16.3221L14.7647 14.9227C15.7849 13.3977 17.819 12.9411 19.3954 13.8802L22.648 15.8199C23.6546 16.4206 24.1763 17.5948 23.9462 18.7431C23.5918 20.5192 22.5026 22.0836 20.9607 23.035C19.9245 23.6738 18.7714 24 17.6023 24ZM5.82053 1.84278C5.76023 1.84278 5.69873 1.84895 5.63966 1.86126C4.3426 2.12096 3.22029 2.9025 2.5373 4.01147C1.8617 5.1069 1.67585 6.38574 2.01303 7.6104C3.92417 14.5695 9.43605 20.0786 16.3964 21.9888C17.6208 22.3249 18.8981 22.1378 19.9909 21.4633C21.0984 20.7802 21.8813 19.6552 22.136 18.3801C22.2123 17.9973 22.0387 17.6047 21.7028 17.4053L18.4502 15.4655C17.7143 15.0285 16.7704 15.2427 16.2978 15.9504L14.9257 17.9998C14.6796 18.3665 14.2047 18.5068 13.8036 18.337C10.1573 16.8132 7.19149 13.8383 5.6643 10.1779C5.49448 9.76926 5.63828 9.29909 6.005 9.05416L8.04921 7.69409C8.75804 7.22268 8.97333 6.27865 8.53893 5.54632L6.6155 2.29817C6.4469 2.01139 6.14172 1.84278 5.82053 1.84278ZM15.5311 15.436H15.5434H15.5311ZM19.0766 9.5354C19.0766 6.99006 17.0055 4.91982 14.4618 4.91982C13.9524 4.91982 13.5389 5.33338 13.5389 5.84294C13.5389 6.3525 13.9524 6.76605 14.4618 6.76605C15.9878 6.76605 17.2307 8.00795 17.2307 9.5354C17.2307 10.045 17.6442 10.4585 18.1537 10.4585C18.6631 10.4585 19.0766 10.045 19.0766 9.5354ZM22.7684 9.5354C22.7684 4.95429 19.0422 1.22737 14.4618 1.22737C13.9524 1.22737 13.5389 1.64092 13.5389 2.15048C13.5389 2.66004 13.9524 3.0736 14.4618 3.0736C18.0244 3.0736 20.9225 5.97218 20.9225 9.5354C20.9225 10.045 21.336 10.4585 21.8455 10.4585C22.355 10.4585 22.7684 10.045 22.7684 9.5354Z" fill="#AC0D0D"/>
</svg>
