<svg width="24" height="24" viewBox="0 0 24 24" fill="none" xmlns="http://www.w3.org/2000/svg">
<path d="M22.4513 10.197L20.6084 8.35201C20.6022 8.34586 20.601 8.33728 20.5948 8.33113C20.5887 8.32498 20.5801 8.32369 20.5739 8.31753L13.5892 1.32677C12.7472 0.483696 11.5801 0 10.3873 0H3.32503C1.49205 0 0 1.49293 0 3.32677V10.3951C0 11.605 0.471511 12.7422 1.32583 13.5976L8.3131 20.5908C8.31679 20.5945 8.31797 20.5994 8.32166 20.6031C8.32536 20.6068 8.33029 20.608 8.33399 20.6117L10.1904 22.469C11.2048 23.4844 12.2819 24 13.3922 24C14.5014 24 15.5785 23.4844 16.5928 22.469L22.4549 16.6031C24.5156 14.5367 24.5157 12.2622 22.4513 10.197ZM1.84532 10.3939V3.32557C1.84532 2.50834 2.5089 1.84495 3.32383 1.84495H10.3861C11.0914 1.84495 11.7833 2.13172 12.2819 2.63018L18.6326 8.98588L8.97534 18.6412L2.63063 12.2905C2.13084 11.792 1.84532 11.1003 1.84532 10.3939ZM21.1463 15.2973L15.2843 21.1631C13.972 22.4763 12.8063 22.4763 11.494 21.1631L10.2803 19.9483L19.9376 10.293L21.1451 11.5016C22.4919 12.8493 22.4918 13.9483 21.1463 15.2973ZM7.07713 5.84495C7.07713 6.52434 6.52804 7.07572 5.84852 7.07572C5.17146 7.07572 4.6151 6.52434 4.6151 5.84495C4.6151 5.16557 5.15926 4.61418 5.83755 4.61418H5.84987C6.52816 4.61418 7.07713 5.16557 7.07713 5.84495Z" fill="#AC0D0D"/>
</svg>
