<svg width="24" height="24" viewBox="0 0 24 24" fill="none" xmlns="http://www.w3.org/2000/svg">
<path d="M23.1039 19.1369C23.0461 18.9572 23.0006 18.6902 23.1126 18.4465C23.6936 17.2009 24 15.8236 24 14.4623C24 10.6972 21.7168 7.26559 18.2927 5.76028C16.8267 2.37549 13.4554 0 9.53887 0C4.28073 0 0.00108311 4.2784 0.00108311 9.53774C0.00108311 10.9077 0.305093 12.2861 0.886048 13.533C0.973437 13.7188 0.977055 13.9613 0.901974 14.2014L0.0972422 16.5965C-0.129232 17.276 0.046564 18.0132 0.5549 18.5215C0.916766 18.8834 1.39443 19.0754 1.8843 19.0754C2.0837 19.0754 2.28566 19.0434 2.48259 18.9782L4.86163 18.1781C5.11518 18.0969 5.35647 18.1018 5.55217 18.1929C5.61371 18.2212 5.68024 18.2409 5.74178 18.2692C7.24587 21.7057 10.6872 24 14.4622 24C15.8235 24 17.202 23.6935 18.4402 23.1162C18.6901 23.0018 18.9572 23.0473 19.1295 23.1027L21.5224 23.904C22.2031 24.1268 22.9403 23.9507 23.4462 23.4436C23.9521 22.9365 24.1279 22.2005 23.9026 21.5149L23.1039 19.1369ZM5.21381 16.2765C4.90979 16.2765 4.59698 16.3257 4.28557 16.4254L1.84734 17.1824L2.65598 14.7749C2.87999 14.0721 2.84179 13.3484 2.55501 12.7465C2.09222 11.7495 1.84734 10.6393 1.84734 9.53646C1.84734 5.29502 5.29863 1.84504 9.53887 1.84504C13.7791 1.84504 17.2304 5.29502 17.2304 9.53646C17.2304 13.7779 13.7791 17.228 9.53887 17.228C8.43604 17.228 7.32576 16.983 6.33617 16.5239C5.99153 16.3602 5.61137 16.2765 5.21381 16.2765ZM21.3526 19.7155L22.1021 22.1525L19.7068 21.35C19.0101 21.1235 18.2865 21.1555 17.6661 21.4399C16.6642 21.9063 15.5552 22.1538 14.461 22.1538C11.9353 22.1538 9.66558 20.9438 8.24643 18.9745C8.67476 19.0336 9.10684 19.0742 9.53887 19.0742C14.797 19.0742 19.0767 14.7958 19.0767 9.53646C19.0767 9.10567 19.0386 8.68476 18.982 8.26874C20.9255 9.69405 22.1537 11.9871 22.1537 14.4611C22.1537 15.5553 21.9075 16.663 21.4374 17.671C21.1543 18.2889 21.1237 19.0127 21.3526 19.7155ZM8.30683 9.53894C8.30683 8.85952 8.85076 8.30811 9.52895 8.30811H9.54127C10.2195 8.30811 10.7697 8.85952 10.7697 9.53894C10.7697 10.2184 10.2207 10.7698 9.54127 10.7698C8.86308 10.7698 8.30683 10.2184 8.30683 9.53894ZM11.9933 9.53894C11.9933 8.85952 12.5384 8.30811 13.2179 8.30811H13.2302C13.9108 8.30811 14.461 8.85952 14.461 9.53894C14.461 10.2184 13.9108 10.7698 13.2302 10.7698C12.5508 10.7698 11.9933 10.2184 11.9933 9.53894ZM5.84515 10.7698C5.16573 10.7698 4.60831 10.2184 4.60831 9.53894C4.60831 8.85952 5.15341 8.30811 5.83283 8.30811H5.84515C6.52581 8.30811 7.07599 8.85952 7.07599 9.53894C7.07599 10.2184 6.52581 10.7698 5.84515 10.7698Z" fill="#AC0D0D"/>
</svg>
