<svg width="24" height="24" viewBox="0 0 24 24" fill="none" xmlns="http://www.w3.org/2000/svg">
<path d="M19.3846 24H14.1538V17.5389C14.1538 16.3513 13.1877 15.3852 12 15.3852C10.8123 15.3852 9.84615 16.3513 9.84615 17.5389V24H4.61538C1.63938 24 0 22.3607 0 19.3849V11.5701C0 8.95729 0.721221 8.22745 1.89784 7.25152L9.43014 0.936864C10.9181 -0.312288 13.0819 -0.312288 14.5699 0.936864L22.1022 7.25152C23.2788 8.22745 24 8.95852 24 11.5701V19.3849C24 22.3607 22.3606 24 19.3846 24ZM16 22.154H19.3846C21.3255 22.154 22.1538 21.3257 22.1538 19.3849V11.5701C22.1538 9.69202 21.8437 9.43483 20.9243 8.6718L13.3846 2.35099C12.5822 1.67903 11.4178 1.67903 10.6154 2.35099L3.07572 8.6718C2.15634 9.43483 1.84615 9.69202 1.84615 11.5701V19.3849C1.84615 21.3257 2.67446 22.154 4.61538 22.154H8V17.5389C8 15.3335 9.79446 13.5391 12 13.5391C14.2055 13.5391 16 15.3335 16 17.5389V22.154Z" fill="#AC0D0D"/>
</svg>
