<svg width="24" height="24" viewBox="0 0 24 24" fill="none" xmlns="http://www.w3.org/2000/svg">
<path d="M16.6162 18.1538V19.3846C16.6162 22.3606 14.9768 24 12.0006 24H4.61562C1.63947 24 0 22.3606 0 19.3846V4.61538C0 1.63938 1.63947 0 4.61562 0H12.0006C14.9768 0 16.6162 1.63938 16.6162 4.61538V5.84615C16.6162 6.35569 16.2027 6.76923 15.6931 6.76923C15.1835 6.76923 14.77 6.35569 14.77 5.84615V4.61538C14.77 2.67446 13.9416 1.84615 12.0006 1.84615H4.61562C2.6746 1.84615 1.84625 2.67446 1.84625 4.61538V19.3846C1.84625 21.3255 2.6746 22.1538 4.61562 22.1538H12.0006C13.9416 22.1538 14.77 21.3255 14.77 19.3846V18.1538C14.77 17.6443 15.1835 17.2308 15.6931 17.2308C16.2027 17.2308 16.6162 17.6443 16.6162 18.1538ZM23.9298 12.3532C24.0234 12.128 24.0234 11.8732 23.9298 11.648C23.8831 11.5348 23.8154 11.4326 23.7305 11.3477L20.038 7.65539C19.6773 7.29477 19.0926 7.29477 18.732 7.65539C18.3714 8.016 18.3714 8.60062 18.732 8.96124L20.8491 11.0782H7.07728C6.56772 11.0782 6.15416 11.4917 6.15416 12.0012C6.15416 12.5108 6.56772 12.9243 7.07728 12.9243H20.8491L18.732 15.0412C18.3714 15.4019 18.3714 15.9865 18.732 16.3471C18.9117 16.5268 19.1481 16.6179 19.3844 16.6179C19.6207 16.6179 19.857 16.528 20.0367 16.3471L23.7292 12.6548C23.8153 12.5674 23.8831 12.4652 23.9298 12.3532Z" fill="#FF0000"/>
</svg>
