<svg width="24" height="24" viewBox="0 0 24 24" fill="none" xmlns="http://www.w3.org/2000/svg">
<path d="M24 12C24 5.3827 18.6173 0 12 0C5.3827 0 0 5.3827 0 12C0 15.8735 1.8519 19.3139 4.70958 21.5096C4.71404 21.5141 4.72078 21.5163 4.72525 21.5208C6.74683 23.0691 9.26397 24 12.0011 24C14.7382 24 17.2555 23.0691 19.2771 21.5208C19.2815 21.5163 19.2881 21.5141 19.2926 21.5096C22.148 19.3139 24 15.8735 24 12ZM1.67442 12C1.67442 6.30586 6.30586 1.67442 12 1.67442C17.6941 1.67442 22.3256 6.30586 22.3256 12C22.3256 14.8164 21.1892 17.3716 19.3541 19.2358C18.8529 17.1137 17.2487 15.1478 13.9088 15.1478H10.0912C6.7513 15.1478 5.14603 17.1137 4.64594 19.2358C2.81078 17.3716 1.67442 14.8164 1.67442 12ZM6.14962 20.4994C6.21436 19.3541 6.7379 16.8223 10.0912 16.8223H13.9088C17.2621 16.8223 17.7856 19.3541 17.8504 20.4994C16.186 21.6491 14.1712 22.3256 12 22.3256C9.82884 22.3256 7.81399 21.648 6.14962 20.4994ZM12.009 13.9535C14.3163 13.9535 16.195 12.0759 16.195 9.76744C16.195 7.45898 14.3163 5.5814 12.009 5.5814C9.70165 5.5814 7.82295 7.45898 7.82295 9.76744C7.82295 12.0759 9.70053 13.9535 12.009 13.9535ZM12.009 7.25581C13.3932 7.25581 14.5206 8.38214 14.5206 9.76744C14.5206 11.1527 13.3932 12.2791 12.009 12.2791C10.6248 12.2791 9.49737 11.1527 9.49737 9.76744C9.49737 8.38214 10.6248 7.25581 12.009 7.25581Z" fill="#AC0D0D"/>
</svg>
