<svg width="24" height="24" viewBox="0 0 24 24" fill="none" xmlns="http://www.w3.org/2000/svg">
<path d="M10.0482 22.0624C10.0482 22.856 9.41644 23.5 8.63798 23.5C7.86064 23.5 7.22207 22.856 7.22207 22.0624C7.22207 21.2689 7.84822 20.6249 8.62669 20.6249H8.63798C9.41644 20.6249 10.0482 21.2689 10.0482 22.0624ZM17.6636 20.6249H17.6523C16.8739 20.6249 16.2477 21.2689 16.2477 22.0624C16.2477 22.856 16.8852 23.5 17.6636 23.5C18.4421 23.5 19.0739 22.856 19.0739 22.0624C19.0739 21.2689 18.4421 20.6249 17.6636 20.6249ZM22.9492 7.67751L21.8053 14.7688C21.5086 16.4317 20.7707 18.3247 17.641 18.3247H8.3153C6.78207 18.3247 5.46089 17.1574 5.24427 15.6095L3.54067 3.4591C3.44139 2.75526 2.84238 2.22509 2.14515 2.22509H1.84615C1.37908 2.22509 1 1.83867 1 1.36254C1 0.886419 1.37908 0.5 1.84615 0.5H2.14625C3.67948 0.5 5.00066 1.6673 5.21728 3.21528L5.32098 3.95017H19.8975C20.8203 3.95017 21.6891 4.36418 22.2803 5.08642C22.8703 5.80751 23.115 6.75286 22.9492 7.67751ZM20.1378 14.4755L20.2584 13.7245H13.1282C12.6611 13.7245 12.2821 13.3381 12.2821 12.862C12.2821 12.3858 12.6611 11.9994 13.1282 11.9994H20.5372L21.2818 7.38308C21.3597 6.94836 21.249 6.51825 20.9794 6.19048C20.7097 5.86272 20.316 5.6741 19.8964 5.6741H5.5613L6.91964 15.3656C7.01892 16.0695 7.61807 16.5997 8.3153 16.5997H17.641C19.4428 16.5997 19.8817 15.9142 20.1378 14.4755Z" fill="#AC0D0D"/>
</svg>
