<svg width="24" height="24" viewBox="0 0 24 24" fill="none" xmlns="http://www.w3.org/2000/svg">
<path d="M15.3846 7.07692C15.3846 7.58646 14.9711 8 14.4615 8H10.1538C9.64431 8 9.23077 7.58646 9.23077 7.07692C9.23077 6.56738 9.64431 6.15385 10.1538 6.15385H14.4615C14.9711 6.15385 15.3846 6.56738 15.3846 7.07692ZM14.4615 11.0769H10.1538C9.64431 11.0769 9.23077 11.4905 9.23077 12C9.23077 12.5095 9.64431 12.9231 10.1538 12.9231H14.4615C14.9711 12.9231 15.3846 12.5095 15.3846 12C15.3846 11.4905 14.9711 11.0769 14.4615 11.0769ZM14.4615 16H10.1538C9.64431 16 9.23077 16.4135 9.23077 16.9231C9.23077 17.4326 9.64431 17.8462 10.1538 17.8462H14.4615C14.9711 17.8462 15.3846 17.4326 15.3846 16.9231C15.3846 16.4135 14.9711 16 14.4615 16ZM5.80919 5.80919L5.22957 6.3889C4.86772 6.06397 4.31012 6.0775 3.96304 6.42458C3.60243 6.78519 3.60243 7.36985 3.96304 7.73047L4.57843 8.34585C4.75812 8.52555 4.99446 8.61659 5.23077 8.61659C5.46708 8.61659 5.70342 8.52678 5.88311 8.34585L7.11388 7.11508C7.4745 6.75447 7.4745 6.16981 7.11388 5.80919C6.75327 5.44858 6.16981 5.44858 5.80919 5.80919ZM5.80919 10.7323L5.22957 11.312C4.86772 10.9871 4.31012 11.0006 3.96304 11.3477C3.60243 11.7083 3.60243 12.2929 3.96304 12.6535L4.57843 13.2689C4.75812 13.4486 4.99446 13.5397 5.23077 13.5397C5.46708 13.5397 5.70342 13.4499 5.88311 13.2689L7.11388 12.0382C7.4745 11.6775 7.4745 11.0929 7.11388 10.7323C6.75327 10.3717 6.16981 10.3717 5.80919 10.7323ZM5.80919 15.6553L5.22957 16.2351C4.86772 15.9101 4.31012 15.9237 3.96304 16.2707C3.60243 16.6313 3.60243 17.216 3.96304 17.5766L4.57843 18.192C4.75812 18.3717 4.99446 18.4627 5.23077 18.4627C5.46708 18.4627 5.70342 18.3729 5.88311 18.192L7.11388 16.9612C7.4745 16.6006 7.4745 16.016 7.11388 15.6553C6.75327 15.2947 6.16981 15.2947 5.80919 15.6553ZM24 11.3846V20.6154C24 22.4825 22.4825 24 20.6154 24H4.61538C1.63938 24 0 22.3606 0 19.3846V4.61538C0 1.63938 1.63938 0 4.61538 0H14.4615C17.4375 0 19.0769 1.63938 19.0769 4.61538V8.61538H21.2308C22.7569 8.61538 24 9.85723 24 11.3846ZM17.6013 22.1538C17.365 21.6923 17.2308 21.1692 17.2308 20.6154V4.61538C17.2308 2.67446 16.4025 1.84615 14.4615 1.84615H4.61538C2.67446 1.84615 1.84615 2.67446 1.84615 4.61538V19.3846C1.84615 21.3255 2.67446 22.1538 4.61538 22.1538H17.6013ZM22.1538 11.3846C22.1538 10.8751 21.7391 10.4615 21.2308 10.4615H19.0769V20.6154C19.0769 21.4634 19.7674 22.1538 20.6154 22.1538C21.4634 22.1538 22.1538 21.4634 22.1538 20.6154V11.3846Z" fill="#AC0D0D"/>
</svg>
