<svg width="24" height="24" viewBox="0 0 24 24" fill="none" xmlns="http://www.w3.org/2000/svg">
<path d="M20.3077 4.98092V4.61538C20.3077 1.63938 18.6683 0 15.6923 0H3.38462C1.51754 0 0 1.51754 0 3.38462V19.3846C0 22.3606 1.63938 24 4.61538 24H19.3846C22.3606 24 24 22.3606 24 19.3846V9.53846C24 6.88615 22.6978 5.296 20.3077 4.98092ZM22.1538 16.6154H17.5385C16.3508 16.6154 15.3846 15.6492 15.3846 14.4615C15.3846 13.2738 16.3508 12.3077 17.5385 12.3077H22.1538V16.6154ZM3.38462 1.84615H15.6923C17.6332 1.84615 18.4615 2.67446 18.4615 4.61538V4.92308H3.38462C2.53662 4.92308 1.84615 4.23262 1.84615 3.38462C1.84615 2.53662 2.53662 1.84615 3.38462 1.84615ZM19.3846 22.1538H4.61538C2.67446 22.1538 1.84615 21.3255 1.84615 19.3846V6.39874C2.30769 6.63505 2.83077 6.76923 3.38462 6.76923H19.3846C21.3255 6.76923 22.1538 7.59754 22.1538 9.53846V10.4615H17.5385C15.3329 10.4615 13.5385 12.256 13.5385 14.4615C13.5385 16.6671 15.3329 18.4615 17.5385 18.4615H22.1538V19.3846C22.1538 21.3255 21.3255 22.1538 19.3846 22.1538ZM18.1662 13.2308H18.1785C18.8591 13.2308 19.4093 13.7822 19.4093 14.4615C19.4093 15.1409 18.8591 15.6923 18.1785 15.6923C17.4991 15.6923 16.9416 15.1409 16.9416 14.4615C16.9416 13.7822 17.4868 13.2308 18.1662 13.2308Z" fill="#AC0D0D"/>
</svg>
