<svg width="24" height="24" viewBox="0 0 24 24" fill="none" xmlns="http://www.w3.org/2000/svg">
<path d="M20.6152 18.0946C20.6152 18.6093 20.2017 19.027 19.6921 19.027H19.0767V19.6486C19.0767 20.1634 18.6631 20.5811 18.1535 20.5811C17.644 20.5811 17.2304 20.1634 17.2304 19.6486V19.027H16.615C16.1054 19.027 15.6919 18.6093 15.6919 18.0946C15.6919 17.5799 16.1054 17.1622 16.615 17.1622H17.2304V16.5405C17.2304 16.0258 17.644 15.6081 18.1535 15.6081C18.6631 15.6081 19.0767 16.0258 19.0767 16.5405V17.1622H19.6921C20.2017 17.1622 20.6152 17.5799 20.6152 18.0946ZM24 18.0946C24 21.3506 21.3771 24 18.1535 24C16.7935 24 15.5565 23.5089 14.5632 22.7194C13.3053 23.4927 12.4215 23.8981 12.3797 23.918C12.2578 23.9727 12.1299 24 11.9994 24C11.8689 24 11.7384 23.9726 11.6166 23.9167C11.2141 23.7314 1.73672 19.3005 0.222795 11.396C-0.364312 8.33265 0.225293 5.34762 1.7983 3.41189C3.07221 1.84541 4.90243 1.01119 7.09454 1C7.10193 1 7.11059 1 7.11798 1C9.62642 1 11.1526 2.4409 11.9994 3.66549C12.845 2.4409 14.3724 1 16.8784 1C16.8858 1 16.8932 1 16.9018 1C19.0976 1.01119 20.9304 1.84419 22.203 3.41068C23.7748 5.34517 24.3631 8.33013 23.7748 11.3972C23.5717 12.4415 23.2148 13.4685 22.7286 14.4631C23.5126 15.4676 24 16.7183 24 18.0946ZM13.2696 21.3258C12.6652 20.3958 12.3071 19.2881 12.3071 18.0946C12.3071 14.8385 14.93 12.1892 18.1535 12.1892C19.3081 12.1892 20.3776 12.5398 21.2847 13.1253C21.5789 12.4391 21.8239 11.7441 21.9605 11.0404C22.4455 8.51539 22.0012 6.10475 20.774 4.59421C19.8484 3.45539 18.5425 2.87357 16.8919 2.86486C16.887 2.86486 16.8821 2.86486 16.8772 2.86486C13.9527 2.86486 12.9151 5.82252 12.8732 5.94808C12.7452 6.32479 12.3933 6.58094 11.9994 6.58094C11.9969 6.58094 11.9957 6.58094 11.9944 6.58094C11.5993 6.57969 11.2486 6.32484 11.1218 5.94566C11.0812 5.82382 10.0435 2.86608 7.11663 2.86608C7.1117 2.86608 7.10683 2.86608 7.1019 2.86608C5.45628 2.87478 4.15157 3.45666 3.22475 4.59671C1.99638 6.10974 1.55215 8.51914 2.03464 11.0429C3.20639 17.1671 10.2713 21.1418 12.0006 22.0307C12.2911 21.8828 12.7379 21.6403 13.2696 21.3258ZM22.1538 18.0946C22.1538 15.8667 20.3592 14.0541 18.1535 14.0541C15.9479 14.0541 14.1533 15.8667 14.1533 18.0946C14.1533 20.3225 15.9479 22.1351 18.1535 22.1351C20.3592 22.1351 22.1538 20.3225 22.1538 18.0946Z" fill="#AC0D0D"/>
</svg>
