<svg width="24" height="24" viewBox="0 0 24 24" fill="none" xmlns="http://www.w3.org/2000/svg">
<path d="M18.2857 2.46154H17.9463C17.8243 0.918154 16.8035 0 15.1429 0H8.85714C7.19646 0 6.17568 0.918154 6.05374 2.46154H5.71429C2.67451 2.46154 1 4.10092 1 7.07692V19.3846C1 22.3606 2.67451 24 5.71429 24H18.2857C21.3255 24 23 22.3606 23 19.3846V7.07692C23 4.10092 21.3255 2.46154 18.2857 2.46154ZM7.91429 2.76923C7.91429 2.04431 8.11669 1.84615 8.85714 1.84615H15.1429C15.8833 1.84615 16.0857 2.04431 16.0857 2.76923V4C16.0857 4.72492 15.8833 4.92308 15.1429 4.92308H8.85714C8.11669 4.92308 7.91429 4.72492 7.91429 4V2.76923ZM21.1143 19.3846C21.1143 21.3255 20.2682 22.1538 18.2857 22.1538H5.71429C3.73177 22.1538 2.88571 21.3255 2.88571 19.3846V7.07692C2.88571 5.136 3.73177 4.30769 5.71429 4.30769H6.05374C6.17568 5.85108 7.19646 6.76923 8.85714 6.76923H15.1429C16.8035 6.76923 17.8243 5.85108 17.9463 4.30769H18.2857C20.2682 4.30769 21.1143 5.136 21.1143 7.07692V19.3846ZM17.9714 12C17.9714 12.5095 17.549 12.9231 17.0286 12.9231H10.7429C10.2224 12.9231 9.8 12.5095 9.8 12C9.8 11.4905 10.2224 11.0769 10.7429 11.0769H17.0286C17.549 11.0769 17.9714 11.4905 17.9714 12ZM17.9714 16.9231C17.9714 17.4326 17.549 17.8462 17.0286 17.8462H10.7429C10.2224 17.8462 9.8 17.4326 9.8 16.9231C9.8 16.4135 10.2224 16 10.7429 16H17.0286C17.549 16 17.9714 16.4135 17.9714 16.9231ZM7.91429 12C7.91429 12.5095 7.49189 12.9231 6.97143 12.9231C6.45097 12.9231 6.02857 12.5095 6.02857 12C6.02857 11.4905 6.45097 11.0769 6.97143 11.0769C7.49189 11.0769 7.91429 11.4905 7.91429 12ZM7.91429 16.9231C7.91429 17.4326 7.49189 17.8462 6.97143 17.8462C6.45097 17.8462 6.02857 17.4326 6.02857 16.9231C6.02857 16.4135 6.45097 16 6.97143 16C7.49189 16 7.91429 16.4135 7.91429 16.9231Z" fill="#AC0D0D"/>
</svg>
