<svg width="24" height="24" viewBox="0 0 24 24" fill="none" xmlns="http://www.w3.org/2000/svg">
<path d="M17.9763 23C17.6206 23 17.2636 22.9179 16.9324 22.7503L12.1465 20.3304C12.0554 20.284 11.947 20.284 11.8559 20.3304L7.0736 22.7479C6.31164 23.1332 5.40577 23.069 4.70904 22.579C4.01601 22.0903 3.67378 21.2805 3.81903 20.4636L4.73113 15.3491C4.74837 15.2528 4.71508 15.1553 4.64368 15.0876L0.654165 11.3466C0.0620709 10.7913 -0.148358 9.97429 0.106452 9.21444C0.361261 8.45458 1.02834 7.91116 1.84816 7.79582L7.36542 7.02525C7.46635 7.01098 7.55251 6.95035 7.59682 6.86355L9.98858 2.20459C10.3702 1.46138 11.1408 1 12 1C12.8592 1 13.6299 1.46138 14.0115 2.20459L16.4019 6.86238C16.4474 6.95038 16.5337 7.01098 16.6346 7.02525L22.1517 7.79582C22.9715 7.90997 23.6388 8.4534 23.8936 9.21444C24.1484 9.97429 23.9378 10.7913 23.3457 11.3466L19.3574 15.0863C19.2835 15.1553 19.2517 15.2528 19.2689 15.3491L20.181 20.466C20.3263 21.2817 19.9865 22.0915 19.2922 22.579C18.9007 22.8585 18.4392 23 17.9763 23ZM12.0012 18.5123C12.3447 18.5123 12.6893 18.5907 13.002 18.7489L17.788 21.1688C17.9788 21.2663 18.1339 21.1913 18.2077 21.139C18.2816 21.0879 18.3985 20.9702 18.3628 20.7704L17.4507 15.6524C17.3301 14.9746 17.5639 14.2849 18.0747 13.8068L22.0619 10.0682C22.1813 9.95647 22.1616 9.83039 22.1394 9.76618C22.1172 9.70078 22.0557 9.58667 21.8895 9.56289L16.3724 8.79232C15.6695 8.69481 15.0627 8.26911 14.7488 7.65552L12.3594 2.99888C12.2647 2.81338 12.0947 2.78601 12.0024 2.78601C11.9101 2.78601 11.7403 2.81338 11.6455 2.99888L9.25499 7.65668C8.94232 8.26908 8.33547 8.69481 7.63258 8.79232L2.11533 9.56289C1.94915 9.58667 1.88637 9.69959 1.86544 9.76618C1.84329 9.83158 1.82481 9.95647 1.94298 10.0682L5.93129 13.8081C6.44091 14.2849 6.67477 14.9746 6.55414 15.6524L5.64203 20.7668C5.60634 20.9678 5.7246 21.0855 5.79846 21.1379C5.87478 21.1902 6.02483 21.2639 6.22055 21.1675L11.0029 18.7501C11.3131 18.5919 11.6578 18.5123 12.0012 18.5123Z" fill="#AC0D0D"/>
</svg>
