<svg width="24" height="24" viewBox="0 0 24 24" fill="none" xmlns="http://www.w3.org/2000/svg">
<path d="M15.9665 23H8.0357C5.57442 23 4.21815 21.6372 4.21815 19.1643C4.21815 16.4522 5.7363 13.2856 10.017 13.2856H13.9851C18.2659 13.2856 19.784 16.4522 19.784 19.1643C19.784 21.6372 18.4278 23 15.9665 23ZM10.017 14.9778C6.18949 14.9778 5.89249 18.1817 5.89249 19.1643C5.89249 20.6873 6.51428 21.3078 8.0357 21.3078H15.9665C17.4879 21.3078 18.1097 20.6861 18.1097 19.1643C18.1097 18.1817 17.8116 14.9778 13.9851 14.9778H10.017ZM12.0095 11.732C9.69783 11.732 7.81687 9.8311 7.81687 7.4947C7.81687 5.15831 9.69783 3.2574 12.0095 3.2574C14.3212 3.2574 16.2032 5.15831 16.2032 7.4947C16.2032 9.8311 14.3212 11.732 12.0095 11.732ZM12.0095 4.94962C10.6209 4.94962 9.49121 6.09129 9.49121 7.4947C9.49121 8.89812 10.6209 10.0398 12.0095 10.0398C13.3981 10.0398 14.5288 8.89812 14.5288 7.4947C14.5288 6.09129 13.3981 4.94962 12.0095 4.94962ZM24 12.7339C24 10.5047 22.6327 8.25516 19.5798 8.25516H18.4969C18.0348 8.25516 17.6598 8.63422 17.6598 9.10127C17.6598 9.56832 18.0348 9.94738 18.4969 9.94738H19.5798C22.0589 9.94738 22.3257 11.8957 22.3257 12.7339C22.3257 13.7086 21.9807 14.0537 21.0084 14.0537H20.6066C20.1445 14.0537 19.7695 14.4328 19.7695 14.8998C19.7695 15.3669 20.1445 15.7459 20.6066 15.7459H21.0084C22.9094 15.7459 24 14.6483 24 12.7339ZM18.8084 7.52748C20.3164 7.22062 21.4104 5.86009 21.4104 4.29535C21.4104 2.47903 19.9481 1.0011 18.151 1.0011C17.3015 1.0011 16.5112 1.3192 15.9263 1.89569C15.5948 2.22172 15.5882 2.75763 15.9108 3.09269C16.2322 3.42775 16.7646 3.43457 17.095 3.10853C17.3662 2.84116 17.7413 2.69443 18.151 2.69443C19.025 2.69443 19.7361 3.41311 19.7361 4.29645C19.7361 5.05908 19.2058 5.72132 18.4769 5.87024C18.0237 5.96274 17.7301 6.40939 17.8216 6.86742C17.902 7.26904 18.2514 7.54662 18.641 7.54662C18.6968 7.54437 18.7526 7.53876 18.8084 7.52748ZM4.22047 14.8998C4.22047 14.4328 3.84541 14.0537 3.38329 14.0537H2.99142C2.01918 14.0537 1.67434 13.7086 1.67434 12.7339C1.67434 11.8957 1.94108 9.94738 4.42022 9.94738H5.52528C5.98739 9.94738 6.36245 9.56832 6.36245 9.10127C6.36245 8.63422 5.98739 8.25516 5.52528 8.25516H4.42022C1.15749 8.25516 0 10.6682 0 12.7339C0 14.6483 1.09048 15.7459 2.99142 15.7459H3.38329C3.84541 15.7459 4.22047 15.3669 4.22047 14.8998ZM6.20289 6.86522C6.29442 6.40719 6.00081 5.9604 5.54762 5.8679C4.81091 5.71785 4.2762 5.05673 4.2762 4.29411C4.2762 3.41077 4.99287 2.69222 5.87246 2.69222C6.2743 2.69222 6.65263 2.84227 6.9395 3.11528C7.27549 3.4368 7.80464 3.42097 8.12277 3.0814C8.44089 2.74183 8.42523 2.20603 8.08925 1.88564C7.49207 1.31479 6.70514 1 5.87355 1C4.07084 1 2.60308 2.47779 2.60308 4.29411C2.60308 5.85772 3.70247 7.21727 5.2172 7.52638C5.27301 7.53766 5.32887 7.54318 5.38357 7.54318C5.77313 7.54431 6.1214 7.26684 6.20289 6.86522Z" fill="#AC0D0D"/>
</svg>
