<svg width="24" height="24" viewBox="0 0 24 24" fill="none" xmlns="http://www.w3.org/2000/svg">
<path d="M21.7628 9.00948L21.2652 8.51182C21.1073 8.35384 21.0169 8.13604 21.0169 7.91261V7.21184C21.0169 4.87933 19.1189 2.98242 16.7876 2.98242H16.0867C15.8644 2.98242 15.6456 2.89214 15.4887 2.73416L14.991 2.2365C13.3424 0.587833 10.6578 0.587833 9.00911 2.2365L8.51156 2.73416C8.35357 2.89214 8.13575 2.98242 7.91345 2.98242H7.21272C4.88135 2.98242 2.98325 4.87933 2.98325 7.21184V7.91261C2.98325 8.13604 2.89301 8.35384 2.73503 8.51182L2.23734 9.00948C0.587554 10.6581 0.587554 13.3416 2.23734 14.9914L2.73503 15.4891C2.89301 15.647 2.98325 15.8648 2.98325 16.0871V16.7879C2.98325 19.1204 4.88135 21.0173 7.21272 21.0173H7.91345C8.13575 21.0173 8.3547 21.1076 8.51156 21.2656L9.00911 21.7632C9.83287 22.5881 10.9162 23 11.9995 23C13.0828 23 14.1662 22.5881 14.9899 21.7632L15.4875 21.2644C15.6455 21.1076 15.8633 21.0173 16.0856 21.0173H16.7863C19.1177 21.0173 21.0158 19.1204 21.0158 16.7879V16.0871C21.0158 15.8648 21.106 15.6459 21.264 15.4891L21.7617 14.9914C23.4126 13.3416 23.4126 10.6581 21.7628 9.00948ZM20.5667 13.7941L20.069 14.2918C19.5894 14.7714 19.3253 15.4089 19.3253 16.0871V16.7879C19.3253 18.1872 18.1868 19.3246 16.7887 19.3246H16.0879C15.4188 19.3246 14.7642 19.5955 14.2925 20.0683L13.7948 20.566C12.8356 21.524 11.1656 21.524 10.2064 20.566L9.70874 20.0683C9.23705 19.5955 8.58262 19.3246 7.91345 19.3246H7.21272C5.81457 19.3246 4.67592 18.1861 4.67592 16.7879V16.0871C4.67592 15.4089 4.4118 14.7714 3.93221 14.2918L3.43466 13.7941C2.95507 13.3145 2.69205 12.6781 2.69205 11.9999C2.69205 11.3217 2.95507 10.6852 3.43466 10.2056L3.93221 9.70798C4.4118 9.22839 4.67592 8.59081 4.67592 7.91261V7.21184C4.67592 5.81256 5.81457 4.6751 7.21272 4.6751H7.91345C8.58149 4.6751 9.23592 4.40427 9.70874 3.93145L10.2064 3.43379C11.1656 2.47574 12.8356 2.47574 13.7948 3.43379L14.2925 3.93145C14.7653 4.40427 15.4199 4.6751 16.0879 4.6751H16.7887C18.1868 4.6751 19.3253 5.81369 19.3253 7.21184V7.91261C19.3253 8.59081 19.5894 9.22839 20.069 9.70798L20.5667 10.2056C21.0463 10.6852 21.3092 11.3217 21.3092 11.9999C21.3092 12.6781 21.0463 13.3145 20.5667 13.7941Z" fill="#AC0D0D"/>
<path d="M15.3291 9.48047L15.0146 10.5605H8.6709L8.98535 9.48047H15.3291ZM12.4854 17L8.86914 12.7754L8.8623 11.9277H10.5303C11.0133 11.9277 11.4121 11.848 11.7266 11.6885C12.0456 11.5244 12.2848 11.3034 12.4443 11.0254C12.6038 10.7474 12.6836 10.4352 12.6836 10.0889C12.6836 9.7015 12.6084 9.36198 12.458 9.07031C12.3076 8.77409 12.0706 8.54395 11.7471 8.37988C11.4281 8.21126 11.0088 8.12695 10.4893 8.12695H8.68457L9.00586 7.04688H10.4893C11.2822 7.04688 11.9362 7.16764 12.4512 7.40918C12.9707 7.64616 13.3581 7.99251 13.6133 8.44824C13.8685 8.90397 13.9961 9.4554 13.9961 10.1025C13.9961 10.6585 13.889 11.1576 13.6748 11.5996C13.4652 12.0371 13.1165 12.3812 12.6289 12.6318C12.1458 12.8825 11.4941 13.0078 10.6738 13.0078L14.0371 16.918V17H12.4854ZM15.3291 7.04688L15.0146 8.12695H9.90137L10.2158 7.04688H15.3291Z" fill="#AC0D0D"/>
</svg>
