<svg width="26" height="26" viewBox="0 0 26 26" fill="none" xmlns="http://www.w3.org/2000/svg">
<g clip-path="url(#clip0_2188_1412)">
<path d="M13 26C20.1797 26 26 20.1797 26 13C26 5.8203 20.1797 0 13 0C5.8203 0 0 5.8203 0 13C0 20.1797 5.8203 26 13 26Z" fill="#F3F3F3"/>
<path d="M15.3687 19.5002H10.632C9.16202 19.5002 8.35199 18.6948 8.35199 17.2335C8.35199 15.6308 9.2587 13.7595 11.8154 13.7595H14.1853C16.742 13.7595 17.6487 15.6308 17.6487 17.2335C17.6487 18.6948 16.8387 19.5002 15.3687 19.5002ZM11.8154 14.7595C9.52937 14.7595 9.35199 16.6528 9.35199 17.2335C9.35199 18.1335 9.72335 18.5002 10.632 18.5002H15.3687C16.2773 18.5002 16.6487 18.1328 16.6487 17.2335C16.6487 16.6528 16.4707 14.7595 14.1853 14.7595H11.8154ZM13.0054 12.8415C11.6247 12.8415 10.5013 11.7182 10.5013 10.3375C10.5013 8.95682 11.6247 7.8335 13.0054 7.8335C14.3861 7.8335 15.51 8.95682 15.51 10.3375C15.51 11.7182 14.3861 12.8415 13.0054 12.8415ZM13.0054 8.8335C12.1761 8.8335 11.5013 9.50815 11.5013 10.3375C11.5013 11.1668 12.1761 11.8415 13.0054 11.8415C13.8347 11.8415 14.51 11.1668 14.51 10.3375C14.51 9.50815 13.8347 8.8335 13.0054 8.8335ZM20.1667 13.4335C20.1667 12.1162 19.35 10.7869 17.5267 10.7869H16.88C16.604 10.7869 16.38 11.0109 16.38 11.2869C16.38 11.5629 16.604 11.7869 16.88 11.7869H17.5267C19.0074 11.7869 19.1667 12.9382 19.1667 13.4335C19.1667 14.0095 18.9607 14.2135 18.38 14.2135H18.14C17.864 14.2135 17.64 14.4375 17.64 14.7135C17.64 14.9895 17.864 15.2135 18.14 15.2135H18.38C19.5153 15.2135 20.1667 14.5648 20.1667 13.4335ZM17.066 10.3569C17.9667 10.1755 18.6201 9.37153 18.6201 8.44686C18.6201 7.37353 17.7467 6.50016 16.6734 6.50016C16.166 6.50016 15.694 6.68814 15.3447 7.02881C15.1467 7.22148 15.1427 7.53817 15.3354 7.73617C15.5274 7.93417 15.8453 7.93819 16.0427 7.74552C16.2047 7.58752 16.4287 7.50081 16.6734 7.50081C17.1954 7.50081 17.6201 7.92551 17.6201 8.44751C17.6201 8.89818 17.3034 9.28952 16.868 9.37752C16.5974 9.43219 16.422 9.69613 16.4767 9.9668C16.5247 10.2041 16.7333 10.3682 16.966 10.3682C16.9993 10.3668 17.0327 10.3635 17.066 10.3569ZM8.35337 14.7135C8.35337 14.4375 8.12937 14.2135 7.85337 14.2135H7.61932C7.03866 14.2135 6.8327 14.0095 6.8327 13.4335C6.8327 12.9382 6.99201 11.7869 8.47268 11.7869H9.13267C9.40867 11.7869 9.63267 11.5629 9.63267 11.2869C9.63267 11.0109 9.40867 10.7869 9.13267 10.7869H8.47268C6.52401 10.7869 5.8327 12.2128 5.8327 13.4335C5.8327 14.5648 6.48399 15.2135 7.61932 15.2135H7.85337C8.12937 15.2135 8.35337 14.9895 8.35337 14.7135ZM9.53737 9.96549C9.59204 9.69483 9.41668 9.43081 9.14602 9.37614C8.70602 9.28747 8.38666 8.89679 8.38666 8.44613C8.38666 7.92413 8.81469 7.49951 9.34003 7.49951C9.58003 7.49951 9.80598 7.58818 9.97732 7.74951C10.178 7.93951 10.494 7.93016 10.684 7.72949C10.874 7.52883 10.8647 7.2122 10.664 7.02287C10.3073 6.68553 9.83734 6.49951 9.34068 6.49951C8.26401 6.49951 7.38739 7.37279 7.38739 8.44613C7.38739 9.37013 8.044 10.1735 8.94867 10.3562C8.982 10.3629 9.01537 10.3661 9.04803 10.3661C9.2807 10.3668 9.48871 10.2028 9.53737 9.96549Z" fill="#121212"/>
</g>
<defs>
<clipPath id="clip0_2188_1412">
<rect width="26" height="26" fill="white"/>
</clipPath>
</defs>
</svg>
