<svg width="20" height="20" viewBox="0 0 20 20" fill="none" xmlns="http://www.w3.org/2000/svg">
<path d="M19.8541 9.99967C19.8541 4.56567 15.4339 0.145508 9.99992 0.145508C4.56592 0.145508 0.145752 4.56567 0.145752 9.99967C0.145752 13.1805 1.6665 16.0057 4.01316 17.8088C4.01683 17.8125 4.02236 17.8143 4.02603 17.818C5.68611 19.0894 7.75315 19.8538 10.0008 19.8538C12.2485 19.8538 14.3156 19.0894 15.9757 17.818C15.9794 17.8143 15.9848 17.8125 15.9885 17.8088C18.3333 16.0057 19.8541 13.1805 19.8541 9.99967ZM1.52075 9.99967C1.52075 5.32376 5.324 1.52051 9.99992 1.52051C14.6758 1.52051 18.4791 5.32376 18.4791 9.99967C18.4791 12.3124 17.5459 14.4107 16.0389 15.9416C15.6273 14.199 14.3101 12.5846 11.5674 12.5846H8.43246C5.68979 12.5846 4.37157 14.199 3.96091 15.9416C2.45391 14.4107 1.52075 12.3124 1.52075 9.99967ZM5.1957 16.9792C5.24887 16.0387 5.67879 13.9596 8.43246 13.9596H11.5674C14.321 13.9596 14.751 16.0387 14.8041 16.9792C13.4374 17.9234 11.7828 18.4788 9.99992 18.4788C8.217 18.4788 6.56245 17.9224 5.1957 16.9792ZM10.0073 11.6038C11.9021 11.6038 13.4448 10.062 13.4448 8.16634C13.4448 6.27067 11.9021 4.72884 10.0073 4.72884C8.11255 4.72884 6.5698 6.27067 6.5698 8.16634C6.5698 10.062 8.11164 11.6038 10.0073 11.6038ZM10.0073 6.10384C11.144 6.10384 12.0698 7.02876 12.0698 8.16634C12.0698 9.30392 11.144 10.2288 10.0073 10.2288C8.87064 10.2288 7.9448 9.30392 7.9448 8.16634C7.9448 7.02876 8.87064 6.10384 10.0073 6.10384Z" fill="#878787"/>
</svg>
