<svg width="30" height="30" viewBox="0 0 30 30" fill="none" xmlns="http://www.w3.org/2000/svg">
<path d="M15 2C7.83126 2 2 7.83246 2 15C2 22.1675 7.83126 28 15 28C22.1687 28 28 22.1675 28 15C28 7.83246 22.1687 2 15 2ZM15 26.186C8.83135 26.186 3.81395 21.1687 3.81395 15C3.81395 8.83135 8.83135 3.81395 15 3.81395C21.1687 3.81395 26.186 8.83135 26.186 15C26.186 21.1687 21.1687 26.186 15 26.186ZM19.8735 11.5365C20.2278 11.8909 20.2278 12.4653 19.8735 12.8197L14.2297 18.4635C14.0531 18.64 13.8209 18.7295 13.5888 18.7295C13.3566 18.7295 13.1244 18.6412 12.9478 18.4635L10.1265 15.6421C9.77219 15.2878 9.77219 14.7134 10.1265 14.359C10.4808 14.0047 11.0553 14.0047 11.4096 14.359L13.59 16.5395L18.5916 11.5378C18.946 11.1835 19.5192 11.1834 19.8735 11.5365Z" fill="#13D501"/>
</svg>
