<svg width="26" height="26" viewBox="0 0 26 26" fill="none" xmlns="http://www.w3.org/2000/svg">
<rect width="26" height="26" rx="13" fill="#F3F3F3"/>
<path d="M17.875 12.0625H15.625C14.5682 12.0625 13.9375 11.4317 13.9375 10.375V8.125C13.9375 7.06825 14.5682 6.4375 15.625 6.4375H17.875C18.9318 6.4375 19.5625 7.06825 19.5625 8.125V10.375C19.5625 11.4317 18.9318 12.0625 17.875 12.0625ZM15.625 7.5625C15.1833 7.5625 15.0625 7.68325 15.0625 8.125V10.375C15.0625 10.8168 15.1833 10.9375 15.625 10.9375H17.875C18.3167 10.9375 18.4375 10.8168 18.4375 10.375V8.125C18.4375 7.68325 18.3167 7.5625 17.875 7.5625H15.625ZM10.375 12.0625H8.125C7.06825 12.0625 6.4375 11.4317 6.4375 10.375V8.125C6.4375 7.06825 7.06825 6.4375 8.125 6.4375H10.375C11.4317 6.4375 12.0625 7.06825 12.0625 8.125V10.375C12.0625 11.4317 11.4317 12.0625 10.375 12.0625ZM8.125 7.5625C7.68325 7.5625 7.5625 7.68325 7.5625 8.125V10.375C7.5625 10.8168 7.68325 10.9375 8.125 10.9375H10.375C10.8168 10.9375 10.9375 10.8168 10.9375 10.375V8.125C10.9375 7.68325 10.8168 7.5625 10.375 7.5625H8.125ZM17.875 19.5625H15.625C14.5682 19.5625 13.9375 18.9318 13.9375 17.875V15.625C13.9375 14.5682 14.5682 13.9375 15.625 13.9375H17.875C18.9318 13.9375 19.5625 14.5682 19.5625 15.625V17.875C19.5625 18.9318 18.9318 19.5625 17.875 19.5625ZM15.625 15.0625C15.1833 15.0625 15.0625 15.1833 15.0625 15.625V17.875C15.0625 18.3167 15.1833 18.4375 15.625 18.4375H17.875C18.3167 18.4375 18.4375 18.3167 18.4375 17.875V15.625C18.4375 15.1833 18.3167 15.0625 17.875 15.0625H15.625ZM10.375 19.5625H8.125C7.06825 19.5625 6.4375 18.9318 6.4375 17.875V15.625C6.4375 14.5682 7.06825 13.9375 8.125 13.9375H10.375C11.4317 13.9375 12.0625 14.5682 12.0625 15.625V17.875C12.0625 18.9318 11.4317 19.5625 10.375 19.5625ZM8.125 15.0625C7.68325 15.0625 7.5625 15.1833 7.5625 15.625V17.875C7.5625 18.3167 7.68325 18.4375 8.125 18.4375H10.375C10.8168 18.4375 10.9375 18.3167 10.9375 17.875V15.625C10.9375 15.1833 10.8168 15.0625 10.375 15.0625H8.125Z" fill="#121212"/>
</svg>
