<svg width="22" height="22" viewBox="0 0 22 22" fill="none" xmlns="http://www.w3.org/2000/svg">
<path d="M17.6857 9.71429H14.6C13.1507 9.71429 12.2857 8.84926 12.2857 7.4V4.31429C12.2857 2.86503 13.1507 2 14.6 2H17.6857C19.135 2 20 2.86503 20 4.31429V7.4C20 8.84926 19.135 9.71429 17.6857 9.71429ZM14.6 3.54286C13.9942 3.54286 13.8286 3.70846 13.8286 4.31429V7.4C13.8286 8.00583 13.9942 8.17143 14.6 8.17143H17.6857C18.2915 8.17143 18.4571 8.00583 18.4571 7.4V4.31429C18.4571 3.70846 18.2915 3.54286 17.6857 3.54286H14.6ZM7.4 9.71429H4.31429C2.86503 9.71429 2 8.84926 2 7.4V4.31429C2 2.86503 2.86503 2 4.31429 2H7.4C8.84926 2 9.71429 2.86503 9.71429 4.31429V7.4C9.71429 8.84926 8.84926 9.71429 7.4 9.71429ZM4.31429 3.54286C3.70846 3.54286 3.54286 3.70846 3.54286 4.31429V7.4C3.54286 8.00583 3.70846 8.17143 4.31429 8.17143H7.4C8.00583 8.17143 8.17143 8.00583 8.17143 7.4V4.31429C8.17143 3.70846 8.00583 3.54286 7.4 3.54286H4.31429ZM17.6857 20H14.6C13.1507 20 12.2857 19.135 12.2857 17.6857V14.6C12.2857 13.1507 13.1507 12.2857 14.6 12.2857H17.6857C19.135 12.2857 20 13.1507 20 14.6V17.6857C20 19.135 19.135 20 17.6857 20ZM14.6 13.8286C13.9942 13.8286 13.8286 13.9942 13.8286 14.6V17.6857C13.8286 18.2915 13.9942 18.4571 14.6 18.4571H17.6857C18.2915 18.4571 18.4571 18.2915 18.4571 17.6857V14.6C18.4571 13.9942 18.2915 13.8286 17.6857 13.8286H14.6ZM7.4 20H4.31429C2.86503 20 2 19.135 2 17.6857V14.6C2 13.1507 2.86503 12.2857 4.31429 12.2857H7.4C8.84926 12.2857 9.71429 13.1507 9.71429 14.6V17.6857C9.71429 19.135 8.84926 20 7.4 20ZM4.31429 13.8286C3.70846 13.8286 3.54286 13.9942 3.54286 14.6V17.6857C3.54286 18.2915 3.70846 18.4571 4.31429 18.4571H7.4C8.00583 18.4571 8.17143 18.2915 8.17143 17.6857V14.6C8.17143 13.9942 8.00583 13.8286 7.4 13.8286H4.31429Z" fill="#2196F3"/>
</svg>
