<svg width="36" height="36" viewBox="0 0 36 36" fill="none" xmlns="http://www.w3.org/2000/svg">
<g clip-path="url(#clip0_263_1165)">
<path d="M18.5625 11.25H25.3125C25.3125 10.6312 25.8188 10.125 26.4375 10.125V5.625C25.8188 5.625 25.3125 5.11875 25.3125 4.5H18.5625H13.8375C14.0963 4.185 14.1694 3.75187 14.04 3.375H14.0344C13.9613 3.16125 13.8206 2.96438 13.6125 2.8125H27.5625C27.8719 2.8125 28.125 3.06562 28.125 3.375V12.375C28.125 12.6844 27.8719 12.9375 27.5625 12.9375H9.5625C9.25312 12.9375 9 12.6844 9 12.375V11.8125V4.19062C9 3.79687 9.39375 3.52125 9.75938 3.66188L11.8125 4.545C11.79 5.14125 11.2894 5.625 10.6875 5.625V10.125C11.3063 10.125 11.8125 10.6312 11.8125 11.25H18.5625Z" fill="#ACDB52"/>
<path d="M18.5625 11.25H11.8125C11.8125 10.6312 11.3063 10.125 10.6875 10.125V5.625C11.2894 5.625 11.79 5.14125 11.8125 4.545L12.4144 4.80375C12.5775 4.8825 12.7575 4.9275 12.9375 4.9275C13.1175 4.9275 13.2975 4.8825 13.4606 4.80375C13.6125 4.725 13.7419 4.62375 13.8375 4.5H18.5625C16.7006 4.5 15.1875 6.01313 15.1875 7.875C15.1875 9.73688 16.7006 11.25 18.5625 11.25Z" fill="#7AA822"/>
<path d="M13.6125 2.81256C13.8206 2.96444 13.9613 3.16131 14.0344 3.37506H14.04C14.1694 3.75194 14.0963 4.18506 13.8375 4.50006C13.7419 4.62381 13.6125 4.72506 13.4606 4.80381C13.2975 4.88256 13.1175 4.92756 12.9375 4.92756C12.7575 4.92756 12.5775 4.88256 12.4144 4.80381L11.8125 4.54506L9.75938 3.66194C9.39375 3.52131 9 3.79694 9 4.19069V11.8126H7.2225C6.54187 11.8126 5.86688 11.6888 5.23125 11.4526L2.62687 10.4794C2.0025 10.2432 1.33875 10.1251 0.669375 10.1251H0.5625V3.93756H1.32187C1.92937 3.93756 2.53688 3.79694 3.0825 3.52131L6.21563 1.95756L8.54437 0.843812C9.48938 0.343187 10.6481 0.500687 11.4244 1.23756L13.6125 2.81256Z" fill="#FFD5C2"/>
<path d="M13.8375 4.5001C13.7419 4.62385 13.6125 4.7251 13.4606 4.80385C13.2975 4.8826 13.1175 4.9276 12.9375 4.9276C12.7575 4.9276 12.5775 4.8826 12.4144 4.80385L11.8125 4.5451L9.75938 3.66197C9.39375 3.52135 9 3.79697 9 4.19072V3.06572C9 2.67197 9.39375 2.39635 9.75938 2.53697L11.8125 3.4201L12.4144 3.67885C12.5775 3.7576 12.7575 3.8026 12.9375 3.8026C13.1175 3.8026 13.2975 3.7576 13.4606 3.67885C13.6125 3.6001 13.7419 3.49885 13.8375 3.3751C13.8825 3.31885 13.9219 3.25697 13.9556 3.1951C13.9894 3.25135 14.0119 3.31322 14.0344 3.3751H14.04C14.1694 3.75197 14.0963 4.1851 13.8375 4.5001ZM9 10.6876V11.8126H7.2225C6.54187 11.8126 5.86688 11.6888 5.23125 11.4526L2.62687 10.4795C2.0025 10.2432 1.33875 10.1251 0.669375 10.1251H0.5625V9.0001H0.669375C1.33875 9.0001 2.0025 9.11822 2.62687 9.35447L5.23125 10.3276C5.86688 10.5638 6.54187 10.6876 7.2225 10.6876H9Z" fill="#FCAD95"/>
<path d="M22.5 30.9375H19.6875C19.3781 30.9375 19.0969 30.8138 18.8944 30.6056C18.6863 30.4031 18.5625 30.1219 18.5625 29.8125C18.5625 29.1938 19.0688 28.6875 19.6875 28.6875H18.5625C18.2531 28.6875 17.9719 28.5638 17.7694 28.3556C17.5613 28.1531 17.4375 27.8719 17.4375 27.5625C17.4375 26.9438 17.9437 26.4375 18.5625 26.4375H20.8125C20.5031 26.4375 20.2219 26.3138 20.0194 26.1056C19.8112 25.9031 19.6875 25.6219 19.6875 25.3125C19.6875 24.6938 20.1937 24.1875 20.8125 24.1875H28.6875L27.7312 22.59C27.5569 22.3031 27.4725 21.9769 27.4725 21.6563C27.4725 21.1894 27.6525 20.7225 28.0012 20.3738C28.3725 20.0025 28.9856 20.0138 29.3344 20.4075L32.625 24.0638L33.4125 24.9413C33.6263 25.1775 33.93 25.3125 34.2506 25.3125H35.4375V31.5H33.2381C33.03 31.5 32.8275 31.5169 32.625 31.5563C32.4281 31.59 32.2369 31.6463 32.0512 31.7138L28.6988 32.9738C28.3219 33.1144 27.9169 33.1875 27.5119 33.1875H22.5C22.1906 33.1875 21.9094 33.0638 21.7069 32.8556C21.4988 32.6531 21.375 32.3719 21.375 32.0625C21.375 31.4438 21.8812 30.9375 22.5 30.9375Z" fill="#FFD5C2"/>
<path d="M35.4375 30.3751V31.5001H33.2381C32.8331 31.5001 32.4281 31.5732 32.0512 31.7138L30.9375 32.1301L28.6988 32.9738C28.3219 33.1145 27.9169 33.1876 27.5119 33.1876H22.5C22.1906 33.1876 21.9094 33.0638 21.7069 32.8557C21.4988 32.6532 21.375 32.372 21.375 32.0626C21.375 31.8601 21.4313 31.6632 21.5269 31.5001C21.5775 31.5845 21.6337 31.6632 21.7069 31.7307C21.9094 31.9388 22.1906 32.0626 22.5 32.0626H27.5119C27.9169 32.0626 28.3219 31.9895 28.6988 31.8488L30.9375 31.0051L32.0512 30.5888C32.4281 30.4482 32.8331 30.3751 33.2381 30.3751H35.4375ZM26.4375 30.3751C26.4375 30.6856 26.1855 30.9376 25.875 30.9376H19.6875C19.3781 30.9376 19.0969 30.8138 18.8944 30.6057C18.6863 30.4032 18.5625 30.122 18.5625 29.8126H25.875C26.1855 29.8126 26.4375 30.0646 26.4375 30.3751ZM26.4375 28.1251C26.4375 28.4356 26.1855 28.6876 25.875 28.6876H18.5625C18.2531 28.6876 17.9719 28.5638 17.7694 28.3557C17.6906 28.2826 17.6287 28.1982 17.5781 28.1026C17.4881 27.9451 17.4375 27.7595 17.4375 27.5626H25.875C26.1855 27.5626 26.4375 27.8146 26.4375 28.1251ZM26.4375 25.8751C26.4375 26.1856 26.1855 26.4376 25.875 26.4376H20.8125C20.5031 26.4376 20.2219 26.3138 20.0194 26.1057C19.8112 25.9032 19.6875 25.622 19.6875 25.3126H25.875C26.1855 25.3126 26.4375 25.5646 26.4375 25.8751ZM28.6875 24.1876L27.7312 22.5901C27.5569 22.3032 27.4725 21.977 27.4725 21.6563C27.4725 21.5607 27.4781 21.4707 27.495 21.3751C27.5288 21.1613 27.5963 20.9532 27.7144 20.762L29.2157 23.1149C29.5194 23.5913 29.3777 24.2241 28.899 24.5251" fill="#FCAD95"/>
<path d="M18.5625 11.25C20.4265 11.25 21.9375 9.73896 21.9375 7.875C21.9375 6.01104 20.4265 4.5 18.5625 4.5C16.6985 4.5 15.1875 6.01104 15.1875 7.875C15.1875 9.73896 16.6985 11.25 18.5625 11.25Z" fill="#ACDB52"/>
<path d="M21.9374 7.87502C21.9374 9.73689 20.4243 11.25 18.5624 11.25C17.7918 11.25 17.083 10.9969 16.5205 10.5581C16.813 10.6425 17.1168 10.6875 17.4374 10.6875C19.2993 10.6875 20.8124 9.17439 20.8124 7.31252C20.8124 6.21564 20.2893 5.24252 19.4793 4.62939C20.8968 5.02314 21.9374 6.32814 21.9374 7.87502Z" fill="#8AC926"/>
<path d="M28.125 3.375V12.375C28.125 12.6844 27.8719 12.9375 27.5625 12.9375H9.5625C9.25312 12.9375 9 12.6844 9 12.375V11.8125H25.3125C26.2406 11.8125 27 11.0531 27 10.125V2.8125H27.5625C27.8719 2.8125 28.125 3.06562 28.125 3.375Z" fill="#8AC926"/>
<path d="M18.5625 11.25H11.8125C11.8125 10.6312 11.3063 10.125 10.6875 10.125H16.0538C16.6669 10.8169 17.5669 11.25 18.5625 11.25Z" fill="#607F0A"/>
<path d="M26.4375 5.625V10.125C25.8187 10.125 25.3125 10.6312 25.3125 11.25H18.5625C20.4244 11.25 21.9375 9.73688 21.9375 7.875C21.9375 6.01313 20.4244 4.5 18.5625 4.5H25.3125C25.3125 5.11875 25.8187 5.625 26.4375 5.625Z" fill="#7AA822"/>
<path d="M26.4375 5.625V10.125C25.8187 10.125 25.3125 10.6312 25.3125 11.25H18.5625C19.5581 11.25 20.4581 10.8169 21.0712 10.125H24.1875C24.1875 9.50625 24.6937 9 25.3125 9V4.5C25.3125 5.11875 25.8187 5.625 26.4375 5.625Z" fill="#607F0A"/>
<path d="M34.8131 23.0626H35.4375V25.3126H34.2506C33.93 25.3126 33.6263 25.1776 33.4125 24.9413L32.625 24.0638V21.1895L33.975 22.6913C34.1888 22.9276 34.4925 23.0626 34.8131 23.0626Z" fill="#F9B9A5"/>
<path d="M35.4375 24.1875V25.3125H34.2506C33.93 25.3125 33.6263 25.1775 33.4125 24.9412L32.625 24.0637V22.9387L33.4125 23.8162C33.6263 24.0525 33.93 24.1875 34.2506 24.1875H35.4375Z" fill="#FFA180"/>
<path d="M27 19.6875C27.3094 19.6875 27.5625 19.4344 27.5625 19.125C27.5625 17.8819 26.5556 16.875 25.3125 16.875H23.0625C22.4437 16.875 21.8812 17.1281 21.4706 17.5331C21.0656 17.9438 20.8125 18.5062 20.8125 19.125C20.8125 19.4344 21.0656 19.6875 21.375 19.6875H27ZM28.0012 20.3738C27.6525 20.7225 27.4725 21.1894 27.4725 21.6562C27.4725 21.9769 27.5569 22.3031 27.7312 22.59L28.6875 24.1875H20.8125C20.1937 24.1875 19.6875 24.6938 19.6875 25.3125C19.6875 25.6219 19.8113 25.9031 20.0194 26.1056C20.2219 26.3138 20.5031 26.4375 20.8125 26.4375H18.5625C17.9437 26.4375 17.4375 26.9438 17.4375 27.5625C17.4375 27.8719 17.5612 28.1531 17.7694 28.3556C17.9719 28.5638 18.2531 28.6875 18.5625 28.6875H19.6875C19.0687 28.6875 18.5625 29.1938 18.5625 29.8125C18.5625 30.1219 18.6862 30.4031 18.8944 30.6056C19.0969 30.8138 19.3781 30.9375 19.6875 30.9375H22.5C21.8812 30.9375 21.375 31.4438 21.375 32.0625C21.375 32.3719 21.4988 32.6531 21.7069 32.8556C21.9094 33.0637 22.1906 33.1875 22.5 33.1875H27.5119C27.9169 33.1875 28.3219 33.1144 28.6988 32.9737L32.0513 31.7138C32.2369 31.6462 32.4281 31.59 32.625 31.5562V35.4375H15.1875V19.9406C15.1875 19.7775 15.255 19.6256 15.3731 19.5188L20.0813 15.3169C20.1881 15.2381 20.3569 15.1875 20.5312 15.1875H27.8212C28.0125 15.1875 28.1869 15.2438 28.2937 15.3338L32.4619 19.5244C32.5688 19.6256 32.625 19.7719 32.625 19.9181V21.7519V24.0637L29.3344 20.4075C28.9856 20.0137 28.3725 20.0025 28.0012 20.3738Z" fill="#E89A10"/>
<path d="M29.2669 16.3125H21.0938C20.9194 16.3125 20.7506 16.3631 20.6438 16.4419L15.1875 21.4256V19.9406C15.1875 19.7775 15.255 19.6256 15.3731 19.5188L20.0813 15.3169C20.1881 15.2381 20.3569 15.1875 20.5312 15.1875H27.8212C28.0125 15.1875 28.1869 15.2438 28.2937 15.3338L29.2669 16.3125Z" fill="#EFAB48"/>
<path d="M32.625 19.9181V24.0638L30.9375 22.1906V17.9944L32.4619 19.5244C32.5688 19.6256 32.625 19.7719 32.625 19.9181ZM32.625 31.5563V35.4375H15.1875V33.75H30.0938C30.5595 33.75 30.9375 33.372 30.9375 32.9063V32.13L32.0513 31.7138C32.2369 31.6463 32.4281 31.59 32.625 31.5563Z" fill="#C97700"/>
</g>
<defs>
<clipPath id="clip0_263_1165">
<rect width="36" height="36" fill="white"/>
</clipPath>
</defs>
</svg>
