<svg width="26" height="26" viewBox="0 0 26 26" fill="none" xmlns="http://www.w3.org/2000/svg">
<g clip-path="url(#clip0_2188_1408)">
<path d="M13 26C20.1797 26 26 20.1797 26 13C26 5.8203 20.1797 0 13 0C5.8203 0 0 5.8203 0 13C0 20.1797 5.8203 26 13 26Z" fill="#F3F3F3"/>
<path d="M7.57127 19.4998C7.4746 19.4998 7.38072 19.4984 7.28872 19.4951C6.95538 19.4871 6.6633 19.2738 6.5493 18.9518C6.43463 18.6278 6.52937 18.2752 6.78937 18.0539C7.4107 17.5525 7.65926 16.9979 7.75926 16.6172C6.93459 15.6312 6.49933 14.3865 6.49933 13.0005C6.49933 9.56515 9.17266 7.1665 12.9993 7.1665C16.826 7.1665 19.4993 9.56582 19.4993 13.0005C19.4993 16.4352 16.826 18.8345 12.9993 18.8345C12.208 18.8345 11.4493 18.7271 10.7366 18.5151C9.82797 19.3065 8.57594 19.4998 7.57127 19.4998ZM7.31866 18.4951C7.32 18.4951 7.32124 18.4951 7.32257 18.4951C7.32057 18.4958 7.31933 18.4958 7.31866 18.4951ZM13 8.1665C9.76198 8.1665 7.49998 10.1545 7.49998 13.0005C7.49998 14.2245 7.9033 15.3084 8.6673 16.1351C8.77063 16.2471 8.81793 16.4004 8.79393 16.5518C8.68193 17.2658 8.33005 17.9411 7.78872 18.4951C8.56205 18.4671 9.602 18.2891 10.242 17.6064C10.376 17.4624 10.584 17.4112 10.77 17.4759C11.46 17.7146 12.21 17.8351 13 17.8351C16.238 17.8351 18.5 15.8471 18.5 13.0011C18.5 10.1551 16.238 8.1665 13 8.1665ZM13.68 14.9998C13.68 14.6318 13.382 14.3332 13.0133 14.3332H13.0067C12.6387 14.3332 12.3432 14.6318 12.3432 14.9998C12.3432 15.3678 12.6453 15.6665 13.0133 15.6665C13.3813 15.6665 13.68 15.3678 13.68 14.9998ZM13.5 12.9998V10.9998C13.5 10.7238 13.276 10.4998 13 10.4998C12.724 10.4998 12.5 10.7238 12.5 10.9998V12.9998C12.5 13.2758 12.724 13.4998 13 13.4998C13.276 13.4998 13.5 13.2758 13.5 12.9998Z" fill="#121212"/>
</g>
<defs>
<clipPath id="clip0_2188_1408">
<rect width="26" height="26" fill="white"/>
</clipPath>
</defs>
</svg>
