<svg width="26" height="26" viewBox="0 0 26 26" fill="none" xmlns="http://www.w3.org/2000/svg">
<g clip-path="url(#clip0_2466_1413)">
<mask id="mask0_2466_1413" style="mask-type:luminance" maskUnits="userSpaceOnUse" x="0" y="0" width="26" height="26">
<path d="M26 0H0V26H26V0Z" fill="white"/>
</mask>
<g mask="url(#mask0_2466_1413)">
<path d="M13 26C20.1797 26 26 20.1797 26 13C26 5.8203 20.1797 0 13 0C5.8203 0 0 5.8203 0 13C0 20.1797 5.8203 26 13 26Z" fill="#F3F3F3"/>
<path d="M11.6727 12.1667C13.2354 12.1667 14.506 10.8953 14.506 9.33333C14.506 7.77133 13.2354 6.5 11.6727 6.5C10.11 6.5 8.83936 7.77133 8.83936 9.33333C8.83936 10.8953 10.11 12.1667 11.6727 12.1667ZM11.6727 7.5C12.684 7.5 13.506 8.322 13.506 9.33333C13.506 10.3447 12.684 11.1667 11.6727 11.1667C10.6614 11.1667 9.83936 10.3447 9.83936 9.33333C9.83936 8.322 10.6614 7.5 11.6727 7.5ZM13 13.1667H10.3333C7.504 13.1667 6.5 15.238 6.5 17.0127C6.5 18.6167 7.3887 19.5 9.00203 19.5H14.3313C15.9446 19.5 16.8333 18.6167 16.8333 17.0127C16.8333 15.238 15.8293 13.1667 13 13.1667ZM14.3313 18.5H9.00203C7.94937 18.5 7.5 18.0554 7.5 17.0127C7.5 16.3454 7.70467 14.1667 10.3333 14.1667H13C15.6287 14.1667 15.8333 16.3447 15.8333 17.0127C15.8333 18.0554 15.384 18.5 14.3313 18.5ZM19.3534 12.6654C19.5487 12.8607 19.5487 13.1773 19.3534 13.3726C19.256 13.47 19.128 13.5194 19 13.5194C18.872 13.5194 18.744 13.4706 18.6466 13.3726L17.6667 12.3927L16.6867 13.3726C16.5894 13.47 16.4613 13.5194 16.3333 13.5194C16.2053 13.5194 16.0773 13.4706 15.98 13.3726C15.7846 13.1773 15.7846 12.8607 15.98 12.6654L16.96 11.6853L15.98 10.7053C15.7846 10.51 15.7846 10.1933 15.98 9.99797C16.1753 9.80263 16.492 9.80263 16.6873 9.99797L17.6673 10.978L18.6473 9.99797C18.8426 9.80263 19.1593 9.80263 19.3547 9.99797C19.55 10.1933 19.55 10.51 19.3547 10.7053L18.3747 11.6853L19.3534 12.6654Z" fill="#121212"/>
</g>
</g>
<defs>
<clipPath id="clip0_2466_1413">
<rect width="26" height="26" fill="white"/>
</clipPath>
</defs>
</svg>
