<svg width="26" height="26" viewBox="0 0 26 26" fill="none" xmlns="http://www.w3.org/2000/svg">
<rect width="26" height="26" rx="13" fill="#F3F3F3"/>
<path d="M18.6597 12.024L17.6616 11.0246C17.6583 11.0213 17.6576 11.0167 17.6543 11.0133C17.651 11.01 17.6463 11.0093 17.643 11.006L13.8604 7.21931C13.4044 6.76264 12.7723 6.50064 12.1263 6.50064H8.30168C7.30901 6.50064 6.50098 7.30931 6.50098 8.30264V12.1313C6.50098 12.7867 6.75633 13.4027 7.21899 13.866L11.003 17.654C11.005 17.656 11.0056 17.6587 11.0076 17.6607C11.0096 17.6627 11.0123 17.6633 11.0143 17.6653L12.0197 18.6713C12.569 19.2213 13.1523 19.5006 13.7537 19.5006C14.3543 19.5006 14.9376 19.2213 15.487 18.6713L18.6616 15.494C19.7776 14.3747 19.7777 13.1427 18.6597 12.024ZM7.50033 12.1306V8.30199C7.50033 7.85933 7.85969 7.49999 8.30103 7.49999H12.1257C12.5077 7.49999 12.8823 7.65532 13.1523 7.92532L16.5916 11.368L11.3617 16.598L7.92562 13.158C7.65495 12.888 7.50033 12.5133 7.50033 12.1306ZM17.953 14.7867L14.7783 17.964C14.0677 18.6753 13.4363 18.6753 12.7257 17.964L12.0684 17.306L17.2983 12.076L17.9523 12.7307C18.6816 13.4607 18.6816 14.056 17.953 14.7867ZM10.3337 9.66666C10.3337 10.0347 10.0363 10.3333 9.66829 10.3333C9.30163 10.3333 9.00033 10.0347 9.00033 9.66666C9.00033 9.29866 9.29502 8.99999 9.66235 8.99999H9.66903C10.0364 8.99999 10.3337 9.29866 10.3337 9.66666Z" fill="black"/>
</svg>
