<svg width="18" height="18" viewBox="0 0 18 18" fill="none" xmlns="http://www.w3.org/2000/svg">
<path d="M15.75 3.9375H13.0807C12.405 3.9375 12.3765 3.852 12.1913 3.297L12.0397 2.84175C11.8095 2.15175 11.1668 1.6875 10.4393 1.6875H7.56075C6.83325 1.6875 6.18975 2.151 5.96025 2.84175L5.80875 3.297C5.6235 3.85275 5.595 3.9375 4.91925 3.9375H2.25C1.9395 3.9375 1.6875 4.1895 1.6875 4.5C1.6875 4.8105 1.9395 5.0625 2.25 5.0625H3.2235L3.79875 13.6867C3.90975 15.3555 4.93275 16.3125 6.60526 16.3125H11.3955C13.0673 16.3125 14.0903 15.3555 14.202 13.6867L14.7773 5.0625H15.75C16.0605 5.0625 16.3125 4.8105 16.3125 4.5C16.3125 4.1895 16.0605 3.9375 15.75 3.9375ZM7.0275 3.19725C7.10475 2.967 7.3185 2.8125 7.56075 2.8125H10.4393C10.6815 2.8125 10.896 2.967 10.9725 3.19725L11.124 3.6525C11.157 3.75075 11.19 3.846 11.226 3.9375H6.7725C6.8085 3.84525 6.84226 3.75 6.87526 3.6525L7.0275 3.19725ZM13.0785 13.6118C13.0073 14.6865 12.4717 15.1875 11.3947 15.1875H6.6045C5.5275 15.1875 4.99275 14.6873 4.92075 13.6118L4.35075 5.0625H4.9185C5.01225 5.0625 5.09025 5.05275 5.17425 5.04675C5.19975 5.0505 5.223 5.0625 5.24925 5.0625H12.7492C12.7762 5.0625 12.7987 5.0505 12.8242 5.04675C12.9082 5.05275 12.9863 5.0625 13.08 5.0625H13.6478L13.0785 13.6118ZM11.0625 8.25V12C11.0625 12.3105 10.8105 12.5625 10.5 12.5625C10.1895 12.5625 9.9375 12.3105 9.9375 12V8.25C9.9375 7.9395 10.1895 7.6875 10.5 7.6875C10.8105 7.6875 11.0625 7.9395 11.0625 8.25ZM8.0625 8.25V12C8.0625 12.3105 7.8105 12.5625 7.5 12.5625C7.1895 12.5625 6.9375 12.3105 6.9375 12V8.25C6.9375 7.9395 7.1895 7.6875 7.5 7.6875C7.8105 7.6875 8.0625 7.9395 8.0625 8.25Z" fill="#ED1C24"/>
</svg>
