<svg width="19" height="19" viewBox="0 0 19 19" fill="none" xmlns="http://www.w3.org/2000/svg">
<path d="M10.8854 9.5C10.8854 9.82775 10.6194 10.0938 10.2917 10.0938H5.54167C5.21392 10.0938 4.94792 9.82775 4.94792 9.5C4.94792 9.17225 5.21392 8.90625 5.54167 8.90625H10.2917C10.6194 8.90625 10.8854 9.17225 10.8854 9.5ZM5.54167 6.92708H7.91667C8.24442 6.92708 8.51042 6.66108 8.51042 6.33333C8.51042 6.00558 8.24442 5.73958 7.91667 5.73958H5.54167C5.21392 5.73958 4.94792 6.00558 4.94792 6.33333C4.94792 6.66108 5.21392 6.92708 5.54167 6.92708ZM10.2917 12.0729H5.54167C5.21392 12.0729 4.94792 12.3389 4.94792 12.6667C4.94792 12.9944 5.21392 13.2604 5.54167 13.2604H10.2917C10.6194 13.2604 10.8854 12.9944 10.8854 12.6667C10.8854 12.3389 10.6194 12.0729 10.2917 12.0729ZM17.2188 9.10417V15.0417C17.2188 16.2426 16.2426 17.2188 15.0417 17.2188H4.75C2.83575 17.2188 1.78125 16.1643 1.78125 14.25V4.75C1.78125 2.83575 2.83575 1.78125 4.75 1.78125H11.0833C12.9976 1.78125 14.0521 2.83575 14.0521 4.75V7.32292H15.4375C16.4192 7.32292 17.2188 8.12171 17.2188 9.10417ZM13.1029 16.0312C12.9509 15.7344 12.8646 15.3979 12.8646 15.0417V4.75C12.8646 3.50154 12.3318 2.96875 11.0833 2.96875H4.75C3.50154 2.96875 2.96875 3.50154 2.96875 4.75V14.25C2.96875 15.4985 3.50154 16.0312 4.75 16.0312H13.1029ZM16.0312 9.10417C16.0312 8.77642 15.7645 8.51042 15.4375 8.51042H14.0521V15.0417C14.0521 15.5871 14.4962 16.0312 15.0417 16.0312C15.5871 16.0312 16.0312 15.5871 16.0312 15.0417V9.10417Z" fill="#121212"/>
</svg>
