<svg width="40" height="40" viewBox="0 0 40 40" fill="none" xmlns="http://www.w3.org/2000/svg">
<circle cx="20" cy="20" r="20" fill="#F0F0F0"/>
<path d="M9.9165 12.6666V18.1666H15.4165" stroke="#4F8647" stroke-linecap="round" stroke-linejoin="round"/>
<path d="M30.0835 27.3334V21.8334H24.5835" stroke="#4F8647" stroke-linecap="round" stroke-linejoin="round"/>
<path d="M27.7823 17.25C27.3174 15.9362 26.5273 14.7616 25.4857 13.8358C24.444 12.91 23.1848 12.2631 21.8256 11.9556C20.4663 11.6481 19.0513 11.6898 17.7126 12.0771C16.3738 12.4643 15.155 13.1843 14.1698 14.17L9.9165 18.1667M30.0832 21.8334L25.8298 25.83C24.8447 26.8157 23.6258 27.5358 22.2871 27.923C20.9484 28.3102 19.5334 28.352 18.1741 28.0445C16.8148 27.7369 15.5557 27.09 14.514 26.1642C13.4724 25.2384 12.6822 24.0638 12.2173 22.75" stroke="#4F8647" stroke-linecap="round" stroke-linejoin="round"/>
</svg>
