<svg width="19" height="19" viewBox="0 0 19 19" fill="none" xmlns="http://www.w3.org/2000/svg">
<g clip-path="url(#clip0_223_593)">
<path d="M15.8303 1H5.95015C4.03442 1 2.93812 2.00005 2.80651 3.80644C1.00012 3.93712 0 5.03172 0 6.94745V14.0526C0 16.0953 1.12516 17.2195 3.16697 17.2195H13.0526C14.9674 17.2195 16.0628 16.2194 16.1935 14.413C17.9999 14.2814 19 13.185 19 11.2692V4.16975C19 2.1261 17.874 1 15.8303 1ZM14.8293 14.0526C14.8293 15.314 14.314 15.8293 13.0526 15.8293H3.16697C1.90556 15.8293 1.39024 15.314 1.39024 14.0526V6.94745C1.39024 5.68606 1.90556 5.17073 3.16697 5.17073H13.0526C14.314 5.17073 14.8293 5.68606 14.8293 6.94745V14.0526ZM17.6098 11.2692C17.6098 12.3935 17.1982 12.9228 16.2195 13.0266V6.94655C16.2195 4.9038 15.0944 3.77956 13.0526 3.77956H4.192C4.29673 2.7999 4.82595 2.38931 5.94925 2.38931H15.8294C17.0927 2.38931 17.6089 2.90464 17.6089 4.16883V11.2692H17.6098ZM13.4298 7.52675C13.6559 7.83725 13.5873 8.27285 13.2768 8.49805L9.0273 11.5881C8.75295 11.7883 8.43045 11.8875 8.10975 11.8875C7.78905 11.8875 7.46655 11.7883 7.1922 11.5881L2.94273 8.49805C2.63224 8.27285 2.56362 7.83815 2.78976 7.52675C3.01498 7.2181 3.44883 7.14765 3.76117 7.3738L8.01065 10.4639C8.06995 10.5074 8.14955 10.5074 8.20975 10.4639L12.4594 7.3738C12.7709 7.14675 13.2046 7.2172 13.4298 7.52675Z" fill="#4F8647"/>
</g>
<defs>
<clipPath id="clip0_223_593">
<rect width="19" height="16.5" fill="white" transform="translate(0 1)"/>
</clipPath>
</defs>
</svg>
