<svg width="26" height="26" viewBox="0 0 26 26" fill="none" xmlns="http://www.w3.org/2000/svg">
<rect width="26" height="26" rx="13" fill="#F3F3F3"/>
<path d="M7.57096 19.5C7.4743 19.5 7.38041 19.4986 7.28841 19.4953C6.95508 19.4873 6.66299 19.274 6.54899 18.952C6.43432 18.628 6.52906 18.2754 6.78906 18.054C7.4104 17.5527 7.65895 16.998 7.75895 16.6173C6.93429 15.6313 6.49902 14.3866 6.49902 13.0006C6.49902 9.56531 9.17236 7.16666 12.999 7.16666C16.8257 7.16666 19.499 9.56597 19.499 13.0006C19.499 16.4353 16.8257 18.8346 12.999 18.8346C12.2077 18.8346 11.449 18.7273 10.7363 18.5153C9.82766 19.3066 8.57563 19.5 7.57096 19.5ZM7.31836 18.4953C7.31969 18.4953 7.32093 18.4953 7.32227 18.4953C7.32027 18.4959 7.31903 18.4959 7.31836 18.4953ZM12.9997 8.16666C9.76167 8.16666 7.49967 10.1546 7.49967 13.0006C7.49967 14.2246 7.90299 15.3086 8.66699 16.1352C8.77033 16.2472 8.81762 16.4006 8.79362 16.5519C8.68162 17.2659 8.32974 17.9413 7.78841 18.4953C8.56174 18.4673 9.6017 18.2893 10.2417 17.6066C10.3757 17.4626 10.5837 17.4114 10.7697 17.4761C11.4597 17.7147 12.2097 17.8353 12.9997 17.8353C16.2377 17.8353 18.4997 15.8473 18.4997 13.0013C18.4997 10.1553 16.2377 8.16666 12.9997 8.16666ZM13.6797 11C13.6797 10.632 13.3817 10.3333 13.013 10.3333H13.0063C12.6383 10.3333 12.3429 10.632 12.3429 11C12.3429 11.368 12.645 11.6667 13.013 11.6667C13.381 11.6667 13.6797 11.368 13.6797 11ZM13.4997 15V13C13.4997 12.724 13.2757 12.5 12.9997 12.5C12.7237 12.5 12.4997 12.724 12.4997 13V15C12.4997 15.276 12.7237 15.5 12.9997 15.5C13.2757 15.5 13.4997 15.276 13.4997 15Z" fill="black"/>
</svg>
