<svg width="42" height="16" viewBox="0 0 42 16" fill="none" xmlns="http://www.w3.org/2000/svg">
<path d="M9.94736 0.359999C10.97 0.359999 12.036 0.455332 13.1454 0.646C14.272 0.819333 15.3294 1.114 16.3174 1.53C16.4907 1.59933 16.6467 1.686 16.7854 1.79C16.924 1.894 17.0714 1.98933 17.2274 2.076C17.782 2.284 18.2847 2.56133 18.7354 2.908C19.186 3.23733 19.55 3.62733 19.8274 4.078C20.1047 4.51133 20.2434 5.014 20.2434 5.586C20.2434 6.03667 20.1654 6.444 20.0094 6.808C19.8707 7.172 19.628 7.51 19.2814 7.822C18.952 8.11667 18.51 8.394 17.9554 8.654L17.9034 8.394C18.7007 8.706 19.3334 9.13067 19.8014 9.668C20.2867 10.2053 20.5294 10.8813 20.5294 11.696C20.5294 12.3893 20.3474 13.0307 19.9834 13.62C19.6194 14.2093 19.0127 14.686 18.1634 15.05C17.3314 15.414 16.196 15.596 14.7574 15.596C13.1454 15.596 11.8367 15.31 10.8314 14.738C9.84336 14.1487 9.11536 13.3687 8.64736 12.398C8.19669 11.41 7.97136 10.3093 7.97136 9.096C7.97136 8.108 8.12736 7.16333 8.43936 6.262C8.76869 5.36067 9.28003 4.52867 9.97336 3.766C10.6667 2.986 11.5767 2.30133 12.7034 1.712C12.8074 1.66 12.9027 1.608 12.9894 1.556C13.0934 1.48667 13.206 1.43467 13.3274 1.4C14.038 1.07067 14.844 0.819333 15.7454 0.646C16.664 0.455332 17.626 0.359999 18.6314 0.359999C19.8274 0.359999 20.8414 0.472666 21.6734 0.697999C22.5054 0.923333 23.2247 1.23533 23.8314 1.634C24.438 2.01533 24.9927 2.466 25.4954 2.986L27.0814 9.564V15.284H23.2334V8.784C23.2334 7.46667 23.1294 6.444 22.9214 5.716C22.7307 4.97067 22.3407 4.364 21.7514 3.896C21.3527 3.584 20.902 3.35867 20.3994 3.22C19.8967 3.064 19.29 2.986 18.5794 2.986C18.042 2.986 17.5307 3.02067 17.0454 3.09C16.56 3.15933 16.144 3.23733 15.7974 3.324C15.0174 3.532 14.35 3.85267 13.7954 4.286C13.258 4.702 12.8247 5.18733 12.4954 5.742C12.166 6.27933 11.9234 6.834 11.7674 7.406C11.6287 7.978 11.5594 8.524 11.5594 9.044C11.5594 10.4307 11.8194 11.4273 12.3394 12.034C12.8767 12.6233 13.6394 12.918 14.6274 12.918C15.3727 12.918 15.9274 12.7967 16.2914 12.554C16.6554 12.294 16.8374 11.9213 16.8374 11.436C16.8374 10.9853 16.638 10.63 16.2394 10.37C15.8407 10.11 15.234 9.98 14.4194 9.98H13.7174V7.276H14.2114C15.078 7.276 15.6847 7.12867 16.0314 6.834C16.378 6.522 16.5514 6.12333 16.5514 5.638C16.5514 5.13533 16.3174 4.676 15.8494 4.26C15.3814 3.844 14.532 3.52333 13.3014 3.298C12.8854 3.21133 12.4087 3.142 11.8714 3.09C11.3514 3.02067 10.788 2.986 10.1814 2.986C8.82936 2.986 7.72003 3.20267 6.85336 3.636C5.98669 4.052 5.34536 4.64133 4.92936 5.404C4.51336 6.14933 4.30536 7.00733 4.30536 7.978C4.30536 8.77533 4.40069 9.49467 4.59136 10.136C4.79936 10.7773 5.09403 11.3753 5.47536 11.93C5.87403 12.4847 6.36803 13.048 6.95736 13.62L4.40936 15.596C3.62936 14.9547 2.93603 14.2787 2.32936 13.568C1.74003 12.84 1.27203 12.0253 0.925359 11.124C0.578693 10.2053 0.405359 9.15667 0.405359 7.978C0.405359 7.042 0.570026 6.12333 0.899359 5.222C1.22869 4.32067 1.75736 3.506 2.48536 2.778C3.21336 2.03267 4.19269 1.44333 5.42336 1.01C6.65403 0.576666 8.16203 0.359999 9.94736 0.359999ZM35.2974 15.596C33.9454 15.596 32.8534 15.336 32.0214 14.816C31.1894 14.296 30.574 13.6113 30.1754 12.762C29.794 11.8953 29.6034 10.9507 29.6034 9.928C29.6034 8.35067 30.0454 7.07667 30.9294 6.106C31.8134 5.118 33.096 4.624 34.7774 4.624C35.8174 4.624 36.7274 4.884 37.5074 5.404C38.3047 5.924 38.9374 6.59133 39.4054 7.406C39.8907 8.22067 40.1594 9.07867 40.2114 9.98L38.7814 9.902C38.6774 9.46867 38.4867 9.05267 38.2094 8.654C37.932 8.238 37.5854 7.9 37.1694 7.64C36.7534 7.36267 36.268 7.224 35.7134 7.224C34.864 7.224 34.2487 7.47533 33.8674 7.978C33.5034 8.48067 33.3214 9.16533 33.3214 10.032C33.3214 10.5867 33.3907 11.0807 33.5294 11.514C33.6854 11.9473 33.9194 12.2853 34.2314 12.528C34.5607 12.7533 34.9767 12.866 35.4794 12.866C35.982 12.866 36.4067 12.736 36.7534 12.476C37.1174 12.1987 37.3947 11.7827 37.5854 11.228C37.776 10.6733 37.8714 9.954 37.8714 9.07C37.8714 8.82733 37.854 8.55 37.8194 8.238C37.802 7.90867 37.7674 7.59667 37.7154 7.302C37.698 7.21533 37.7067 7.12867 37.7414 7.042C37.776 6.938 37.776 6.85133 37.7414 6.782C37.6374 6.14067 37.3514 5.55133 36.8834 5.014C36.4327 4.45933 35.8 4.00867 34.9854 3.662C34.1707 3.31533 33.1567 3.142 31.9434 3.142C31.1807 3.142 30.548 3.20267 30.0454 3.324C29.5427 3.44533 29.066 3.67933 28.6154 4.026C28.3034 4.26867 28.026 4.58067 27.7834 4.962C27.558 5.326 27.3847 5.82 27.2634 6.444C27.142 7.068 27.0814 7.9 27.0814 8.94V9.798L24.8194 3.038C25.322 2.55267 25.8854 2.11067 26.5094 1.712C27.1507 1.296 27.9134 0.966665 28.7974 0.723999C29.6987 0.481332 30.7994 0.359999 32.0994 0.359999C33.642 0.359999 35.0027 0.585332 36.1814 1.036C37.3774 1.48667 38.374 2.11933 39.1714 2.934C39.986 3.73133 40.5927 4.65867 40.9914 5.716C41.4074 6.77333 41.6154 7.90867 41.6154 9.122C41.6154 10.6127 41.3554 11.8347 40.8354 12.788C40.3327 13.7413 39.6047 14.452 38.6514 14.92C37.7154 15.3707 36.5974 15.596 35.2974 15.596Z" fill="#6D6D6D"/>
</svg>
