<svg width="30" height="19" viewBox="0 0 30 19" fill="none" xmlns="http://www.w3.org/2000/svg">
<path d="M9.29556 18.666C7.47556 18.666 5.93289 18.4407 4.66755 17.99C3.40222 17.5393 2.44022 16.9153 1.78155 16.118C1.12289 15.3207 0.793555 14.402 0.793555 13.362C0.793555 12.8593 0.888888 12.3827 1.07955 11.932C1.28755 11.4813 1.62555 11.0913 2.09355 10.762C2.33622 10.5887 2.63089 10.45 2.97755 10.346C3.32422 10.2247 3.74022 10.138 4.22555 10.086C4.72822 10.034 5.33489 10.008 6.04556 10.008H26.1436L26.1176 12.764H6.33155C6.05422 12.764 5.81156 12.7727 5.60355 12.79C5.41289 12.8073 5.25689 12.842 5.13555 12.894C5.01422 12.9287 4.91022 12.9807 4.82355 13.05C4.63289 13.2407 4.53756 13.466 4.53756 13.726C4.53756 14.3673 4.95356 14.8873 5.78555 15.286C6.61756 15.6847 7.93489 15.884 9.73756 15.884H10.0496C11.8002 15.884 13.2822 15.6847 14.4956 15.286C15.7089 14.8873 16.6882 14.3413 17.4336 13.648C18.1962 12.9547 18.7596 12.1833 19.1236 11.334L19.2016 10.606C19.2882 10.2767 19.3402 9.94733 19.3576 9.618C19.3922 9.27133 19.4096 8.95067 19.4096 8.656C19.4096 7.68533 19.2709 6.79267 18.9936 5.978C18.7162 5.146 18.2656 4.45267 17.6416 3.898C17.0349 3.326 16.2289 2.95333 15.2236 2.78C15.0329 2.74533 14.8249 2.728 14.5996 2.728C14.3916 2.71067 14.1922 2.702 14.0016 2.702C13.5162 2.702 13.0656 2.76267 12.6496 2.884C12.2336 2.988 11.8956 3.17867 11.6356 3.456C11.3756 3.73333 11.2456 4.132 11.2456 4.652C11.2456 5.18933 11.3929 5.614 11.6876 5.926C11.9822 6.238 12.3982 6.394 12.9356 6.394C13.3862 6.394 13.7762 6.25533 14.1056 5.978C14.4349 5.68333 14.5996 5.15467 14.5996 4.392C14.5996 3.73333 14.4436 3.13533 14.1316 2.598C13.8369 2.04333 13.4989 1.532 13.1176 1.064L15.8476 0.647999C16.1422 0.908 16.4196 1.22867 16.6796 1.61C16.9569 1.99133 17.1822 2.442 17.3556 2.962C17.5462 3.46467 17.6416 4.06267 17.6416 4.756C17.6416 5.36267 17.5462 5.926 17.3556 6.446C17.1822 6.966 16.8962 7.42533 16.4976 7.824C16.1162 8.22267 15.6136 8.53467 14.9896 8.76C14.3656 8.968 13.6029 9.072 12.7016 9.072C11.8176 9.072 10.9942 8.916 10.2316 8.604C9.48622 8.292 8.87956 7.824 8.41156 7.2C7.96089 6.55867 7.73556 5.76133 7.73556 4.808C7.73556 3.69867 8.01289 2.79733 8.56755 2.104C9.13956 1.41067 9.90222 0.899333 10.8556 0.57C11.8089 0.240667 12.8836 0.076 14.0796 0.076C15.6222 0.076 16.9569 0.31 18.0836 0.777999C19.2102 1.246 20.1462 1.88733 20.8916 2.702C21.6542 3.49933 22.2176 4.40933 22.5816 5.432C22.9456 6.43733 23.1276 7.486 23.1276 8.578C23.1276 8.95933 23.1016 9.332 23.0496 9.696C23.0149 10.0427 22.9629 10.3893 22.8936 10.736V11.672C22.3736 13.128 21.5069 14.376 20.2936 15.416C19.0802 16.456 17.5809 17.2533 15.7956 17.808C14.0102 18.38 11.9996 18.666 9.76355 18.666H9.29556ZM25.9096 19.004V0.387999H29.7836V19.004H25.9096Z" fill="#6D6D6D"/>
</svg>
