<svg width="19" height="19" viewBox="0 0 19 19" fill="none" xmlns="http://www.w3.org/2000/svg">
<path d="M13.9531 1.78125H5.04688C2.94104 1.78125 1.78125 2.94104 1.78125 5.04688V13.9531C1.78125 16.059 2.94104 17.2188 5.04688 17.2188H13.9531C16.059 17.2188 17.2188 16.059 17.2188 13.9531V5.04688C17.2188 2.94104 16.059 1.78125 13.9531 1.78125ZM16.0313 13.9531C16.0313 15.4098 15.4098 16.0313 13.9531 16.0313H5.04688C3.59021 16.0313 2.96875 15.4098 2.96875 13.9531V5.04688C2.96875 3.59021 3.59021 2.96875 5.04688 2.96875H13.9531C15.4098 2.96875 16.0313 3.59021 16.0313 5.04688V13.9531ZM13.2604 7.52083C13.2604 7.84858 12.9944 8.11458 12.6667 8.11458H8.70833C8.38058 8.11458 8.11458 7.84858 8.11458 7.52083C8.11458 7.19308 8.38058 6.92708 8.70833 6.92708H12.6667C12.9944 6.92708 13.2604 7.19308 13.2604 7.52083ZM13.2604 11.4792C13.2604 11.8069 12.9944 12.0729 12.6667 12.0729H8.70833C8.38058 12.0729 8.11458 11.8069 8.11458 11.4792C8.11458 11.1514 8.38058 10.8854 8.70833 10.8854H12.6667C12.9944 10.8854 13.2604 11.1514 13.2604 11.4792ZM6.92708 7.52161C6.92708 7.84936 6.66108 8.11536 6.33333 8.11536C6.00558 8.11536 5.73958 7.84936 5.73958 7.52161C5.73958 7.19386 6.00558 6.92786 6.33333 6.92786C6.66108 6.92786 6.92708 7.19386 6.92708 7.52161ZM6.92708 11.4792C6.92708 11.8069 6.66108 12.0729 6.33333 12.0729C6.00558 12.0729 5.73958 11.8069 5.73958 11.4792C5.73958 11.1514 6.00558 10.8854 6.33333 10.8854C6.66108 10.8854 6.92708 11.1514 6.92708 11.4792Z" fill="#121212"/>
</svg>
