<svg width="40" height="40" viewBox="0 0 40 40" fill="none" xmlns="http://www.w3.org/2000/svg">
<circle cx="20" cy="20" r="20" fill="#F0F0F0"/>
<path d="M21.8332 10.8334H14.4998C14.0136 10.8334 13.5473 11.0265 13.2035 11.3703C12.8597 11.7142 12.6665 12.1805 12.6665 12.6667V27.3334C12.6665 27.8196 12.8597 28.2859 13.2035 28.6297C13.5473 28.9736 14.0136 29.1667 14.4998 29.1667H25.4998C25.9861 29.1667 26.4524 28.9736 26.7962 28.6297C27.14 28.2859 27.3332 27.8196 27.3332 27.3334V16.3334L21.8332 10.8334Z" stroke="#4F8647" stroke-linecap="round" stroke-linejoin="round"/>
<path d="M21.8335 10.8334V16.3334H27.3335" stroke="#4F8647" stroke-linecap="round" stroke-linejoin="round"/>
<path d="M23.6668 20.9166H16.3335" stroke="#4F8647" stroke-linecap="round" stroke-linejoin="round"/>
<path d="M23.6668 24.5834H16.3335" stroke="#4F8647" stroke-linecap="round" stroke-linejoin="round"/>
<path d="M18.1668 17.25H17.2502H16.3335" stroke="#4F8647" stroke-linecap="round" stroke-linejoin="round"/>
</svg>
