<svg width="22" height="22" viewBox="0 0 22 22" fill="none" xmlns="http://www.w3.org/2000/svg">
<path d="M11.001 20C10.9032 20 10.8053 19.9798 10.7139 19.9384C10.412 19.8015 3.30644 16.5217 2.16711 10.6808C1.72671 8.42105 2.16896 6.21644 3.34984 4.78469C4.30543 3.62496 5.67923 3.00832 7.32359 3.00005C7.3319 3.00005 7.34021 3.00005 7.3476 3.00005C9.2237 3.00005 10.3677 4.06332 11.0001 4.9685C11.6354 4.05964 12.7885 2.99178 14.6766 3.00005C16.3219 3.00832 17.6966 3.62496 18.6532 4.78469C19.8322 6.21552 20.2735 8.42011 19.8322 10.6817C18.6947 16.5226 11.5882 19.8034 11.2863 19.9394C11.1967 19.9798 11.0989 20 11.001 20ZM7.3467 4.3776C7.34116 4.3776 7.33657 4.3776 7.33103 4.3776C6.09568 4.38311 5.11703 4.81409 4.42088 5.65862C3.49852 6.777 3.1652 8.55613 3.52712 10.418C4.40886 14.9429 9.70199 17.8836 11.001 18.5434C12.3001 17.8836 17.5933 14.9429 18.4741 10.418C18.8378 8.55521 18.5045 6.77608 17.584 5.65862C16.8879 4.81501 15.9092 4.38493 14.6711 4.3785C14.6655 4.3785 14.66 4.3785 14.6554 4.3785C12.4654 4.3785 11.6889 6.5629 11.6576 6.65572C11.5615 6.93416 11.2974 7.12344 11.0019 7.12344C11.0001 7.12344 10.9992 7.12344 10.9982 7.12344C10.7019 7.12252 10.4378 6.93415 10.3436 6.65386C10.3132 6.56197 9.53579 4.3776 7.3467 4.3776Z" fill="#2196F3"/>
</svg>
