<svg width="22" height="22" viewBox="0 0 22 22" fill="none" xmlns="http://www.w3.org/2000/svg">
<path fill-rule="evenodd" clip-rule="evenodd" d="M1 7.60555C1 4.50969 3.50969 2 6.60555 2C7.71223 2 8.79414 2.32758 9.71495 2.94145L11 3.79815L12.285 2.94145C13.2059 2.32758 14.2878 2 15.3944 2C18.4903 2 21 4.50969 21 7.60555V8.34382C21 10.3098 20.219 12.1952 18.8289 13.5853L13.1213 19.2929C11.9497 20.4645 10.0503 20.4645 8.87868 19.2929L3.1711 13.5853C1.78097 12.1952 1 10.3098 1 8.34382V7.60555ZM6.60555 4C4.61426 4 3 5.61426 3 7.60555V8.34382C3 9.77933 3.57025 11.156 4.58531 12.1711L10.2929 17.8787C10.6834 18.2692 11.3166 18.2692 11.7071 17.8787L17.4147 12.1711C18.4297 11.156 19 9.77933 19 8.34382V7.60555C19 5.61426 17.3857 4 15.3944 4C14.6826 4 13.9867 4.2107 13.3944 4.60555L11.5547 5.83205C11.2188 6.05598 10.7812 6.05598 10.4453 5.83205L8.60555 4.60555C8.01328 4.2107 7.31738 4 6.60555 4Z" fill="#2196F3"/>
</svg>
