<svg width="154" height="157" viewBox="0 0 154 157" fill="none" xmlns="http://www.w3.org/2000/svg">
<path d="M24.1985 41.5076H133.113C133.906 41.5076 134.667 41.8226 135.228 42.3835C135.789 42.9443 136.104 43.7049 136.104 44.498V120.238H21.208V44.5027C21.2074 44.1096 21.2843 43.7202 21.4343 43.3569C21.5843 42.9935 21.8045 42.6633 22.0823 42.3851C22.36 42.1069 22.6899 41.8862 23.053 41.7357C23.4161 41.5851 23.8054 41.5076 24.1985 41.5076Z" fill="#263238"/>
<path d="M136.341 120.471H20.9751V44.5029C20.9751 43.6476 21.3146 42.8273 21.9189 42.222C22.5233 41.6168 23.3432 41.2761 24.1985 41.2749H133.113C133.969 41.2761 134.789 41.6166 135.394 42.2217C135.999 42.8268 136.34 43.6472 136.341 44.5029V120.471ZM21.4409 120.005H135.875V44.5029C135.874 43.7707 135.583 43.0689 135.065 42.5511C134.547 42.0334 133.845 41.7419 133.113 41.7407H24.1985C23.4667 41.7419 22.7653 42.0335 22.2483 42.5514C21.7313 43.0693 21.4409 43.7711 21.4409 44.5029V120.005Z" fill="#263238"/>
<path d="M149.924 156.338H7.38747C5.81305 156.338 4.4855 154.079 5.18421 152.667L21.2079 121.538H136.108L152.216 152.56C152.919 153.967 151.522 156.338 149.924 156.338Z" fill="#263238"/>
<path d="M149.924 156.571H7.38777C6.94622 156.543 6.51906 156.403 6.1466 156.164C5.77415 155.926 5.46868 155.596 5.25904 155.206C4.99476 154.825 4.82956 154.384 4.77832 153.923C4.72709 153.462 4.79145 152.995 4.96558 152.565L21.0545 121.305H136.248L136.313 121.426L152.421 152.453C152.594 152.893 152.655 153.369 152.598 153.838C152.541 154.308 152.368 154.755 152.095 155.141C151.88 155.541 151.569 155.88 151.19 156.13C150.811 156.38 150.376 156.531 149.924 156.571ZM21.3619 121.771L5.38946 152.784C5.25154 153.143 5.20446 153.53 5.25241 153.911C5.30036 154.292 5.44185 154.655 5.66429 154.969C5.83379 155.288 6.08012 155.56 6.38102 155.76C6.68192 155.96 7.02792 156.082 7.38777 156.115H149.924C150.297 156.075 150.654 155.943 150.964 155.732C151.273 155.521 151.526 155.236 151.699 154.903C151.929 154.585 152.077 154.215 152.13 153.826C152.184 153.437 152.141 153.041 152.006 152.672L135.964 121.771H21.3619Z" fill="#263238"/>
<path d="M149.924 155.038H7.38789C7.02716 155.039 6.67234 154.947 6.35702 154.772C6.0417 154.596 5.77633 154.344 5.58602 154.037C5.39571 153.731 5.28677 153.381 5.26952 153.02C5.25226 152.66 5.32726 152.301 5.4874 151.978L21.2083 120.238H136.109L151.825 151.978C151.985 152.301 152.06 152.66 152.043 153.02C152.026 153.381 151.917 153.731 151.726 154.037C151.536 154.344 151.271 154.596 150.955 154.772C150.64 154.947 150.285 155.039 149.924 155.038Z" fill="white"/>
<path d="M149.924 155.272H7.3875C6.98561 155.275 6.58952 155.176 6.23702 154.983C5.88452 154.79 5.58737 154.51 5.3739 154.169C5.16043 153.829 5.03776 153.439 5.01761 153.038C4.99745 152.636 5.08048 152.236 5.25876 151.876L20.9797 120.136C20.998 120.096 21.0276 120.063 21.0649 120.039C21.1022 120.016 21.1454 120.004 21.1893 120.006H136.108C136.151 120.005 136.194 120.017 136.23 120.04C136.267 120.063 136.296 120.097 136.313 120.136L152.034 151.876C152.212 152.235 152.295 152.633 152.275 153.033C152.256 153.433 152.135 153.821 151.924 154.161C151.713 154.501 151.418 154.782 151.068 154.976C150.718 155.17 150.324 155.272 149.924 155.272ZM21.3617 120.472L5.69662 152.081C5.55389 152.369 5.48696 152.688 5.50218 153.009C5.5174 153.33 5.61426 153.641 5.78359 153.914C5.95292 154.187 6.18911 154.412 6.46979 154.568C6.75047 154.724 7.06634 154.806 7.3875 154.806H149.924C150.245 154.806 150.561 154.724 150.842 154.568C151.122 154.412 151.359 154.187 151.528 153.914C151.697 153.641 151.794 153.33 151.809 153.009C151.825 152.688 151.758 152.369 151.615 152.081L135.964 120.472H21.3617Z" fill="#263238"/>
<path d="M129.149 47.7402H28.1675V114.001H129.149V47.7402Z" fill="white"/>
<path d="M129.377 114.234H27.9341V47.5117H129.377V114.234ZM28.3999 113.768H128.911V47.9775H28.3999V113.768Z" fill="#263238"/>
<path d="M126.895 77.9382H30.7896V111.616H126.895V77.9382Z" fill="#4F8647"/>
<path opacity="0.46" d="M43.0728 98.1913V97.3528C43.0728 97.2293 43.0237 97.1108 42.9364 97.0235C42.849 96.9361 42.7305 96.887 42.607 96.887H41.9642C41.8664 96.4599 41.698 96.0522 41.4658 95.6806L41.9316 95.2148C42.0128 95.1284 42.058 95.0143 42.058 94.8957C42.058 94.7772 42.0128 94.663 41.9316 94.5767L41.3307 93.9758C41.2441 93.8932 41.129 93.8471 41.0093 93.8471C40.8896 93.8471 40.7745 93.8932 40.6879 93.9758L40.2221 94.4416C39.8492 94.2086 39.4398 94.0401 39.011 93.9431V93.2864C39.011 93.1628 38.9619 93.0444 38.8745 92.957C38.7872 92.8696 38.6687 92.8206 38.5452 92.8206H37.6974C37.5739 92.8206 37.4554 92.8696 37.368 92.957C37.2807 93.0444 37.2316 93.1628 37.2316 93.2864V93.9431C36.8045 94.0409 36.3967 94.2094 36.0252 94.4416L35.5594 93.9758C35.473 93.8945 35.3589 93.8493 35.2403 93.8493C35.1217 93.8493 35.0076 93.8945 34.9212 93.9758L34.3436 94.558C34.2624 94.6444 34.2172 94.7585 34.2172 94.8771C34.2172 94.9957 34.2624 95.1098 34.3436 95.1962L34.8094 95.662C34.5772 96.0335 34.4087 96.4413 34.311 96.8684H33.6728C33.5493 96.8684 33.4308 96.9175 33.3435 97.0048C33.2561 97.0922 33.207 97.2107 33.207 97.3342V98.182C33.207 98.3055 33.2561 98.424 33.3435 98.5114C33.4308 98.5987 33.5493 98.6478 33.6728 98.6478H34.3296C34.4265 99.0766 34.595 99.4861 34.828 99.8589L34.3622 100.325C34.281 100.411 34.2358 100.525 34.2358 100.644C34.2358 100.762 34.281 100.876 34.3622 100.963L34.9631 101.564C35.0495 101.645 35.1636 101.69 35.2822 101.69C35.4008 101.69 35.5149 101.645 35.6013 101.564L36.0671 101.098C36.4386 101.33 36.8464 101.499 37.2735 101.596V102.253C37.2735 102.377 37.3226 102.495 37.4099 102.583C37.4973 102.67 37.6158 102.719 37.7393 102.719H38.5871C38.7106 102.719 38.8291 102.67 38.9165 102.583C39.0038 102.495 39.0529 102.377 39.0529 102.253V101.596C39.4817 101.499 39.8912 101.331 40.264 101.098L40.7298 101.564C40.8164 101.646 40.9315 101.692 41.0512 101.692C41.1709 101.692 41.286 101.646 41.3726 101.564L41.9735 100.963C42.0547 100.876 42.0999 100.762 42.0999 100.644C42.0999 100.525 42.0547 100.411 41.9735 100.325L41.5077 99.8589C41.7407 99.4861 41.9092 99.0766 42.0061 98.6478H42.6629C42.7749 98.6343 42.8782 98.5805 42.9536 98.4966C43.029 98.4126 43.0713 98.3041 43.0728 98.1913ZM38.3309 99.6819C37.933 99.7221 37.5324 99.6383 37.1841 99.4419C36.8357 99.2455 36.5567 98.9461 36.3852 98.5848C36.2137 98.2235 36.1582 97.818 36.2263 97.424C36.2944 97.0299 36.4828 96.6666 36.7656 96.3838C37.0484 96.101 37.4117 95.9126 37.8058 95.8445C38.1999 95.7764 38.6053 95.8319 38.9666 96.0034C39.3279 96.1749 39.6273 96.4539 39.8237 96.8023C40.0201 97.1506 40.104 97.5512 40.0637 97.9491C40.0187 98.3933 39.8217 98.8084 39.506 99.1242C39.1902 99.4399 38.7751 99.6369 38.3309 99.6819Z" fill="white"/>
<path opacity="0.46" d="M51.0705 104.131V103.283C51.0705 103.159 51.0215 103.041 50.9341 102.954C50.8468 102.866 50.7283 102.817 50.6047 102.817H49.9759C49.8774 102.388 49.7073 101.979 49.4728 101.606L49.9386 101.14C50.0212 101.054 50.0673 100.939 50.0673 100.819C50.0673 100.699 50.0212 100.584 49.9386 100.498L49.3377 99.8966C49.2511 99.814 49.136 99.768 49.0163 99.768C48.8967 99.768 48.7816 99.814 48.6949 99.8966L48.2291 100.362C47.8559 100.13 47.4466 99.9618 47.018 99.864V99.2165C47.018 99.093 46.969 98.9745 46.8816 98.8872C46.7942 98.7998 46.6758 98.7507 46.5522 98.7507H45.6998C45.5763 98.7507 45.4578 98.7998 45.3704 98.8872C45.2831 98.9745 45.234 99.093 45.234 99.2165V99.8733C44.8054 99.9711 44.3961 100.14 44.0229 100.372L43.5571 99.9059C43.4705 99.8234 43.3554 99.7773 43.2357 99.7773C43.116 99.7773 43.0009 99.8234 42.9143 99.9059L42.3134 100.507C42.2308 100.593 42.1847 100.709 42.1847 100.828C42.1847 100.948 42.2308 101.063 42.3134 101.15L42.7792 101.615C42.5428 101.987 42.3726 102.397 42.2761 102.827H41.624C41.5005 102.827 41.382 102.876 41.2946 102.963C41.2073 103.05 41.1582 103.169 41.1582 103.292V104.14C41.1582 104.264 41.2073 104.382 41.2946 104.469C41.382 104.557 41.5005 104.606 41.624 104.606H42.2761C42.3726 105.034 42.5429 105.442 42.7792 105.812L42.3134 106.278C42.2308 106.365 42.1847 106.48 42.1847 106.6C42.1847 106.719 42.2308 106.834 42.3134 106.921L42.9143 107.517C43.0009 107.6 43.116 107.646 43.2357 107.646C43.3554 107.646 43.4705 107.6 43.5571 107.517L44.0229 107.051C44.3961 107.284 44.8054 107.452 45.234 107.55V108.207C45.234 108.33 45.2831 108.449 45.3704 108.536C45.4578 108.623 45.5763 108.672 45.6998 108.672H46.5522C46.6758 108.672 46.7942 108.623 46.8816 108.536C46.969 108.449 47.018 108.33 47.018 108.207V107.55C47.4466 107.452 47.8559 107.284 48.2291 107.051L48.6949 107.517C48.7816 107.6 48.8967 107.646 49.0163 107.646C49.136 107.646 49.2511 107.6 49.3377 107.517L49.9386 106.921C50.0212 106.834 50.0673 106.719 50.0673 106.6C50.0673 106.48 50.0212 106.365 49.9386 106.278L49.4728 105.812C49.7073 105.441 49.8774 105.034 49.9759 104.606H50.628C50.7491 104.6 50.8631 104.547 50.9457 104.458C51.0283 104.369 51.0731 104.252 51.0705 104.131ZM46.3286 105.64C45.9296 105.681 45.5275 105.598 45.1778 105.401C44.828 105.205 44.5477 104.905 44.3753 104.542C44.2029 104.18 44.147 103.773 44.2151 103.378C44.2832 102.983 44.4721 102.618 44.7558 102.334C45.0395 102.051 45.4041 101.862 45.7994 101.794C46.1948 101.726 46.6016 101.781 46.9638 101.954C47.3261 102.126 47.6261 102.407 47.8227 102.756C48.0192 103.106 48.1026 103.508 48.0614 103.907C48.0156 104.351 47.8184 104.766 47.5028 105.081C47.1872 105.397 46.7726 105.594 46.3286 105.64Z" fill="white"/>
<path d="M51.9793 81.1804H34.5582C34.5051 81.1804 34.4541 81.1593 34.4166 81.1217C34.379 81.0842 34.3579 81.0332 34.3579 80.9801C34.3579 80.9265 34.3789 80.8751 34.4163 80.8368C34.4537 80.7985 34.5047 80.7764 34.5582 80.7751H51.9793C52.0337 80.7751 52.0858 80.7967 52.1243 80.8352C52.1627 80.8736 52.1843 80.9257 52.1843 80.9801C52.1831 81.0336 52.1609 81.0846 52.1226 81.122C52.0843 81.1595 52.0329 81.1804 51.9793 81.1804Z" fill="#263238"/>
<path d="M51.9793 83.696H34.5582C34.5047 83.6948 34.4537 83.6727 34.4163 83.6344C34.3789 83.5961 34.3579 83.5446 34.3579 83.4911C34.3579 83.4379 34.379 83.387 34.4166 83.3494C34.4541 83.3119 34.5051 83.2908 34.5582 83.2908H51.9793C52.0329 83.2908 52.0843 83.3117 52.1226 83.3491C52.1609 83.3866 52.1831 83.4375 52.1843 83.4911C52.1843 83.5454 52.1627 83.5976 52.1243 83.636C52.0858 83.6744 52.0337 83.696 51.9793 83.696Z" fill="#263238"/>
<path d="M51.9793 86.2068H34.5582C34.5051 86.2068 34.4541 86.1857 34.4166 86.1481C34.379 86.1105 34.3579 86.0596 34.3579 86.0065C34.3579 85.9529 34.3789 85.9015 34.4163 85.8632C34.4537 85.8249 34.5047 85.8027 34.5582 85.8015H51.9793C52.0337 85.8015 52.0858 85.8231 52.1243 85.8615C52.1627 85.9 52.1843 85.9521 52.1843 86.0065C52.1831 86.06 52.1609 86.1109 52.1226 86.1484C52.0843 86.1858 52.0329 86.2068 51.9793 86.2068Z" fill="#263238"/>
<path d="M51.9793 88.7221H34.5582C34.5047 88.7209 34.4537 88.6988 34.4163 88.6605C34.3789 88.6222 34.3579 88.5707 34.3579 88.5172C34.3579 88.4641 34.379 88.4131 34.4166 88.3756C34.4541 88.338 34.5051 88.3169 34.5582 88.3169H51.9793C52.0329 88.3169 52.0843 88.3378 52.1226 88.3753C52.1609 88.4127 52.1831 88.4636 52.1843 88.5172C52.1843 88.5715 52.1627 88.6237 52.1243 88.6621C52.0858 88.7005 52.0337 88.7221 51.9793 88.7221Z" fill="#263238"/>
<path d="M125.05 50.866H32.6341C31.6154 50.866 30.7896 51.6918 30.7896 52.7106V52.9202C30.7896 53.9389 31.6154 54.7648 32.6341 54.7648H125.05C126.069 54.7648 126.895 53.9389 126.895 52.9202V52.7106C126.895 51.6918 126.069 50.866 125.05 50.866Z" fill="#4F8647"/>
<path d="M125.05 63.7222H32.6341C31.6154 63.7222 30.7896 64.548 30.7896 65.5668V65.7764C30.7896 66.7951 31.6154 67.621 32.6341 67.621H125.05C126.069 67.621 126.895 66.7951 126.895 65.7764V65.5668C126.895 64.548 126.069 63.7222 125.05 63.7222Z" fill="#4F8647"/>
<path d="M73.8628 131.255L74.0631 127.011H67.9936L67.5884 131.255H73.8628Z" fill="#263238"/>
<path d="M74.0857 131.487H67.3315L67.7973 126.778H74.3186L74.0857 131.487ZM67.8439 131.022H73.6386L73.8202 127.244H68.2026L67.8439 131.022Z" fill="white"/>
<path d="M86.4119 131.255L86.2069 127.011H80.1328L80.1375 131.255H86.4119Z" fill="#263238"/>
<path d="M86.658 131.487H79.9038V126.778H86.4251L86.658 131.487ZM80.3696 131.022H86.1642L85.9826 127.244H80.365L80.3696 131.022Z" fill="white"/>
<path d="M119.087 135.787H125.581L124.058 131.255H117.783L119.087 135.787Z" fill="#263238"/>
<path d="M125.902 136.015H118.915L117.471 131.017H124.225L125.902 136.015ZM119.265 135.549H125.255L123.89 131.483H118.091L119.265 135.549Z" fill="white"/>
<path d="M67.5884 131.255L67.9936 127.011H61.9195L61.314 131.255H67.5884Z" fill="#263238"/>
<path d="M67.8025 131.487H61.0483L61.7191 126.778H68.2404L67.8025 131.487ZM61.584 131.022H67.3786L67.7373 127.244H62.1476L61.584 131.022Z" fill="white"/>
<path d="M55.04 131.255L55.8505 127.011H49.7764L48.7656 131.255H55.04Z" fill="#263238"/>
<path d="M55.2352 131.487H48.4717L49.5943 126.778H56.1155L55.2352 131.487ZM49.0632 131.022H54.8486L55.5659 127.244H49.9762L49.0632 131.022Z" fill="white"/>
<path d="M111.509 131.255L110.489 127.011H104.42L105.235 131.255H111.509Z" fill="#263238"/>
<path d="M111.802 131.487H105.039L104.135 126.778H110.657L111.802 131.487ZM105.426 131.022H111.211L110.307 127.244H104.718L105.426 131.022Z" fill="white"/>
<path d="M117.783 131.255L116.558 127.011H110.489L111.509 131.255H117.783Z" fill="#263238"/>
<path d="M118.091 131.487H111.323L110.195 126.778H116.717L118.091 131.487ZM111.691 131.022H117.471L116.386 127.244H110.796L111.691 131.022Z" fill="white"/>
<path d="M48.7651 131.255L49.7759 127.011H43.7065L42.4907 131.255H48.7651Z" fill="#263238"/>
<path d="M48.9513 131.487H42.1831L43.5293 126.778H50.0739L48.9513 131.487ZM42.8026 131.022H48.5786L49.4776 127.244H43.8879L42.8026 131.022Z" fill="white"/>
<path d="M92.6864 131.255L92.2765 127.011H86.207L86.412 131.255H92.6864Z" fill="#263238"/>
<path d="M92.9419 131.487H86.1877L85.9595 126.778H92.4808L92.9419 131.487ZM86.6349 131.022H92.4295L92.0662 127.244H86.4486L86.6349 131.022Z" fill="white"/>
<path d="M124.058 131.255L122.633 127.011H116.559L117.784 131.255H124.058Z" fill="#263238"/>
<path d="M124.379 131.487H117.606L116.251 126.778H122.8L124.379 131.487ZM117.956 131.022H123.732L122.465 127.244H116.875L117.956 131.022Z" fill="white"/>
<path d="M105.234 131.255L104.419 127.011H98.3452L98.9601 131.255H105.234Z" fill="#263238"/>
<path d="M105.514 131.487H98.7602L98.0801 126.778H104.601L105.514 131.487ZM99.1608 131.022H104.941L104.215 127.244H98.6251L99.1608 131.022Z" fill="white"/>
<path d="M98.9602 131.255L98.3453 127.011H92.2759L92.6858 131.255H98.9602Z" fill="#263238"/>
<path d="M99.2302 131.487H92.4761L92.0103 126.778H98.5315L99.2302 131.487ZM92.8953 131.022H98.6899L98.1449 127.244H92.532L92.8953 131.022Z" fill="white"/>
<path d="M80.1372 131.255L80.1325 127.011H74.0631L73.8628 131.255H80.1372Z" fill="#263238"/>
<path d="M80.3701 131.487H73.6206L73.8395 126.778H80.3608L80.3701 131.487ZM74.1097 131.022H79.9043V127.244H74.2867L74.1097 131.022Z" fill="white"/>
<path d="M36.2211 131.255H29.9467L28.2139 135.787H34.7025L36.2211 131.255Z" fill="#263238"/>
<path d="M34.8699 136.015H27.8828L29.7926 131.017H36.5514L34.8699 136.015ZM28.5489 135.549H34.5345L35.8947 131.483H30.1047L28.5489 135.549Z" fill="white"/>
<path d="M37.6372 127.011H31.5631L29.9468 131.255H36.2212L37.6372 127.011Z" fill="#263238"/>
<path d="M36.3839 131.487H29.6064L31.4045 126.778H37.9583L36.3839 131.487ZM30.2819 131.022H36.0485L37.3109 127.244H31.7212L30.2819 131.022Z" fill="white"/>
<path d="M42.4904 131.255L43.7062 127.011H37.6367L36.2207 131.255H42.4904Z" fill="#263238"/>
<path d="M42.6673 131.487H35.8945L37.4689 126.778H43.9902L42.6673 131.487ZM36.542 131.022H42.318L43.3987 127.244H37.809L36.542 131.022Z" fill="white"/>
<path d="M26.3555 140.645L24.3618 145.866H31.3349L33.0817 140.645H26.3555Z" fill="#263238"/>
<path d="M31.5023 146.1H24.0215L26.2201 140.412H33.4261L31.5023 146.1ZM24.6969 145.634H31.1669L32.7414 140.878H26.5182L24.6969 145.634Z" fill="white"/>
<path d="M34.7022 135.787H28.2135L26.355 140.645H33.0812L34.7022 135.787Z" fill="#263238"/>
<path d="M33.2486 140.878H26.0146L28.0502 135.55H35.0373L33.2486 140.878ZM26.6947 140.413H32.9132L34.3805 136.02H28.3716L26.6947 140.413Z" fill="white"/>
<path d="M33.0817 140.645L31.335 145.866H38.3081L39.8033 140.645H33.0817Z" fill="#263238"/>
<path d="M38.4846 146.1H31.0317L32.9322 140.412H40.1289L38.4846 146.1ZM31.6559 145.634H38.1306L39.4954 140.878H33.249L31.6559 145.634Z" fill="white"/>
<path d="M61.314 131.255L61.9195 127.011H55.8501L55.0396 131.255H61.314Z" fill="#263238"/>
<path d="M61.5191 131.487H54.7603L55.6546 126.778H62.1759L61.5191 131.487ZM55.3239 131.022H61.1138L61.6495 127.244H56.0319L55.3239 131.022Z" fill="white"/>
<path d="M60.6664 135.787L61.3139 131.255H55.0395L54.1777 135.787H60.6664Z" fill="#263238"/>
<path d="M60.8714 136.015H53.8843L54.8392 131.017H61.5747L60.8714 136.015ZM54.4572 135.549H60.4661L61.0484 131.483H55.2351L54.4572 135.549Z" fill="white"/>
<path d="M54.1774 135.787L55.0391 131.255H48.7647L47.6841 135.787H54.1774Z" fill="#263238"/>
<path d="M54.3689 136.015H47.3818L48.579 131.022H55.3192L54.3689 136.015ZM47.9827 135.55H53.9823L54.7602 131.483H48.9516L47.9827 135.55Z" fill="white"/>
<path d="M67.1598 135.787L67.5884 131.255H61.314L60.6665 135.787H67.1598Z" fill="#263238"/>
<path d="M67.3694 136.015H60.3823L61.095 131.017H67.8259L67.3694 136.015ZM60.9366 135.549H66.9455L67.3321 131.483H61.5189L60.9366 135.549Z" fill="white"/>
<path d="M42.4904 131.255H36.2207L34.7021 135.787H41.1955L42.4904 131.255Z" fill="#263238"/>
<path d="M41.3679 136.015H34.3809L36.0484 131.017H42.8026L41.3679 136.015ZM35.0283 135.549H41.0186L42.1831 131.483H36.3838L35.0283 135.549Z" fill="white"/>
<path d="M120.49 140.645H127.212L125.581 135.787H119.088L120.49 140.645Z" fill="#263238"/>
<path d="M127.537 140.878H120.313L118.78 135.55H125.767L127.537 140.878ZM120.662 140.413H126.89L125.437 136.015H119.381L120.662 140.413Z" fill="white"/>
<path d="M47.6845 135.787L48.7651 131.255H42.4907L41.1958 135.787H47.6845Z" fill="#263238"/>
<path d="M47.8704 136.015H40.8833L42.318 131.017H49.0442L47.8704 136.015ZM41.5028 135.549H47.5024L48.4713 131.483H42.6673L41.5028 135.549Z" fill="white"/>
<path d="M34.7021 135.787L33.0811 140.645H39.8026L41.1954 135.787H34.7021Z" fill="#263238"/>
<path d="M39.9798 140.878H32.7412L34.5346 135.55H41.5217L39.9798 140.878ZM33.4027 140.413H39.6258L40.8835 136.02H34.8699L33.4027 140.413Z" fill="white"/>
<path d="M106.106 135.787L105.235 131.255H98.9604L99.6172 135.787H106.106Z" fill="#263238"/>
<path d="M106.39 136.015H99.4027L98.6807 131.017H105.407L106.39 136.015ZM99.8172 135.549H105.826L105.039 131.483H99.2303L99.8172 135.549Z" fill="white"/>
<path d="M99.6172 135.787L98.9604 131.255H92.686L93.1239 135.787H99.6172Z" fill="#263238"/>
<path d="M99.8826 136.015H92.8955L92.4297 131.017H99.1606L99.8826 136.015ZM93.3333 135.549H99.3516L98.7646 131.483H92.9421L93.3333 135.549Z" fill="white"/>
<path d="M119.088 135.787L117.784 131.255H111.509L112.599 135.787H119.088Z" fill="#263238"/>
<path d="M119.382 136.015H112.395L111.193 131.017H117.938L119.382 136.015ZM112.763 135.549H118.762L117.588 131.483H111.803L112.763 135.549Z" fill="white"/>
<path d="M80.1413 135.787L80.1366 131.255H73.8622L73.6479 135.787H80.1413Z" fill="#263238"/>
<path d="M80.3748 136.015H73.3877L73.6206 131.017H80.3515L80.3748 136.015ZM73.8954 135.549H79.909V131.483H74.0864L73.8954 135.549Z" fill="white"/>
<path d="M93.1234 135.787L92.6855 131.255H86.4111L86.6301 135.787H93.1234Z" fill="#263238"/>
<path d="M93.3804 136.015H86.3934L86.1465 131.017H92.8774L93.3804 136.015ZM86.8592 135.549H92.8727L92.4814 131.483H86.6589L86.8592 135.549Z" fill="white"/>
<path d="M86.6305 135.787L86.4116 131.255H80.1372L80.1419 135.787H86.6305Z" fill="#263238"/>
<path d="M86.8777 136.015H79.8906V131.022H86.6355L86.8777 136.015ZM80.3564 135.55H86.37L86.1697 131.483H80.3704L80.3564 135.55Z" fill="white"/>
<path d="M73.6483 135.787L73.8626 131.255H67.5882L67.1597 135.787H73.6483Z" fill="#263238"/>
<path d="M73.8719 136.015H66.8848L67.3506 131.017H74.0815L73.8719 136.015ZM67.4158 135.549H73.4293L73.6203 131.483H67.8024L67.4158 135.549Z" fill="white"/>
<path d="M93.1235 135.787L93.594 140.645H100.316L99.6169 135.787H93.1235Z" fill="#263238"/>
<path d="M100.586 140.878H93.3801L92.8677 135.55H99.8175L100.586 140.878ZM93.8039 140.413H100.05L99.4123 136.015H93.3801L93.8039 140.413Z" fill="white"/>
<path d="M99.6172 135.787L100.316 140.645H107.042L106.106 135.787H99.6172Z" fill="#263238"/>
<path d="M107.321 140.878H100.115L99.3516 135.55H106.301L107.321 140.878ZM100.521 140.413H106.758L105.915 136.015H99.8826L100.521 140.413Z" fill="white"/>
<path d="M41.1955 135.787L39.8027 140.645H46.5243L47.6842 135.787H41.1955Z" fill="#263238"/>
<path d="M46.7156 140.878H39.4956L41.0188 135.55H47.9826L46.7156 140.878ZM40.1151 140.413H46.3429L47.391 136.02H41.3681L40.1151 140.413Z" fill="white"/>
<path d="M106.105 135.787L107.042 140.645H113.763L112.599 135.787H106.105Z" fill="#263238"/>
<path d="M114.062 140.878H106.851L105.826 135.55H112.781L114.062 140.878ZM107.233 140.413H113.47L112.394 136.015H106.39L107.233 140.413Z" fill="white"/>
<path d="M80.1421 135.787L80.1468 140.645H86.8683L86.6308 135.787H80.1421Z" fill="#263238"/>
<path d="M87.1149 140.878H79.9136V135.55H86.8587L87.1149 140.878ZM80.3794 140.413H86.6258L86.4116 136.02H80.3561L80.3794 140.413Z" fill="white"/>
<path d="M112.599 135.787L113.764 140.645H120.49L119.088 135.787H112.599Z" fill="#263238"/>
<path d="M120.778 140.878H113.582L112.301 135.55H119.265L120.778 140.878ZM113.931 140.413H120.159L118.915 136.015H112.892L113.931 140.413Z" fill="white"/>
<path d="M86.6304 135.787L86.8679 140.645H93.5942L93.1237 135.787H86.6304Z" fill="#263238"/>
<path d="M93.8504 140.878H86.649L86.3882 135.55H93.3333L93.8504 140.878ZM87.0915 140.413H93.338L92.9141 136.02H86.8586L87.0915 140.413Z" fill="white"/>
<path d="M54.1774 135.787L53.2505 140.645H59.9767L60.6661 135.787H54.1774Z" fill="#263238"/>
<path d="M60.1777 140.878H52.9717L53.9825 135.55H60.937L60.1777 140.878ZM53.5307 140.413H59.7585L60.3873 136.02H54.3691L53.5307 140.413Z" fill="white"/>
<path d="M47.6848 135.787L46.5249 140.645H53.2511L54.1781 135.787H47.6848Z" fill="#263238"/>
<path d="M53.442 140.878H46.25L47.503 135.55H54.4575L53.442 140.878ZM46.8229 140.413H53.0601L53.8939 136.02H47.871L46.8229 140.413Z" fill="white"/>
<path d="M73.6484 135.787L73.4248 140.645H80.1464L80.1417 135.787H73.6484Z" fill="#263238"/>
<path d="M80.3796 140.878H73.1782L73.4298 135.554H80.3749L80.3796 140.878ZM73.6673 140.412H79.9138V136.015H73.8583L73.6673 140.412Z" fill="white"/>
<path d="M67.1599 135.787L66.6987 140.645H73.425L73.6486 135.787H67.1599Z" fill="#263238"/>
<path d="M73.6437 140.878H66.4424L66.9454 135.55H73.8953L73.6437 140.878ZM66.9548 140.413H73.2012L73.4062 136.02H67.3507L66.9548 140.413Z" fill="white"/>
<path d="M60.6664 135.787L59.9771 140.645H66.6986L67.1598 135.787H60.6664Z" fill="#263238"/>
<path d="M66.9079 140.878H59.7065L60.4658 135.55H67.4156L66.9079 140.878ZM60.2422 140.413H66.484L66.9032 136.02H60.8478L60.2422 140.413Z" fill="white"/>
<path d="M112.599 135.787L111.509 131.255H105.234L106.105 135.787H112.599Z" fill="#263238"/>
<path d="M112.893 136.015H105.906L104.941 131.022H111.682L112.893 136.015ZM106.297 135.55H112.301L111.323 131.483H105.514L106.297 135.55Z" fill="white"/>
<path d="M37.6371 127.011L39.0857 122.67H33.2213L31.563 127.011H37.6371Z" fill="#263238"/>
<path d="M37.8042 127.244H31.2271L33.0623 122.437H39.4113L37.8042 127.244ZM31.9025 126.778H37.4921L38.7871 122.903H33.3837L31.9025 126.778Z" fill="white"/>
<path d="M31.5628 127.011H25.9592L24.1519 131.255H29.9465L31.5628 127.011Z" fill="#263238"/>
<path d="M30.1051 131.487H23.8027L25.8057 126.778H31.9031L30.1051 131.487ZM24.5154 131.022H29.793L31.237 127.244H26.1131L24.5154 131.022Z" fill="white"/>
<path d="M33.2209 122.67H27.8082L25.959 127.011H31.5626L33.2209 122.67Z" fill="#263238"/>
<path d="M31.7264 127.244H25.6104L27.6552 122.437H33.5616L31.7264 127.244ZM26.3137 126.778H31.405L32.8862 122.903H27.9673L26.3137 126.778Z" fill="white"/>
<path d="M29.9465 131.255H24.1518L22.2188 135.787H28.2137L29.9465 131.255Z" fill="#263238"/>
<path d="M28.3723 136.015H21.8511L23.9798 131.017H30.2635L28.3723 136.015ZM22.5731 135.549H28.0509L29.6067 131.483H24.3059L22.5731 135.549Z" fill="white"/>
<path d="M28.214 135.787H22.2191L20.1509 140.645H26.3554L28.214 135.787Z" fill="#263238"/>
<path d="M26.518 140.878H19.7964L22.0649 135.55H28.5489L26.518 140.878ZM20.4998 140.413H26.2198L27.8967 136.02H22.3723L20.4998 140.413Z" fill="white"/>
<path d="M26.3554 140.645H20.1509L17.9243 145.866H24.3617L26.3554 140.645Z" fill="#263238"/>
<path d="M24.5201 146.1H17.5703L19.9972 140.412H26.6861L24.5201 146.1ZM18.2783 145.634H24.1987L26.0154 140.878H20.3046L18.2783 145.634Z" fill="white"/>
<path d="M130.333 131.255L132.07 135.787H137.813L135.88 131.255H130.333Z" fill="#263238"/>
<path d="M138.168 136.015H131.912L129.993 131.017H136.048L138.168 136.015ZM132.233 135.549H137.46L135.727 131.483H130.668L132.233 135.549Z" fill="white"/>
<path d="M133.937 140.645H139.886L137.813 135.787H132.069L133.937 140.645Z" fill="#263238"/>
<path d="M140.235 140.878H133.774L131.734 135.55H137.966L140.235 140.878ZM134.096 140.413H139.531L137.668 136.02H132.423L134.096 140.413Z" fill="white"/>
<path d="M135.94 145.866H142.108L139.886 140.645H133.938L135.94 145.866Z" fill="#263238"/>
<path d="M142.462 146.1H135.782L133.598 140.412H140.04L142.462 146.1ZM136.099 145.634H141.74L139.714 140.878H134.287L136.099 145.634Z" fill="white"/>
<path d="M86.2067 127.011L85.9924 122.67H80.1279L80.1326 127.011H86.2067Z" fill="#263238"/>
<path d="M86.4486 127.244H79.8994V122.437H86.2157L86.4486 127.244ZM80.3652 126.778H85.9549L85.7639 122.903H80.3606L80.3652 126.778Z" fill="white"/>
<path d="M130.332 131.255H135.88L134.073 127.011H128.702L130.332 131.255Z" fill="#263238"/>
<path d="M136.234 131.487H130.179L128.372 126.778H134.236L136.234 131.487ZM130.491 131.022H135.526L133.919 127.244H129.042L130.491 131.022Z" fill="white"/>
<path d="M127.211 140.645H133.938L132.07 135.787H125.581L127.211 140.645Z" fill="#263238"/>
<path d="M134.287 140.878H127.044L125.255 135.55H132.242L134.287 140.878ZM127.389 140.413H133.607L131.912 136.015H125.903L127.389 140.413Z" fill="white"/>
<path d="M43.7067 127.011L44.9504 122.67H39.0859L37.6372 127.011H43.7067Z" fill="#263238"/>
<path d="M43.8836 127.244H37.311L38.9181 122.437H45.2577L43.8836 127.244ZM37.9585 126.778H43.5482L44.6614 122.903H39.2628L37.9585 126.778Z" fill="white"/>
<path d="M122.633 127.011L124.058 131.255H130.333L128.702 127.011H122.633Z" fill="#263238"/>
<path d="M130.668 131.487H123.89L122.307 126.778H128.861L130.668 131.487ZM124.226 131.022H129.992L128.544 127.244H122.954L124.226 131.022Z" fill="white"/>
<path d="M134.073 127.011L132.224 122.67H127.035L128.702 127.011H134.073Z" fill="#263238"/>
<path d="M134.427 127.244H128.544L126.681 122.437H132.377L134.427 127.244ZM128.861 126.778H133.719L132.07 122.903H127.375L128.861 126.778Z" fill="white"/>
<path d="M128.702 127.011L127.035 122.67H121.175L122.633 127.011H128.702Z" fill="#263238"/>
<path d="M129.042 127.244H122.465L120.849 122.437H127.198L129.042 127.244ZM122.8 126.778H128.362L126.876 122.903H121.496L122.8 126.778Z" fill="white"/>
<path d="M107.042 140.645L108.048 145.866H115.021L113.764 140.645H107.042Z" fill="#263238"/>
<path d="M115.315 146.1H107.862L106.767 140.412H113.959L115.315 146.1ZM108.239 145.634H114.723L113.582 140.878H107.321L108.239 145.634Z" fill="white"/>
<path d="M128.968 145.866H135.941L133.938 140.645H127.211L128.968 145.866Z" fill="#263238"/>
<path d="M136.28 146.1H128.799L126.89 140.412H134.096L136.28 146.1ZM129.135 145.634H135.6L133.774 140.878H127.537L129.135 145.634Z" fill="white"/>
<path d="M122.633 127.011L121.175 122.67H115.31L116.558 127.011H122.633Z" fill="#263238"/>
<path d="M122.954 127.244H116.386L114.989 122.437H121.333L122.954 127.244ZM116.736 126.778H122.325L121.026 122.903H115.618L116.736 126.778Z" fill="white"/>
<path d="M120.49 140.645L121.994 145.866H128.967L127.211 140.645H120.49Z" fill="#263238"/>
<path d="M129.289 146.1H121.836L120.196 140.412H127.398L129.289 146.1ZM122.167 145.634H128.641L127.044 140.878H120.779L122.167 145.634Z" fill="white"/>
<path d="M113.764 140.645L115.021 145.866H121.994L120.49 140.645H113.764Z" fill="#263238"/>
<path d="M122.302 146.1H114.849L113.484 140.412H120.676L122.302 146.1ZM115.203 145.634H121.683L120.313 140.878H114.062L115.203 145.634Z" fill="white"/>
<path d="M125.581 135.787H132.069L130.332 131.255H124.058L125.581 135.787Z" fill="#263238"/>
<path d="M132.424 136.015H125.437L123.755 131.017H130.514L132.424 136.015ZM125.763 135.549H131.749L130.183 131.483H124.38L125.763 135.549Z" fill="white"/>
<path d="M67.9935 127.011L68.4034 122.67H62.539L61.9194 127.011H67.9935Z" fill="#263238"/>
<path d="M68.2033 127.244H61.6494L62.3388 122.437H68.6598L68.2033 127.244ZM62.1898 126.778H67.7794L68.1474 122.903H62.7441L62.1898 126.778Z" fill="white"/>
<path d="M116.558 127.011L115.31 122.67H109.445L110.489 127.011H116.558Z" fill="#263238"/>
<path d="M116.87 127.244H110.307L109.133 122.437H115.464L116.87 127.244ZM110.67 126.778H116.26L115.142 122.903H109.744L110.67 126.778Z" fill="white"/>
<path d="M61.9195 127.011L62.5391 122.67H56.6746L55.8501 127.011H61.9195Z" fill="#263238"/>
<path d="M62.124 127.244H55.5654L56.497 122.437H62.8227L62.124 127.244ZM56.1291 126.778H61.7187L62.273 122.903H56.8697L56.1291 126.778Z" fill="white"/>
<path d="M80.1324 127.011L80.1278 122.67H74.2679L74.063 127.011H80.1324Z" fill="#263238"/>
<path d="M80.3654 127.244H73.8208L74.0444 122.437H80.3607L80.3654 127.244ZM74.3099 126.778H79.8996V122.903H74.4869L74.3099 126.778Z" fill="white"/>
<path d="M55.85 127.011L56.6745 122.67H50.8146L49.7759 127.011H55.85Z" fill="#263238"/>
<path d="M56.0316 127.244H49.4824L50.6283 122.437H56.9633L56.0316 127.244ZM50.0647 126.778H55.6543L56.395 122.903H50.9963L50.0647 126.778Z" fill="white"/>
<path d="M49.776 127.011L50.8147 122.67H44.9503L43.7065 127.011H49.776Z" fill="#263238"/>
<path d="M49.9761 127.244H43.3989L44.7963 122.437H51.1313L49.9761 127.244ZM44.0278 126.778H49.6174L50.549 122.903H45.1271L44.0278 126.778Z" fill="white"/>
<path d="M74.0626 127.011L74.2676 122.67H68.4031L67.9932 127.011H74.0626Z" fill="#263238"/>
<path d="M74.2865 127.244H67.7373L68.2031 122.437H74.5241L74.2865 127.244ZM68.2311 126.778H73.8207L74.0024 122.903H68.6084L68.2311 126.778Z" fill="white"/>
<path d="M110.489 127.011L109.446 122.67H103.581L104.42 127.011H110.489Z" fill="#263238"/>
<path d="M110.783 127.244H104.224L103.292 122.437H109.623L110.783 127.244ZM104.611 126.778H110.2L109.269 122.903H103.865L104.611 126.778Z" fill="white"/>
<path d="M104.42 127.011L103.582 122.67H97.7217L98.3459 127.011H104.42Z" fill="#263238"/>
<path d="M104.7 127.244H98.1457L97.4517 122.437H103.777L104.7 127.244ZM98.551 126.778H104.141L103.395 122.903H97.992L98.551 126.778Z" fill="white"/>
<path d="M92.2764 127.011L91.8572 122.67H85.9927L86.2069 127.011H92.2764Z" fill="#263238"/>
<path d="M92.5321 127.244H85.9829L85.75 122.437H92.0663L92.5321 127.244ZM86.4254 126.778H92.0151L91.6378 122.903H86.2344L86.4254 126.778Z" fill="white"/>
<path d="M107.042 140.645H100.316H93.5941H86.8679H80.1463H73.4247H66.6985H59.9769H53.2507H46.5244H39.8029L38.3076 145.866H45.2807H52.2538H59.2316H66.2047H73.1778H80.1509H87.124H94.0972H101.07H108.048L107.042 140.645Z" fill="#263238"/>
<path d="M108.327 146.1H37.9907L39.6164 140.412H107.233L108.327 146.1ZM38.6149 145.634H107.764L106.832 140.878H39.9797L38.6149 145.634Z" fill="white"/>
<path d="M98.3456 127.011L97.7214 122.67H91.8569L92.2762 127.011H98.3456Z" fill="#263238"/>
<path d="M98.6151 127.244H92.0659L91.6001 122.437H97.9211L98.6151 127.244ZM92.4851 126.778H98.0748L97.5112 122.903H92.1078L92.4851 126.778Z" fill="white"/>
<mask id="mask0_157_4906" style="mask-type:luminance" maskUnits="userSpaceOnUse" x="38" y="28" width="83" height="86">
<path d="M120.746 28.9221H38.6436V113.764H120.746V28.9221Z" fill="white"/>
</mask>
<g mask="url(#mask0_157_4906)">
<path d="M87.7629 85.7923C94.6239 85.7923 100.186 78.712 100.186 69.9782C100.186 61.2443 94.6239 54.1641 87.7629 54.1641C80.9018 54.1641 75.3398 61.2443 75.3398 69.9782C75.3398 78.712 80.9018 85.7923 87.7629 85.7923Z" fill="#263238"/>
<path d="M87.7622 86.0203C80.7751 86.0203 75.1016 78.8236 75.1016 69.9779C75.1016 61.1323 80.7797 53.9309 87.7622 53.9309C94.7446 53.9309 100.418 61.1276 100.418 69.9779C100.418 78.8282 94.7399 86.0203 87.7622 86.0203ZM87.7622 54.3967C81.0359 54.3967 75.5674 61.3838 75.5674 69.9779C75.5674 78.572 81.0359 85.5545 87.7622 85.5545C94.4884 85.5545 99.9523 78.5674 99.9523 69.9779C99.9523 61.3885 94.4837 54.3967 87.7622 54.3967Z" fill="#263238"/>
<path d="M59.758 110.252C58.6168 110.252 57.3219 109.241 56.6325 108.617C55.6636 107.737 54.6621 106.502 54.6621 105.953C54.6621 105.165 63.9782 77.0727 65.0542 73.8819C65.0663 73.8446 65.0875 73.811 65.116 73.7841C65.1445 73.7573 65.1794 73.738 65.2173 73.7282C65.2545 73.7188 65.2934 73.7185 65.3307 73.7275C65.368 73.7364 65.4026 73.7542 65.4315 73.7794L68.9577 76.9981C68.9852 77.0232 69.0063 77.0544 69.0193 77.0892C69.0322 77.1241 69.0367 77.1615 69.0322 77.1984L65.5573 107.718C65.5531 107.753 65.5408 107.787 65.5214 107.817C65.5021 107.847 65.4761 107.872 65.4455 107.89C65.3011 107.979 61.9007 110.047 59.9397 110.243L59.758 110.252ZM65.385 74.385C62.4504 83.2353 55.2071 105.128 55.1372 105.981C55.1372 106.246 55.8453 107.285 56.9539 108.286C58.0625 109.288 59.1664 109.865 59.9024 109.796C61.584 109.628 64.5605 107.909 65.1148 107.569L68.5664 77.2916L65.385 74.385Z" fill="#263238"/>
<path d="M85.8665 69.829L65.2593 73.9514L68.5572 114.551H108.747L114.104 72.3024L89.5743 69.624L85.8665 69.829Z" fill="#92E3A9"/>
<path d="M108.747 114.784H68.5574C68.4992 114.784 68.4432 114.762 68.4008 114.722C68.3584 114.682 68.3327 114.628 68.3292 114.57L65.0266 73.9702C65.0221 73.9134 65.0385 73.8569 65.0729 73.8114C65.1072 73.7659 65.1571 73.7346 65.2129 73.7234L85.8435 69.601L89.5699 69.3914L114.132 72.0744C114.193 72.0811 114.25 72.1111 114.29 72.1582C114.309 72.1832 114.323 72.2117 114.331 72.2421C114.339 72.2725 114.341 72.3041 114.337 72.3352L108.98 114.588C108.971 114.644 108.943 114.694 108.9 114.73C108.857 114.765 108.803 114.785 108.747 114.784ZM68.7764 114.318H108.542L113.843 72.5123L89.5699 69.8711L85.9133 70.0761L65.525 74.1565L68.7764 114.318Z" fill="#263238"/>
<mask id="mask1_157_4906" style="mask-type:luminance" maskUnits="userSpaceOnUse" x="65" y="69" width="50" height="46">
<mask id="mask2_157_4906" style="mask-type:luminance" maskUnits="userSpaceOnUse" x="65" y="69" width="50" height="46">
<path d="M85.8665 69.829L65.2593 73.9514L68.5572 114.551H108.747L114.104 72.3024L89.5743 69.624L85.8665 69.829Z" fill="white"/>
</mask>
<g mask="url(#mask2_157_4906)">
<path d="M108.747 114.784H68.5574C68.4992 114.784 68.4432 114.762 68.4008 114.722C68.3584 114.682 68.3327 114.628 68.3292 114.57L65.0266 73.97C65.0221 73.9132 65.0385 73.8566 65.0729 73.8111C65.1072 73.7657 65.1571 73.7343 65.2129 73.7231L85.8435 69.6007L89.5699 69.3911L114.132 72.0742C114.193 72.0808 114.25 72.1108 114.29 72.158C114.309 72.183 114.323 72.2115 114.331 72.2418C114.339 72.2722 114.341 72.3039 114.337 72.335L108.98 114.588C108.971 114.643 108.943 114.693 108.9 114.729C108.857 114.765 108.803 114.785 108.747 114.784ZM68.7764 114.318H108.542L113.843 72.512L89.5699 69.8709L85.9133 70.0758L65.525 74.1563L68.7764 114.318Z" fill="white"/>
</g>
</mask>
<g mask="url(#mask1_157_4906)">
<path opacity="0.3" d="M68.5568 114.551H108.747L109.757 106.6L109.683 106.213L99.9847 108.328L104.214 90.5249L80.9426 100.749L75.3017 106.39H78.8279L68.4497 113.219L68.5568 114.551Z" fill="black"/>
</g>
<path d="M83.6774 67.5421C83.6774 67.5421 80.3329 69.3727 79.4852 71.017C78.6374 72.6613 75.1299 84.8747 75.1299 84.8747L80.9012 86.1138L75.3395 88.7922L83.7566 112.902L97.1532 112.078L105.873 86.7287L100.512 84.4648L105.254 82.4013C105.254 82.4013 100.721 73.7466 98.2665 70.0388C95.8117 66.331 83.6774 67.5421 83.6774 67.5421Z" fill="#92E3A9"/>
<path d="M83.7746 113.135C83.7267 113.135 83.68 113.12 83.6408 113.093C83.6017 113.065 83.5719 113.026 83.5556 112.981L75.1292 88.8665C75.1112 88.8125 75.1136 88.7538 75.1359 88.7015C75.1582 88.6491 75.1989 88.6067 75.2503 88.5824L80.2018 86.1974L75.078 85.1028C75.0465 85.096 75.0167 85.0831 74.9903 85.0647C74.964 85.0463 74.9415 85.0228 74.9243 84.9956C74.9079 84.9678 74.8974 84.9369 74.8934 84.9049C74.8894 84.8728 74.892 84.8403 74.901 84.8093C75.0454 84.3109 78.4504 72.5633 79.2749 70.9143C80.0994 69.2654 83.4019 67.4161 83.5417 67.337C83.5689 67.3221 83.5992 67.3141 83.6302 67.3137C84.1286 67.2624 95.8809 66.1259 98.4009 69.9082C100.856 73.5834 105.388 82.2101 105.421 82.294C105.434 82.3231 105.441 82.3549 105.441 82.3871C105.441 82.4193 105.434 82.4512 105.421 82.4803C105.411 82.5108 105.395 82.5387 105.373 82.5621C105.351 82.5855 105.325 82.6037 105.295 82.6154L101.051 84.4786L105.91 86.5328C105.964 86.5565 106.008 86.5998 106.032 86.6542C106.056 86.7085 106.059 86.7699 106.04 86.8263L97.3528 112.175C97.3374 112.218 97.3098 112.256 97.2734 112.283C97.2369 112.31 97.1933 112.326 97.1479 112.329L83.7513 113.154L83.7746 113.135ZM75.6416 88.9131L83.9376 112.669L96.9802 111.868L105.546 86.8682L100.39 84.6882C100.347 84.6707 100.311 84.6411 100.285 84.6029C100.26 84.5648 100.246 84.5199 100.245 84.4739C100.246 84.4286 100.259 84.3844 100.284 84.3464C100.309 84.3084 100.344 84.2783 100.385 84.2597L104.899 82.2986C104.172 80.9012 100.241 73.5042 98.0189 70.1877C95.7272 66.75 84.5525 67.7189 83.728 67.7934C83.346 68.0077 80.4301 69.6567 79.6941 71.1472C78.9581 72.6378 75.9258 83.0067 75.4227 84.7255L80.9518 85.9086C80.9992 85.919 81.0421 85.9438 81.0747 85.9797C81.1072 86.0156 81.1278 86.0608 81.1335 86.1089C81.1379 86.157 81.1278 86.2053 81.1046 86.2477C81.0813 86.29 81.046 86.3244 81.003 86.3465L75.6416 88.9131Z" fill="#263238"/>
<path d="M83.1558 114.966L82.9834 72.5121L94.1115 71.478L97.3768 114.551L83.1558 114.966Z" fill="white"/>
<path d="M83.1553 115.199C83.0947 115.198 83.0366 115.175 82.9923 115.133C82.9485 115.089 82.9236 115.029 82.9224 114.966L82.7501 72.5123C82.7487 72.454 82.7696 72.3975 82.8086 72.3542C82.8476 72.3109 82.9016 72.2841 82.9597 72.2794L94.0878 71.2686C94.1185 71.2641 94.1498 71.2664 94.1796 71.2752C94.2093 71.2841 94.2368 71.2993 94.2601 71.3198C94.3084 71.3611 94.3385 71.4196 94.344 71.4828L97.6046 114.556C97.6064 114.587 97.602 114.619 97.5916 114.648C97.5812 114.678 97.565 114.705 97.5441 114.728C97.523 114.752 97.4971 114.771 97.4682 114.784C97.4393 114.796 97.408 114.803 97.3764 114.803L83.16 115.217L83.1553 115.199ZM83.2159 72.7219L83.3882 114.724L97.1248 114.328L93.8968 71.7344L83.2159 72.7219Z" fill="#263238"/>
<path d="M81.3345 61.3796C81.3345 61.3796 82.7738 69.4194 82.9834 71.4783C83.193 73.5372 88.5125 88.1774 90.1056 85.7879C91.843 83.184 93.9066 74.9858 94.2978 73.1273C94.6891 71.2687 94.7124 63.2382 94.7124 63.2382C94.7124 63.2382 89.3696 66.946 81.3345 61.3796Z" fill="white"/>
<path d="M89.6859 86.2863C89.6262 86.2851 89.5669 86.2773 89.5089 86.263C87.3196 85.718 82.9503 73.4906 82.7501 71.5016C82.5498 69.5126 81.1197 61.5054 81.1011 61.4216C81.0926 61.376 81.0979 61.329 81.1163 61.2864C81.1347 61.2439 81.1654 61.2078 81.2044 61.1828C81.2434 61.1578 81.289 61.145 81.3353 61.1461C81.3816 61.1471 81.4266 61.1619 81.4644 61.1887C89.2807 66.6013 94.5443 63.0798 94.5955 63.0519C94.6322 63.0302 94.674 63.0187 94.7166 63.0187C94.7592 63.0187 94.8011 63.0302 94.8377 63.0519C94.8754 63.0725 94.9069 63.1028 94.929 63.1397C94.9511 63.1765 94.963 63.2185 94.9635 63.2615C94.9635 63.5876 94.9635 71.3432 94.5443 73.2018C94.0784 75.2234 92.0615 83.3005 90.3008 85.9416C90.2356 86.0462 90.1451 86.1326 90.0376 86.1929C89.9301 86.2531 89.8091 86.2853 89.6859 86.2863ZM81.6508 61.8827C81.9768 63.7459 83.0482 69.6989 83.2019 71.455C83.4022 73.4626 87.818 85.364 89.6114 85.8111C89.6952 85.8111 89.793 85.8111 89.9048 85.6621C91.605 83.1048 93.6639 74.9486 94.0971 73.0853C94.4464 71.5156 94.4977 65.2971 94.5023 63.6481C93.1608 64.3329 88.3164 66.2566 81.6508 61.8827Z" fill="#263238"/>
<mask id="mask3_157_4906" style="mask-type:luminance" maskUnits="userSpaceOnUse" x="81" y="61" width="14" height="26">
<mask id="mask4_157_4906" style="mask-type:luminance" maskUnits="userSpaceOnUse" x="81" y="61" width="14" height="26">
<path d="M81.333 61.3796C81.333 61.3796 82.7723 69.4194 82.9819 71.4783C83.1916 73.5372 88.5111 88.1774 90.1041 85.7879C91.8416 83.184 93.9051 74.9858 94.2964 73.1273C94.6876 71.2687 94.7109 63.2382 94.7109 63.2382C94.7109 63.2382 89.3682 66.946 81.333 61.3796Z" fill="white"/>
</mask>
<g mask="url(#mask4_157_4906)">
<path d="M89.6854 86.2863C89.6257 86.2851 89.5664 86.2773 89.5084 86.263C87.3191 85.718 82.9499 73.4906 82.7496 71.5016C82.5493 69.5126 81.1193 61.5054 81.1006 61.4216C81.0921 61.376 81.0974 61.329 81.1158 61.2864C81.1342 61.2439 81.1649 61.2078 81.2039 61.1828C81.2429 61.1578 81.2885 61.145 81.3348 61.1461C81.3811 61.1471 81.4261 61.1619 81.464 61.1887C89.2802 66.6013 94.5438 63.0798 94.595 63.0519C94.6317 63.0302 94.6735 63.0187 94.7161 63.0187C94.7587 63.0187 94.8006 63.0302 94.8372 63.0519C94.8749 63.0725 94.9064 63.1028 94.9285 63.1397C94.9506 63.1765 94.9625 63.2185 94.963 63.2615C94.963 63.5876 94.963 71.3432 94.5438 73.2018C94.078 75.2234 92.061 83.3005 90.3003 85.9416C90.2351 86.0462 90.1446 86.1326 90.0371 86.1929C89.9296 86.2531 89.8086 86.2853 89.6854 86.2863ZM81.6503 61.8827C81.9763 63.7459 83.0477 69.6989 83.2014 71.455C83.4017 73.4626 87.8175 85.364 89.6109 85.8111C89.6947 85.8111 89.7926 85.8111 89.9043 85.6621C91.6045 83.1048 93.6634 74.9486 94.0966 73.0853C94.446 71.5156 94.4972 65.2971 94.5018 63.6481C93.1603 64.3329 88.3159 66.2566 81.6503 61.8827Z" fill="white"/>
</g>
</mask>
<g mask="url(#mask3_157_4906)">
<path d="M94.6462 68.5808C94.7301 65.9443 94.7301 63.238 94.7301 63.238C94.7301 63.238 89.3686 66.9644 81.3335 61.3748C81.3335 61.3748 81.9251 64.6866 82.4048 67.6026C83.5041 69 85.5956 71.2219 88.1762 71.6365C90.8266 72.065 92.9693 70.6583 94.6462 68.5808Z" fill="#92E3A9"/>
<path opacity="0.5" d="M94.6462 68.5808C94.7301 65.9443 94.7301 63.238 94.7301 63.238C94.7301 63.238 89.3686 66.9644 81.3335 61.3748C81.3335 61.3748 81.9251 64.6866 82.4048 67.6026C83.5041 69 85.5956 71.2219 88.1762 71.6365C90.8266 72.065 92.9693 70.6583 94.6462 68.5808Z" fill="white"/>
</g>
<path d="M99.0581 53.3445C99.0581 53.3445 101.322 50.4565 101.322 53.7544C101.322 57.0523 99.0581 57.4809 99.0581 57.4809V53.3445Z" fill="white"/>
<path d="M99.0582 57.6996C99.0033 57.7003 98.9501 57.6803 98.9091 57.6437C98.8821 57.6229 98.8604 57.5961 98.8458 57.5653C98.8312 57.5345 98.8242 57.5007 98.8253 57.4666V53.3443C98.8243 53.2923 98.8407 53.2415 98.8719 53.1999C99.0722 52.9483 100.097 51.7093 100.88 51.9795C101.345 52.1378 101.555 52.7201 101.555 53.7542C101.555 57.2058 99.1234 57.6902 99.1001 57.6949L99.0582 57.6996ZM99.2911 53.4235V57.1499C99.8547 56.9263 101.089 56.1577 101.089 53.7542C101.089 52.6642 100.838 52.4592 100.73 52.422C100.386 52.3055 99.6917 52.9344 99.2911 53.4235Z" fill="#263238"/>
<path d="M76.5923 46.5432C76.5923 46.5432 79.2707 58.6868 79.2707 60.3497C79.2707 63.8479 85.8665 67.77 88.7498 68.5945C91.6331 69.4189 98.6435 63.0281 99.0581 61.3791C99.4727 59.7302 99.673 45.3042 98.8485 42.4209C98.024 39.5375 93.2961 37.679 90.1938 37.679C87.0915 37.679 78.0363 39.3279 76.5923 46.5432Z" fill="white"/>
<path d="M89.3179 68.9024C89.1054 68.9045 88.8936 68.8763 88.6891 68.8185C85.8942 68.0174 79.0376 64.058 79.0376 60.3502C79.0376 58.7338 76.3918 46.7161 76.3638 46.595C76.3592 46.5625 76.3592 46.5296 76.3638 46.4971C77.8404 39.1095 87.0774 37.4465 90.1936 37.4465C93.3098 37.4465 98.2055 39.3098 99.0719 42.3561C99.9383 45.4025 99.6867 59.8192 99.2815 61.4541C98.9787 62.6699 95.583 66.0284 92.5273 67.7938C91.2324 68.5251 90.1563 68.9024 89.3179 68.9024ZM76.8296 46.5437C77.0393 47.4986 79.5034 58.7245 79.5034 60.3549C79.5034 63.69 85.9734 67.5609 88.8195 68.376C89.5881 68.5949 90.7898 68.2503 92.299 67.3792C95.3268 65.6324 98.5828 62.3299 98.8203 61.3237C99.2069 59.7726 99.4399 45.3652 98.6154 42.4866C97.8189 39.6917 93.0909 37.9123 90.1843 37.9123C87.1799 37.9123 78.2783 39.5007 76.8296 46.5391V46.5437Z" fill="#263238"/>
<mask id="mask5_157_4906" style="mask-type:luminance" maskUnits="userSpaceOnUse" x="76" y="37" width="24" height="32">
<mask id="mask6_157_4906" style="mask-type:luminance" maskUnits="userSpaceOnUse" x="76" y="37" width="24" height="32">
<path d="M76.5923 46.5432C76.5923 46.5432 79.2707 58.6868 79.2707 60.3497C79.2707 63.8479 85.8665 67.77 88.7498 68.5945C91.6331 69.4189 98.6435 63.0281 99.0581 61.3791C99.4727 59.7302 99.673 45.3042 98.8485 42.4209C98.024 39.5375 93.2961 37.679 90.1938 37.679C87.0915 37.679 78.0363 39.3279 76.5923 46.5432Z" fill="white"/>
</mask>
<g mask="url(#mask6_157_4906)">
<path d="M89.3179 68.9024C89.1054 68.9045 88.8936 68.8763 88.6891 68.8185C85.8942 68.0174 79.0376 64.058 79.0376 60.3502C79.0376 58.7338 76.3918 46.7161 76.3638 46.595C76.3592 46.5625 76.3592 46.5296 76.3638 46.4971C77.8404 39.1095 87.0774 37.4465 90.1936 37.4465C93.3098 37.4465 98.2055 39.3098 99.0719 42.3561C99.9383 45.4025 99.6867 59.8192 99.2815 61.4541C98.9787 62.6699 95.583 66.0284 92.5273 67.7938C91.2324 68.5251 90.1563 68.9024 89.3179 68.9024ZM76.8296 46.5437C77.0393 47.4986 79.5034 58.7245 79.5034 60.3549C79.5034 63.69 85.9734 67.5609 88.8195 68.376C89.5881 68.5949 90.7898 68.2503 92.299 67.3792C95.3268 65.6324 98.5828 62.3299 98.8203 61.3237C99.2069 59.7726 99.4399 45.3652 98.6154 42.4866C97.8189 39.6917 93.0909 37.9123 90.1843 37.9123C87.1799 37.9123 78.2783 39.5007 76.8296 46.5391V46.5437Z" fill="white"/>
</g>
</mask>
<g mask="url(#mask5_157_4906)">
<path d="M90.1938 37.679C87.1055 37.679 78.0363 39.3279 76.5923 46.5293C76.5923 46.5293 78.1947 53.7958 78.9213 57.8577C78.9213 55.9944 79.2474 52.4264 81.2503 50.8706C84.0172 48.7186 88.6334 48.4065 91.2465 47.1767C93.8597 45.947 94.4746 42.719 94.4746 42.719C94.4746 42.719 94.6283 48.4065 95.872 49.7946C97.1157 51.1827 98.3361 52.1236 98.4898 54.5598C98.6435 56.9959 99.1047 59.4787 97.8749 61.4816C96.6452 63.4846 91.5679 67.3228 89.2622 68.0914C88.9082 68.2125 88.5635 68.315 88.2374 68.4128C88.4191 68.478 88.5961 68.5386 88.7591 68.5852C91.6471 69.4096 98.6528 63.0188 99.0674 61.3698C99.482 59.7209 99.6823 45.2949 98.8578 42.4115C98.0333 39.5282 93.2961 37.679 90.1938 37.679Z" fill="#92E3A9"/>
<path d="M85.913 67.3744C84.7904 66.2425 81.7208 63.1076 80.3233 61.4913C79.9196 61.0308 79.5579 60.5351 79.2427 60.01C79.2427 60.1451 79.2427 60.2662 79.2427 60.35C79.2706 62.9353 82.8666 65.7487 85.913 67.3744Z" fill="#92E3A9"/>
<g opacity="0.5">
<path d="M90.1938 37.679C87.1055 37.679 78.0363 39.3279 76.5923 46.5293C76.5923 46.5293 78.1947 53.7958 78.9213 57.8577C78.9213 55.9944 79.2474 52.4264 81.2503 50.8706C84.0172 48.7186 88.6334 48.4065 91.2465 47.1767C93.8597 45.947 94.4746 42.719 94.4746 42.719C94.4746 42.719 94.6283 48.4065 95.872 49.7946C97.1157 51.1827 98.3361 52.1236 98.4898 54.5598C98.6435 56.9959 99.1047 59.4787 97.8749 61.4816C96.6452 63.4846 91.5679 67.3228 89.2622 68.0914C88.9082 68.2125 88.5635 68.315 88.2374 68.4128C88.4191 68.478 88.5961 68.5386 88.7591 68.5852C91.6471 69.4096 98.6528 63.0188 99.0674 61.3698C99.482 59.7209 99.6823 45.2949 98.8578 42.4115C98.0333 39.5282 93.2961 37.679 90.1938 37.679Z" fill="white"/>
<path d="M85.913 67.3744C84.7904 66.2425 81.7208 63.1076 80.3233 61.4913C79.9196 61.0308 79.5579 60.5351 79.2427 60.01C79.2427 60.1451 79.2427 60.2662 79.2427 60.35C79.2706 62.9353 82.8666 65.7487 85.913 67.3744Z" fill="white"/>
</g>
</g>
<path d="M87.2639 54.0012C87.2639 54.5788 87.0077 55.0446 86.6863 55.0446C86.3649 55.0446 86.104 54.5788 86.104 54.0012C86.104 53.4236 86.3649 52.9578 86.6863 52.9578C87.0077 52.9578 87.2639 53.4236 87.2639 54.0012Z" fill="#263238"/>
<path d="M94.0507 54.0012C94.0507 54.5788 93.7899 55.0446 93.4685 55.0446C93.1471 55.0446 92.8862 54.5788 92.8862 54.0012C92.8862 53.4236 93.1471 52.9578 93.4685 52.9578C93.7899 52.9578 94.0507 53.4236 94.0507 54.0012Z" fill="#263238"/>
<path d="M90.897 58.4121C90.8502 58.4128 90.8043 58.3988 90.7659 58.3721C90.7274 58.3454 90.6984 58.3072 90.6828 58.2631C90.6596 58.2062 90.6598 58.1425 90.6833 58.0858C90.7069 58.0291 90.7519 57.984 90.8085 57.9603C91.7401 57.597 93.0537 56.8796 93.1376 56.4324C93.1748 56.2601 93.1049 56.1995 92.5134 56.0691C92.0835 56.0105 91.6786 55.8331 91.3442 55.5567C90.6501 54.8627 91.2184 52.9156 91.2883 52.6967C91.3062 52.6349 91.3479 52.5828 91.4043 52.5518C91.4322 52.5364 91.4628 52.5267 91.4945 52.5232C91.5261 52.5197 91.5582 52.5225 91.5887 52.5313C91.6193 52.5402 91.6479 52.555 91.6727 52.5749C91.6976 52.5948 91.7183 52.6194 91.7337 52.6473C91.749 52.6752 91.7587 52.7058 91.7622 52.7375C91.7657 52.7692 91.763 52.8012 91.7541 52.8318C91.5305 53.5584 91.3162 54.8534 91.6936 55.2307C91.9661 55.436 92.287 55.5675 92.6252 55.6126C93.091 55.7198 93.7384 55.8642 93.6034 56.5442C93.4357 57.4013 91.3954 58.2537 90.9902 58.4075C90.9598 58.4158 90.928 58.4174 90.897 58.4121Z" fill="#263238"/>
<path d="M88.834 61.5147C88.3558 61.5427 87.8785 61.4473 87.4478 61.2376C87.0171 61.028 86.6475 60.7112 86.3745 60.3176C86.3572 60.2924 86.3451 60.2639 86.3391 60.234C86.333 60.204 86.3329 60.1731 86.339 60.1431C86.3451 60.1131 86.3572 60.0847 86.3745 60.0594C86.3918 60.0342 86.414 60.0127 86.4397 59.9962C86.4911 59.9625 86.5537 59.9504 86.6138 59.9627C86.674 59.9749 86.727 60.0104 86.7611 60.0614C87.8791 61.743 90.4876 60.7555 90.4876 60.7462C90.545 60.7233 90.6092 60.7242 90.666 60.7487C90.7228 60.7731 90.7675 60.8191 90.7903 60.8766C90.8132 60.934 90.8123 60.9982 90.7878 61.055C90.7634 61.1118 90.7174 61.1565 90.6599 61.1794C90.0739 61.391 89.4569 61.5043 88.834 61.5147Z" fill="#263238"/>
<path d="M84.5576 52.3799C84.5299 52.3843 84.5016 52.3843 84.4738 52.3799C84.4449 52.3691 84.4185 52.3526 84.396 52.3315C84.3736 52.3103 84.3555 52.2849 84.343 52.2568C84.3304 52.2286 84.3235 52.1982 84.3228 52.1674C84.3221 52.1365 84.3275 52.1059 84.3387 52.0771C84.5801 51.5069 85.0251 51.0469 85.5871 50.7868C85.9314 50.6533 86.2993 50.5911 86.6684 50.6039C87.0375 50.6167 87.4002 50.7043 87.7344 50.8614C87.7919 50.8842 87.8379 50.929 87.8624 50.9858C87.8868 51.0425 87.8877 51.1067 87.8649 51.1641C87.842 51.2216 87.7973 51.2676 87.7405 51.2921C87.6837 51.3165 87.6195 51.3174 87.5621 51.2946C87.285 51.1607 86.9837 51.0843 86.6763 51.0699C86.3689 51.0555 86.0618 51.1034 85.7734 51.2107C85.3265 51.4244 84.9711 51.7913 84.7719 52.2448C84.7541 52.2864 84.724 52.3215 84.6857 52.3456C84.6475 52.3697 84.6028 52.3817 84.5576 52.3799Z" fill="#263238"/>
<path d="M94.512 51.6158C94.4764 51.6154 94.4413 51.6072 94.4091 51.592C94.377 51.5767 94.3485 51.5546 94.3256 51.5273C93.8598 50.9451 93.436 50.6609 93.0167 50.6796C92.8142 50.7139 92.6211 50.7906 92.4502 50.9046C92.2792 51.0186 92.1342 51.1673 92.0246 51.341C91.9911 51.3926 91.9389 51.4293 91.8789 51.4432C91.819 51.4571 91.7559 51.4472 91.7032 51.4155C91.6766 51.3998 91.6536 51.3789 91.6354 51.354C91.6172 51.3291 91.6042 51.3008 91.5972 51.2708C91.5902 51.2407 91.5894 51.2096 91.5948 51.1792C91.6002 51.1489 91.6117 51.1199 91.6286 51.0941C91.7767 50.8564 91.9754 50.6543 92.2105 50.5022C92.4455 50.35 92.7113 50.2515 92.9888 50.2138C93.585 50.1812 94.1486 50.5305 94.6936 51.2432C94.7312 51.292 94.7479 51.3538 94.74 51.4149C94.7322 51.476 94.7004 51.5315 94.6517 51.5693C94.6116 51.5998 94.5624 51.6162 94.512 51.6158Z" fill="#263238"/>
<path d="M99.8829 39.3281C97.8427 36.999 95.6906 37.1388 94.405 37.6418C92.6629 34.7073 86.9055 32.3782 79.4992 35.2057C70.8446 38.5036 71.874 47.3679 72.2886 49.0168C72.7031 50.6658 75.5865 54.9931 77.4404 55.1981C77.4404 55.1981 79.0893 53.7541 79.0893 52.3147C79.0893 50.8754 83.0067 47.9874 86.9195 46.7483C89.3836 45.9704 92.09 44.5404 93.6551 42.7145C93.6261 43.9134 93.9344 45.0964 94.5448 46.1288C95.7838 47.992 97.6377 49.0168 97.6377 49.6363C97.6377 50.2559 98.6671 52.5197 99.5009 52.5197C100.335 52.5197 100.325 49.2218 100.53 47.7778C100.735 46.3338 102.766 42.626 99.8829 39.3281Z" fill="#263238"/>
<path d="M77.4171 55.4314H77.3891C75.3629 55.2032 72.4562 50.7315 72.037 49.0732C72.0137 48.9707 69.7359 38.6718 79.3968 34.9919C86.5282 32.2716 92.4393 34.1674 94.5028 37.3582C95.5555 37.0042 97.8566 36.6595 100.055 39.1748C102.463 41.9277 101.55 44.9508 100.987 46.7628C100.873 47.1059 100.781 47.456 100.712 47.8109C100.661 48.1602 100.624 48.6307 100.582 49.1244C100.405 51.3184 100.228 52.7531 99.4497 52.7531C98.4249 52.7531 97.3629 50.2936 97.3629 49.6368C97.3629 49.4412 96.8971 49.0033 96.4313 48.5841C95.6334 47.8975 94.9231 47.1153 94.3165 46.2551C93.7565 45.3606 93.4357 44.3373 93.3849 43.2832C91.9036 44.7878 89.542 46.1433 86.9288 46.9678C82.9788 48.2161 79.2617 51.0342 79.2617 52.3105C79.2617 53.8384 77.6034 55.3057 77.5335 55.3709C77.5013 55.4018 77.4609 55.4228 77.4171 55.4314ZM85.96 34.1674C83.7678 34.194 81.5989 34.6202 79.5598 35.4251C70.2763 38.9652 72.4656 48.8589 72.4889 48.9614C72.8988 50.601 75.6377 54.6163 77.3425 54.9517C77.6593 54.6535 78.8331 53.4611 78.8331 52.3152C78.8331 50.6989 82.867 47.7783 86.8263 46.5252C89.5979 45.6542 92.076 44.1683 93.4548 42.5612C93.4866 42.5253 93.5285 42.4998 93.5751 42.4882C93.6216 42.4765 93.6706 42.4793 93.7156 42.496C93.7598 42.513 93.7977 42.5431 93.8243 42.5822C93.8509 42.6213 93.865 42.6676 93.8647 42.7149C93.8353 43.8693 94.1307 45.0088 94.7171 46.0035C95.3039 46.8303 95.9907 47.5813 96.762 48.2394C97.4141 48.8403 97.8473 49.2362 97.8473 49.6368C97.8473 50.2377 98.8535 52.2872 99.4683 52.2872C99.8782 52.2872 100.06 50.0467 100.139 49.0872C100.176 48.5841 100.218 48.109 100.27 47.7456C100.341 47.367 100.437 46.9935 100.558 46.6277C101.108 44.8018 101.956 42.0395 99.7059 39.4823C97.6377 37.1206 95.5509 37.4513 94.4889 37.8613C94.437 37.8807 94.38 37.8811 94.3279 37.8623C94.2759 37.8435 94.2322 37.8068 94.2047 37.7588C93.1101 35.9235 90.1336 34.1674 85.96 34.1674Z" fill="#263238"/>
<path d="M75.6836 50.051H75.6417C75.5812 50.0397 75.5277 50.0049 75.4928 49.9543C75.4579 49.9037 75.4445 49.8414 75.4553 49.7809C75.5904 49.0589 76.0982 48.444 77.0111 47.8897C77.0642 47.8594 77.127 47.8513 77.186 47.8669C77.2451 47.8825 77.2956 47.9207 77.3268 47.9732C77.3579 48.0258 77.3672 48.0884 77.3526 48.1477C77.338 48.207 77.3007 48.2582 77.2487 48.2903C76.4615 48.7561 76.0236 49.2824 75.9118 49.8694C75.901 49.9215 75.8722 49.9682 75.8305 50.0014C75.7888 50.0346 75.7369 50.0521 75.6836 50.051Z" fill="white"/>
<path d="M78.6328 47.6057C78.5856 47.6054 78.5396 47.591 78.5006 47.5645C78.4616 47.5379 78.4314 47.5004 78.4138 47.4566C78.3926 47.3992 78.3949 47.3356 78.4202 47.2798C78.4455 47.224 78.4917 47.1804 78.5489 47.1585C80.1656 46.5852 81.8181 46.1184 83.4958 45.7611C84.7441 45.4723 85.9273 45.1928 86.9101 44.8807C90.5993 43.7069 92.6675 40.4928 92.6908 40.4649C92.7065 40.4384 92.7274 40.4153 92.7523 40.3971C92.7772 40.3789 92.8055 40.3659 92.8355 40.3589C92.8656 40.352 92.8967 40.3512 92.9271 40.3566C92.9574 40.362 92.9864 40.3735 93.0122 40.3904C93.064 40.4238 93.1005 40.4764 93.1136 40.5366C93.1266 40.5969 93.1153 40.6598 93.0821 40.7118C91.6123 42.8615 89.4889 44.4802 87.0266 45.3279C86.0298 45.6446 84.8373 45.9241 83.5796 46.2176C81.9235 46.5621 80.2913 47.0134 78.6933 47.5684C78.6749 47.5835 78.6545 47.596 78.6328 47.6057Z" fill="white"/>
<path d="M74.9897 43.4502C74.9429 43.4505 74.8971 43.4359 74.8593 43.4083C74.8082 43.3741 74.7727 43.3212 74.7605 43.261C74.7483 43.2008 74.7604 43.1382 74.7941 43.0869C75.2599 42.3649 76.5175 42.4161 78.3947 42.4906C79.917 42.5759 81.4432 42.5666 82.9643 42.4627C87.1985 42.1227 90.9808 39.5747 91.0181 39.5468C91.0694 39.513 91.132 39.501 91.1922 39.5132C91.2524 39.5254 91.3053 39.5609 91.3395 39.612C91.357 39.6369 91.3694 39.6651 91.3758 39.6949C91.3823 39.7247 91.3827 39.7555 91.377 39.7854C91.3714 39.8154 91.3598 39.8439 91.3429 39.8693C91.3261 39.8947 91.3043 39.9165 91.2789 39.9334C91.1206 40.0405 87.3568 42.5792 83.0016 42.9285C81.4619 43.0347 79.917 43.0441 78.3761 42.9565C76.7178 42.8912 75.5207 42.84 75.1807 43.3477C75.1598 43.3793 75.1315 43.4052 75.0981 43.4231C75.0648 43.441 75.0275 43.4503 74.9897 43.4502Z" fill="white"/>
<path d="M100.013 45.882C99.9826 45.8808 99.9525 45.8736 99.9247 45.8608C99.8969 45.8479 99.8719 45.8298 99.8511 45.8073C99.8304 45.7848 99.8143 45.7584 99.8037 45.7297C99.7931 45.7009 99.7883 45.6704 99.7896 45.6398C99.8106 45.064 99.7684 44.4876 99.6638 43.921C99.657 43.8909 99.6564 43.8599 99.6619 43.8296C99.6675 43.7993 99.6791 43.7705 99.696 43.7448C99.713 43.7191 99.735 43.6972 99.7607 43.6802C99.7864 43.6633 99.8152 43.6517 99.8455 43.6461C99.8758 43.6401 99.907 43.6401 99.9373 43.6462C99.9676 43.6523 99.9963 43.6644 100.022 43.6817C100.047 43.6991 100.069 43.7213 100.086 43.7472C100.103 43.7731 100.115 43.8021 100.12 43.8325C100.23 44.4346 100.276 45.0467 100.255 45.6584C100.254 45.689 100.247 45.7191 100.234 45.7469C100.221 45.7747 100.203 45.7997 100.181 45.8204C100.158 45.8412 100.132 45.8573 100.103 45.8679C100.074 45.8785 100.044 45.8833 100.013 45.882Z" fill="white"/>
<path d="M99.6311 43.1759C99.5825 43.1762 99.535 43.161 99.4956 43.1326C99.4563 43.1041 99.427 43.0638 99.4121 43.0175C99.1113 42.1887 98.6289 41.4377 98.0002 40.8195C97.3716 40.2013 96.6126 39.7316 95.7788 39.4448C95.7194 39.4274 95.669 39.3875 95.6386 39.3335C95.6081 39.2796 95.6 39.2159 95.6158 39.156C95.6244 39.1266 95.6386 39.0992 95.6578 39.0754C95.6769 39.0515 95.7006 39.0317 95.7274 39.017C95.7542 39.0023 95.7837 38.993 95.8141 38.9897C95.8445 38.9863 95.8753 38.989 95.9046 38.9976C96.8136 39.2983 97.6418 39.803 98.3257 40.4732C99.0095 41.1433 99.5309 41.961 99.85 42.8638C99.8603 42.8928 99.8647 42.9236 99.863 42.9544C99.8613 42.9851 99.8535 43.0153 99.84 43.043C99.8266 43.0707 99.8078 43.0955 99.7847 43.1159C99.7617 43.1363 99.7348 43.152 99.7056 43.1619C99.6818 43.1711 99.6565 43.1758 99.6311 43.1759Z" fill="white"/>
<path d="M84.6514 64.3187C84.0451 64.3423 83.4423 64.2176 82.8953 63.9553C81.1206 63.0237 77.967 58.8315 77.8366 58.6358C77.7996 58.5864 77.7836 58.5243 77.7924 58.4632C77.8011 58.402 77.8338 58.3468 77.8832 58.3098C77.9326 58.2727 77.9947 58.2568 78.0559 58.2655C78.117 58.2743 78.1722 58.3069 78.2093 58.3563C78.2419 58.3983 81.428 62.6557 83.1142 63.5454C84.8004 64.4351 87.9632 63.1961 87.9958 63.1821C88.0246 63.1711 88.0552 63.1658 88.086 63.1667C88.1168 63.1675 88.1471 63.1744 88.1752 63.1869C88.2033 63.1995 88.2287 63.2174 88.2499 63.2398C88.271 63.2621 88.2876 63.2884 88.2986 63.3172C88.3096 63.3459 88.3149 63.3766 88.314 63.4073C88.3132 63.4381 88.3063 63.4684 88.2938 63.4965C88.2812 63.5247 88.2633 63.55 88.2409 63.5712C88.2186 63.5924 88.1923 63.6089 88.1635 63.62C87.0369 64.0362 85.8516 64.272 84.6514 64.3187Z" fill="#263238"/>
<path d="M89.2343 63.4383C89.2343 63.8622 88.7126 64.2115 88.0744 64.2115C87.4363 64.2115 86.9146 63.8622 86.9146 63.4383C86.9146 63.0144 87.4316 62.665 88.0744 62.665C88.7172 62.665 89.2343 63.0097 89.2343 63.4383Z" fill="#263238"/>
<path d="M76.2059 52.5992C76.2059 52.5992 72.3816 42.6962 76.2059 36.7898C76.2059 36.7898 70.2948 42.8686 75.5118 53.992L76.2059 52.5992Z" fill="white"/>
<path d="M78.8564 55.8085C79.2057 58.1375 78.5722 60.1498 77.4357 60.3221C76.2991 60.4945 75.1066 58.7477 74.7526 56.4233C74.3986 54.099 75.0414 52.082 76.1733 51.9097C77.3052 51.7373 78.5256 53.4841 78.8564 55.8085Z" fill="white"/>
<path d="M77.2957 60.5553C76.0799 60.5553 74.8921 58.8178 74.5381 56.4516C74.3564 55.3952 74.4121 54.3116 74.7011 53.2794C74.9946 52.3478 75.5116 51.7655 76.1544 51.6724C77.4307 51.4814 78.7303 53.2748 79.103 55.7622C79.2823 56.8187 79.2266 57.9017 78.9399 58.9343C78.6418 59.8659 78.1295 60.4482 77.4866 60.5413C77.4234 60.5506 77.3596 60.5553 77.2957 60.5553ZM76.364 52.1242C76.3222 52.1196 76.2801 52.1196 76.2383 52.1242C75.7725 52.1894 75.3998 52.6599 75.1623 53.4098C74.8958 54.3745 74.8465 55.3863 75.0179 56.3724C75.3393 58.5244 76.4432 60.2246 77.4354 60.0709C77.9012 60.0056 78.2785 59.5352 78.5161 58.7852C78.7802 57.8202 78.8295 56.8089 78.6605 55.8227C78.3297 53.7732 77.3003 52.1335 76.3454 52.1335L76.364 52.1242Z" fill="#263238"/>
<path d="M76.8015 60.2523C77.809 60.1009 78.3425 58.0952 77.9933 55.7725C77.6441 53.4499 76.5444 51.6898 75.537 51.8412C74.5296 51.9927 73.996 53.9984 74.3452 56.321C74.6944 58.6437 75.7941 60.4038 76.8015 60.2523Z" fill="white"/>
<path d="M76.6714 60.499C76.1403 60.499 75.5954 60.0937 75.1249 59.3438C74.5909 58.4278 74.2456 57.4141 74.1094 56.3626C73.7321 53.8706 74.347 51.7884 75.5069 51.6161C76.6667 51.4437 77.8359 53.2557 78.2318 55.7431C78.4085 56.7886 78.3768 57.8587 78.1387 58.892C77.8871 59.8236 77.426 60.4012 76.8391 60.4897L76.6714 60.499ZM75.6466 52.0679H75.5674C74.8128 52.1797 74.2166 53.9311 74.5706 56.2602C74.6947 57.2439 75.0113 58.1935 75.5022 59.055C75.9121 59.7025 76.3593 60.0425 76.7459 59.9866C77.1325 59.9307 77.4679 59.4696 77.6775 58.7289C77.9008 57.7582 77.9293 56.7529 77.7614 55.7711C77.4213 53.5678 76.3965 52.0679 75.6466 52.0679Z" fill="#263238"/>
<path d="M114.104 72.303L119.475 114.761L108.747 114.552L114.104 72.303Z" fill="#92E3A9"/>
<path d="M119.475 114.994L108.761 114.784C108.728 114.784 108.696 114.777 108.666 114.763C108.637 114.749 108.61 114.73 108.589 114.705C108.568 114.68 108.553 114.651 108.544 114.62C108.535 114.588 108.533 114.556 108.538 114.523L113.89 72.2748C113.896 72.218 113.924 72.1657 113.967 72.1279C114.01 72.0901 114.065 72.0694 114.123 72.0698C114.179 72.0706 114.233 72.0917 114.275 72.1294C114.317 72.1671 114.344 72.2188 114.351 72.2748L119.722 114.728C119.727 114.762 119.725 114.796 119.715 114.828C119.705 114.86 119.688 114.89 119.666 114.915C119.642 114.942 119.613 114.963 119.579 114.977C119.546 114.99 119.51 114.996 119.475 114.994ZM109.013 114.323L119.209 114.523L114.085 74.1566L109.013 114.323Z" fill="#263238"/>
<mask id="mask7_157_4906" style="mask-type:luminance" maskUnits="userSpaceOnUse" x="108" y="72" width="12" height="43">
<mask id="mask8_157_4906" style="mask-type:luminance" maskUnits="userSpaceOnUse" x="108" y="72" width="12" height="43">
<path d="M114.104 72.303L119.475 114.761L108.747 114.552L114.104 72.303Z" fill="white"/>
</mask>
<g mask="url(#mask8_157_4906)">
<path d="M119.475 114.994L108.761 114.784C108.728 114.784 108.696 114.777 108.666 114.763C108.637 114.749 108.61 114.73 108.589 114.705C108.568 114.68 108.553 114.651 108.544 114.62C108.535 114.588 108.533 114.556 108.538 114.523L113.89 72.2748C113.896 72.218 113.924 72.1657 113.967 72.1279C114.01 72.0901 114.065 72.0694 114.123 72.0698C114.179 72.0706 114.233 72.0917 114.275 72.1294C114.317 72.1671 114.344 72.2188 114.351 72.2748L119.722 114.728C119.727 114.762 119.725 114.796 119.715 114.828C119.705 114.86 119.688 114.89 119.666 114.915C119.642 114.942 119.613 114.963 119.579 114.977C119.546 114.99 119.51 114.996 119.475 114.994ZM109.013 114.323L119.209 114.523L114.085 74.1566L109.013 114.323Z" fill="white"/>
</g>
</mask>
<g mask="url(#mask7_157_4906)">
<path opacity="0.3" d="M117.029 95.4577L111.444 98.8115L111.537 92.5371L108.747 114.551L119.475 114.761L118.594 107.825L113.913 107.979L118.068 103.661L118.035 103.376L112.324 105.333L117.49 99.077L117.029 95.4577Z" fill="black"/>
</g>
<path d="M75.7258 59.7816C75.7258 59.7816 77.3096 59.2273 77.6543 59.8375C77.9989 60.4477 78.3995 63.0982 78.3902 63.4755C78.3809 63.8528 78.2505 64.1975 77.5331 63.9413C76.8158 63.6851 75.6699 61.3514 75.6699 61.3514L75.7258 59.7816Z" fill="white"/>
<path d="M77.9575 64.2814C77.7852 64.2767 77.6149 64.242 77.4545 64.1789C76.6905 63.8947 75.6658 61.8778 75.4701 61.4726C75.4631 61.4372 75.4631 61.4008 75.4701 61.3654L75.5167 59.8003C75.5177 59.7532 75.5329 59.7076 75.5603 59.6693C75.5878 59.6311 75.6261 59.602 75.6704 59.586C75.9685 59.4836 77.4591 59.0038 77.8783 59.7491C78.2463 60.3965 78.6609 63.1168 78.6469 63.5081C78.6535 63.6339 78.6309 63.7595 78.5808 63.8751C78.5307 63.9907 78.4544 64.0931 78.3581 64.1742C78.2391 64.2511 78.099 64.2885 77.9575 64.2814ZM75.9126 61.3188C76.3458 62.1899 77.1657 63.5733 77.6128 63.741C77.9342 63.8575 78.046 63.8062 78.0786 63.7876C78.1112 63.769 78.1625 63.6525 78.1671 63.4942C78.1671 63.1727 77.7805 60.5503 77.4591 59.9773C77.3054 59.6978 76.5275 59.805 75.9639 59.9773L75.9126 61.3188Z" fill="#263238"/>
<path d="M68.7945 68.1847C68.7945 68.1847 70.2618 58.7522 70.2944 57.7274C70.327 56.7026 71.6918 55.8642 72.3439 55.6126C72.996 55.3611 76.7225 55.4822 77.1184 55.4962C77.5143 55.5102 79.1074 55.4263 79.0934 55.962C79.0795 56.4977 78.9397 56.7259 77.6075 56.9402C76.2753 57.1545 73.0892 57.3221 73.0892 57.3221L72.2554 58.5798L76.2101 59.3344C76.2101 59.3344 77.1417 59.7443 76.974 60.3825C76.8063 61.0206 76.3452 63.8201 76.3359 64.2021C76.3265 64.5841 75.9166 64.8309 74.9711 65.4458C74.4066 65.8109 73.7719 66.0537 73.1078 66.1585C73.1078 66.1585 73.1824 68.0822 72.642 68.3198L71.2958 68.9207L71.1095 79.9277L65.0308 79.2383L68.7945 68.1847Z" fill="white"/>
<path d="M71.1051 80.1187H71.0771L65.0216 79.4294C64.9868 79.4253 64.9533 79.4136 64.9235 79.3951C64.8937 79.3766 64.8683 79.3517 64.8493 79.3222C64.8344 79.2909 64.8267 79.2567 64.8267 79.2221C64.8267 79.1874 64.8344 79.1532 64.8493 79.1219L68.613 68.1103C68.6875 67.6445 70.0756 58.6777 70.1036 57.7042C70.1362 56.5304 71.6314 55.6127 72.3068 55.3752C72.9823 55.1376 75.9215 55.2075 77.1652 55.2447H77.3748C78.148 55.2447 78.9259 55.268 79.238 55.5848C79.2823 55.6294 79.3171 55.6825 79.3404 55.741C79.3636 55.7994 79.3747 55.8619 79.3731 55.9248C79.3731 56.6608 78.9912 56.917 77.6916 57.1312C76.4898 57.3269 73.8626 57.4759 73.2664 57.5085L72.6935 58.3749L76.3035 59.0643H76.3547C76.3966 59.0643 77.4447 59.5627 77.249 60.3779C77.086 61.0626 76.6249 63.8155 76.6155 64.1556C76.6155 64.6214 76.1823 64.9149 75.2694 65.5064L75.1483 65.5856C74.6088 65.93 74.0102 66.1716 73.3829 66.2983C73.3829 66.9318 73.3363 68.2267 72.7773 68.4783L71.5709 69.0186L71.3845 79.8765C71.3836 79.9091 71.3761 79.9412 71.3625 79.9708C71.3489 80.0004 71.3295 80.027 71.3054 80.0489C71.2799 80.0755 71.2484 80.0958 71.2136 80.1079C71.1788 80.1201 71.1416 80.1238 71.1051 80.1187ZM65.3477 79.0194L70.8768 79.6529L71.0585 68.9021C71.0601 68.8583 71.0741 68.8158 71.0988 68.7795C71.1235 68.7433 71.158 68.7147 71.1982 68.6972L72.5397 68.0963C72.7726 67.9892 72.8984 66.9877 72.8658 66.1539C72.863 66.0951 72.8826 66.0374 72.9207 65.9925C72.9587 65.9475 73.0123 65.9187 73.0708 65.9117C73.7032 65.8138 74.308 65.5837 74.8455 65.2363L74.9713 65.1571C75.7678 64.6354 76.0938 64.4164 76.1032 64.1835C76.1032 63.755 76.6109 60.9229 76.7506 60.3127C76.8438 59.9214 76.2848 59.6047 76.1404 59.5441L72.2137 58.7942C72.1758 58.7867 72.1402 58.77 72.1102 58.7456C72.0802 58.7213 72.0565 58.69 72.0413 58.6544C72.0241 58.6205 72.0152 58.583 72.0152 58.545C72.0152 58.5069 72.0241 58.4694 72.0413 58.4355L72.8705 57.1778C72.8919 57.1479 72.9198 57.1232 72.952 57.1055C72.9843 57.0878 73.0201 57.0775 73.0568 57.0753C73.0847 57.0753 76.2429 56.9123 77.5472 56.698C78.8514 56.4838 78.8281 56.2835 78.8374 55.9388C78.7955 55.8689 78.544 55.7385 77.3375 55.7385H77.086C75.2228 55.6826 72.8611 55.6779 72.4 55.841C71.7712 56.0645 70.5368 56.875 70.5042 57.7461C70.4716 58.7709 69.0648 67.8448 69.0043 68.2314C69.0043 68.2314 69.0043 68.2593 69.0043 68.2686L65.3477 79.0194Z" fill="#263238"/>
<path d="M76.6575 61.1279H76.6156L71.8178 60.2662C71.756 60.2551 71.7012 60.2199 71.6654 60.1683C71.6295 60.1168 71.6157 60.0531 71.6268 59.9913C71.6379 59.9296 71.6731 59.8748 71.7246 59.8389C71.7762 59.8031 71.8399 59.7893 71.9016 59.8004L76.6994 60.6668C76.7612 60.6723 76.8182 60.7022 76.858 60.7498C76.8977 60.7974 76.9169 60.8589 76.9114 60.9206C76.9058 60.9824 76.8759 61.0394 76.8283 61.0792C76.7807 61.1189 76.7193 61.1381 76.6575 61.1326V61.1279Z" fill="#263238"/>
<path d="M76.1125 63.2801H76.0612L72.1112 62.3205C72.0494 62.3063 71.9958 62.2682 71.9622 62.2144C71.9286 62.1607 71.9177 62.0958 71.9319 62.0341C71.9461 61.9723 71.9842 61.9187 72.038 61.8851C72.0917 61.8514 72.1566 61.8405 72.2183 61.8547L76.173 62.8143C76.2029 62.8208 76.2311 62.8333 76.2559 62.8511C76.2807 62.8689 76.3016 62.8916 76.3173 62.9177C76.333 62.9439 76.3432 62.9731 76.3472 63.0033C76.3513 63.0336 76.349 63.0644 76.3407 63.0938C76.3308 63.1468 76.3025 63.1946 76.2607 63.2287C76.2189 63.2628 76.1664 63.281 76.1125 63.2801Z" fill="#263238"/>
<path d="M73.0986 66.3683C73.0594 66.3692 73.0208 66.3597 72.9864 66.3409C72.9521 66.3221 72.9233 66.2946 72.9029 66.2612C72.7352 66.0004 72.3579 65.3622 72.4837 65.0128C72.5035 64.9573 72.5362 64.9071 72.5791 64.8667C72.622 64.8262 72.6739 64.7964 72.7306 64.7799C73.0986 64.6682 73.9556 64.4492 73.9556 64.4492L74.0721 64.915C74.0721 64.915 73.3082 65.1107 72.9215 65.2225C72.9989 65.5089 73.1249 65.7799 73.2942 66.0236C73.3275 66.0756 73.3388 66.1385 73.3257 66.1988C73.3126 66.259 73.2761 66.3116 73.2243 66.345C73.185 66.3631 73.1418 66.3711 73.0986 66.3683Z" fill="#263238"/>
<path d="M65.576 73.5369L72.1439 76.015C72.1439 76.015 67.5697 104.727 66.4704 106.982C65.3711 109.236 62.7998 111.854 59.4833 112.171C56.1668 112.488 53.7678 108.91 53.67 105.151C53.5722 101.392 65.576 73.5369 65.576 73.5369Z" fill="#92E3A9"/>
<path d="M59.0598 112.423C57.9141 112.412 56.8134 111.975 55.9715 111.198C54.4623 109.856 53.4841 107.546 53.4235 105.142C53.3211 101.393 64.873 74.567 65.3621 73.4258C65.3867 73.3711 65.4314 73.328 65.4869 73.3055C65.5424 73.2829 65.6045 73.2826 65.6602 73.3047L72.2281 75.7781C72.2785 75.7959 72.321 75.8309 72.3482 75.8769C72.3754 75.9228 72.3857 75.9769 72.3772 76.0296C72.1908 77.2035 67.7843 104.807 66.6757 107.062C65.4926 109.484 62.8095 112.069 59.4883 112.386C59.3486 112.418 59.2042 112.423 59.0598 112.423ZM65.7022 73.8357C64.6122 76.379 53.7962 101.668 53.8893 105.147C53.9452 107.406 54.8629 109.591 56.2836 110.849C56.704 111.243 57.2032 111.544 57.7483 111.732C58.2934 111.92 58.8721 111.99 59.4464 111.939C62.5859 111.64 65.1292 109.181 66.2611 106.88C67.2906 104.779 71.4875 78.6521 71.8881 76.1647L65.7022 73.8357Z" fill="#263238"/>
<mask id="mask9_157_4906" style="mask-type:luminance" maskUnits="userSpaceOnUse" x="53" y="73" width="20" height="40">
<mask id="mask10_157_4906" style="mask-type:luminance" maskUnits="userSpaceOnUse" x="53" y="73" width="20" height="40">
<path d="M65.5775 73.5374L72.1453 76.0154C72.1453 76.0154 67.5711 104.728 66.4718 106.982C65.3725 109.237 62.8013 111.855 59.4848 112.171C56.1682 112.488 53.7693 108.911 53.6715 105.152C53.5737 101.393 65.5775 73.5374 65.5775 73.5374Z" fill="white"/>
</mask>
<g mask="url(#mask10_157_4906)">
<path d="M59.0608 112.423C57.915 112.411 56.8144 111.975 55.9725 111.198C54.4633 109.856 53.4851 107.546 53.4245 105.142C53.322 101.392 64.874 74.5668 65.3631 73.4255C65.3877 73.3709 65.4324 73.3278 65.4879 73.3052C65.5434 73.2827 65.6055 73.2824 65.6612 73.3044L72.2291 75.7778C72.2794 75.7957 72.3219 75.8306 72.3492 75.8766C72.3764 75.9226 72.3867 75.9766 72.3781 76.0294C72.1918 77.2032 67.7853 104.807 66.6767 107.061C65.4935 109.484 62.8105 112.069 59.4893 112.386C59.3496 112.418 59.2052 112.423 59.0608 112.423ZM65.7031 73.8354C64.6132 76.3787 53.7972 101.667 53.8903 105.147C53.9462 107.406 54.8638 109.591 56.2846 110.848C56.705 111.243 57.2041 111.544 57.7493 111.732C58.2944 111.92 58.8731 111.99 59.4474 111.938C62.5869 111.64 65.1302 109.181 66.2621 106.88C67.2915 104.779 71.4884 78.6519 71.889 76.1645L65.7031 73.8354Z" fill="white"/>
</g>
</mask>
<g mask="url(#mask9_157_4906)">
<path opacity="0.3" d="M60.1406 97.5776C58.5384 98.3946 56.8656 99.065 55.1425 99.5805C54.551 101.299 54.0991 102.757 53.8569 103.801L56.9638 103.409C59.1775 103.154 61.3613 102.686 63.4851 102.012C63.4851 102.012 58.3613 105.184 53.7917 105.715H53.6846C53.9873 109.246 56.2977 112.488 59.4652 112.185C62.7957 111.868 65.3623 109.246 66.4523 106.996C66.9926 105.888 68.3714 98.4067 69.6337 91.0796C66.7075 93.5744 63.5254 95.7526 60.1406 97.5776Z" fill="black"/>
</g>
</g>
<path d="M130.435 24.2215V22.9452C130.435 22.7648 130.363 22.5919 130.236 22.4643C130.108 22.3368 129.935 22.2651 129.755 22.2651H128.772C128.623 21.622 128.368 21.0082 128.017 20.4485L128.711 19.7498C128.838 19.6216 128.91 19.4483 128.91 19.2677C128.91 19.0871 128.838 18.9138 128.711 18.7856L127.812 17.8866C127.684 17.7594 127.511 17.6881 127.33 17.6881C127.15 17.6881 126.976 17.7594 126.848 17.8866L126.149 18.5806C125.59 18.2304 124.976 17.9754 124.333 17.826V16.8432C124.333 16.6628 124.261 16.4898 124.134 16.3623C124.006 16.2347 123.833 16.1631 123.653 16.1631H122.376C122.196 16.1631 122.023 16.2347 121.895 16.3623C121.768 16.4898 121.696 16.6628 121.696 16.8432V17.826C121.053 17.9754 120.439 18.2304 119.88 18.5806L119.181 17.8866C119.053 17.7594 118.879 17.6881 118.699 17.6881C118.518 17.6881 118.345 17.7594 118.217 17.8866L117.318 18.7856C117.191 18.9138 117.119 19.0871 117.119 19.2677C117.119 19.4483 117.191 19.6216 117.318 19.7498L118.012 20.4485C117.661 21.0074 117.408 21.6216 117.262 22.2651H116.274C116.094 22.2651 115.921 22.3368 115.793 22.4643C115.666 22.5919 115.594 22.7648 115.594 22.9452V24.2215C115.594 24.4019 115.666 24.5749 115.793 24.7024C115.921 24.83 116.094 24.9016 116.274 24.9016H117.262C117.408 25.5451 117.661 26.1593 118.012 26.7182L117.318 27.417C117.191 27.5452 117.119 27.7185 117.119 27.8991C117.119 28.0797 117.191 28.2529 117.318 28.3812L118.217 29.2802C118.345 29.4073 118.518 29.4787 118.699 29.4787C118.879 29.4787 119.053 29.4073 119.181 29.2802L119.88 28.5861C120.442 28.9415 121.061 29.1982 121.71 29.3454V30.3329C121.71 30.5133 121.782 30.6862 121.909 30.8138C122.037 30.9413 122.21 31.013 122.39 31.013H123.667C123.847 31.013 124.02 30.9413 124.148 30.8138C124.275 30.6862 124.347 30.5133 124.347 30.3329V29.3454C124.99 29.1996 125.604 28.9461 126.163 28.5954L126.862 29.2895C126.99 29.4166 127.164 29.488 127.344 29.488C127.525 29.488 127.698 29.4166 127.826 29.2895L128.697 28.4138C128.825 28.2855 128.896 28.1123 128.896 27.9317C128.896 27.7511 128.825 27.5778 128.697 27.4496L128.003 26.7508C128.354 26.1912 128.609 25.5773 128.758 24.9342H129.741C129.834 24.9362 129.927 24.919 130.013 24.8837C130.099 24.8483 130.178 24.7956 130.243 24.7288C130.308 24.6619 130.358 24.5824 130.392 24.4951C130.425 24.4079 130.439 24.3147 130.435 24.2215ZM123.313 26.4853C122.713 26.5494 122.108 26.4259 121.581 26.1318C121.055 25.8377 120.632 25.3876 120.372 24.8434C120.112 24.2992 120.027 23.6877 120.129 23.0933C120.231 22.4988 120.515 21.9505 120.941 21.524C121.368 21.0975 121.916 20.8137 122.51 20.7118C123.105 20.6099 123.716 20.6949 124.261 20.955C124.805 21.2151 125.255 21.6376 125.549 22.1642C125.843 22.6909 125.967 23.2957 125.903 23.8955C125.834 24.5603 125.539 25.1815 125.068 25.6554C124.597 26.1293 123.977 26.4272 123.313 26.4993V26.4853Z" fill="#263238"/>
<path d="M11.1887 79.8673V78.9078C11.1887 78.7706 11.1342 78.6391 11.0372 78.5422C10.9402 78.4452 10.8087 78.3907 10.6716 78.3907H9.917C9.80485 77.9059 9.6128 77.4431 9.34872 77.0212L9.87508 76.4995C9.92297 76.4519 9.96096 76.3953 9.98689 76.333C10.0128 76.2706 10.0262 76.2037 10.0262 76.1362C10.0262 76.0687 10.0128 76.0018 9.98689 75.9395C9.96096 75.8771 9.92297 75.8205 9.87508 75.7729L9.195 75.0928C9.14738 75.0449 9.09077 75.0069 9.02842 74.981C8.96607 74.9551 8.8992 74.9417 8.83167 74.9417C8.76414 74.9417 8.69728 74.9551 8.63493 74.981C8.57257 75.0069 8.51596 75.0449 8.46835 75.0928L7.94199 75.6145C7.52077 75.3503 7.05767 75.1597 6.57252 75.0509V74.3056C6.57252 74.1697 6.51853 74.0394 6.42244 73.9433C6.32635 73.8472 6.19602 73.7932 6.06013 73.7932H5.11455C4.97822 73.7932 4.84741 73.847 4.75058 73.943C4.65374 74.039 4.59873 74.1693 4.5975 74.3056V75.0509C4.11235 75.1597 3.64925 75.3503 3.22803 75.6145L2.70167 75.0928C2.65406 75.0449 2.59745 75.0069 2.53509 74.981C2.47274 74.9551 2.40588 74.9417 2.33835 74.9417C2.27082 74.9417 2.20395 74.9551 2.1416 74.981C2.07924 75.0069 2.02263 75.0449 1.97501 75.0928L1.2996 75.7729C1.25115 75.8202 1.21264 75.8767 1.18636 75.9391C1.16007 76.0015 1.14652 76.0685 1.14652 76.1362C1.14652 76.2039 1.16007 76.2709 1.18636 76.3333C1.21264 76.3957 1.25115 76.4522 1.2996 76.4995L1.8213 77.0212C1.55722 77.4431 1.36517 77.9059 1.25302 78.3907H0.512385C0.376066 78.3919 0.245749 78.447 0.14979 78.5438C0.0538303 78.6406 -5.53192e-06 78.7714 4.26348e-10 78.9078V79.8673C4.26348e-10 80.0032 0.053983 80.1335 0.150074 80.2296C0.246165 80.3257 0.376492 80.3797 0.512385 80.3797H1.25302C1.36348 80.8651 1.55564 81.3282 1.8213 81.7492L1.2996 82.2755C1.25115 82.3228 1.21264 82.3793 1.18636 82.4417C1.16007 82.5041 1.14652 82.5712 1.14652 82.6389C1.14652 82.7066 1.16007 82.7736 1.18636 82.836C1.21264 82.8984 1.25115 82.9549 1.2996 83.0022L1.99831 83.6823C2.04592 83.7301 2.10253 83.7682 2.16489 83.7941C2.22724 83.82 2.2941 83.8334 2.36163 83.8334C2.42916 83.8334 2.49603 83.82 2.55838 83.7941C2.62073 83.7682 2.67735 83.7301 2.72496 83.6823L3.25132 83.1559C3.67231 83.4216 4.1354 83.6137 4.62079 83.7242V84.4648C4.62079 84.6019 4.67526 84.7335 4.77223 84.8304C4.86919 84.9274 5.00071 84.9819 5.13784 84.9819H6.0974C6.23372 84.9806 6.36403 84.9256 6.45999 84.8288C6.55595 84.732 6.60979 84.6011 6.60978 84.4648V83.7242C7.09518 83.6137 7.55826 83.4216 7.97925 83.1559L8.50561 83.6823C8.55323 83.7301 8.60984 83.7682 8.67219 83.7941C8.73455 83.82 8.80141 83.8334 8.86894 83.8334C8.93647 83.8334 9.00333 83.82 9.06569 83.7941C9.12804 83.7682 9.18465 83.7301 9.23227 83.6823L9.91234 83.0022C9.96023 82.9546 9.99823 82.898 10.0242 82.8356C10.0501 82.7732 10.0634 82.7064 10.0634 82.6389C10.0634 82.5713 10.0501 82.5045 10.0242 82.4421C9.99823 82.3798 9.96023 82.3232 9.91234 82.2755L9.38598 81.7492C9.65164 81.3282 9.84381 80.8651 9.95427 80.3797H10.6949C10.8271 80.3737 10.9521 80.3173 11.0439 80.222C11.1358 80.1266 11.1876 79.9997 11.1887 79.8673ZM5.81791 81.5722C5.36618 81.6188 4.91108 81.5245 4.51515 81.302C4.11921 81.0796 3.80187 80.74 3.60672 80.33C3.41157 79.9199 3.3482 79.4594 3.42531 79.0119C3.50242 78.5644 3.71622 78.1517 4.03734 77.8306C4.35847 77.5094 4.77115 77.2956 5.21869 77.2185C5.66623 77.1414 6.12667 77.2048 6.53674 77.3999C6.94682 77.5951 7.2864 77.9124 7.50883 78.3084C7.73126 78.7043 7.82562 79.1594 7.77896 79.6111C7.72706 80.1135 7.50377 80.5827 7.14664 80.9398C6.7895 81.297 6.3203 81.5203 5.81791 81.5722Z" fill="#263238"/>
<path d="M154 67.0762V66.1166C154 65.9795 153.946 65.848 153.849 65.751C153.752 65.654 153.62 65.5996 153.483 65.5996H152.743C152.632 65.1142 152.44 64.6511 152.174 64.2301L152.701 63.7084C152.748 63.6608 152.786 63.6042 152.812 63.5418C152.838 63.4795 152.852 63.4126 152.852 63.3451C152.852 63.2775 152.838 63.2107 152.812 63.1483C152.786 63.086 152.748 63.0294 152.701 62.9817L152.021 62.3017C151.973 62.2538 151.916 62.2158 151.854 62.1899C151.792 62.1639 151.725 62.1506 151.657 62.1506C151.59 62.1506 151.523 62.1639 151.46 62.1899C151.398 62.2158 151.341 62.2538 151.294 62.3017L150.767 62.8234C150.346 62.5596 149.883 62.3676 149.398 62.2551V61.4865C149.398 61.4192 149.385 61.3526 149.359 61.2904C149.333 61.2283 149.296 61.1718 149.248 61.1242C149.2 61.0766 149.144 61.0389 149.082 61.0131C149.02 60.9874 148.953 60.9741 148.886 60.9741H147.921C147.786 60.9741 147.655 61.0281 147.559 61.1242C147.463 61.2203 147.409 61.3506 147.409 61.4865V62.2271C146.924 62.3396 146.462 62.5316 146.04 62.7954L145.513 62.2737C145.466 62.2258 145.409 62.1878 145.347 62.1619C145.284 62.136 145.217 62.1226 145.15 62.1226C145.082 62.1226 145.015 62.136 144.953 62.1619C144.891 62.1878 144.834 62.2258 144.787 62.2737L144.111 62.9538C144.063 63.0011 144.024 63.0576 143.998 63.12C143.972 63.1824 143.958 63.2494 143.958 63.3171C143.958 63.3848 143.972 63.4519 143.998 63.5143C144.024 63.5766 144.063 63.6332 144.111 63.6805L144.633 64.2022C144.367 64.6231 144.175 65.0862 144.065 65.5716H143.324C143.188 65.5729 143.057 65.6279 142.961 65.7247C142.865 65.8215 142.812 65.9523 142.812 66.0887V67.0762C142.812 67.2121 142.866 67.3424 142.962 67.4385C143.058 67.5346 143.188 67.5886 143.324 67.5886H144.069C144.18 68.074 144.372 68.537 144.637 68.958L144.116 69.4844C144.067 69.5317 144.029 69.5882 144.003 69.6506C143.976 69.713 143.963 69.78 143.963 69.8477C143.963 69.9154 143.976 69.9825 144.003 70.0448C144.029 70.1072 144.067 70.1638 144.116 70.211L144.791 70.8911C144.839 70.939 144.895 70.977 144.958 71.0029C145.02 71.0289 145.087 71.0422 145.155 71.0422C145.222 71.0422 145.289 71.0289 145.351 71.0029C145.414 70.977 145.47 70.939 145.518 70.8911L146.044 70.3648C146.465 70.6304 146.928 70.8226 147.414 70.933V71.6737C147.414 71.81 147.468 71.9408 147.563 72.0376C147.659 72.1345 147.79 72.1895 147.926 72.1907H148.89C149.027 72.1895 149.157 72.1345 149.253 72.0376C149.349 71.9408 149.403 71.81 149.403 71.6737V70.933C149.888 70.8226 150.351 70.6304 150.772 70.3648L151.299 70.8911C151.346 70.939 151.403 70.977 151.465 71.0029C151.527 71.0289 151.594 71.0422 151.662 71.0422C151.729 71.0422 151.796 71.0289 151.859 71.0029C151.921 70.977 151.978 70.939 152.025 70.8911L152.705 70.211C152.753 70.1634 152.791 70.1068 152.817 70.0445C152.843 69.9821 152.856 69.9152 152.856 69.8477C152.856 69.7802 152.843 69.7133 152.817 69.651C152.791 69.5886 152.753 69.532 152.705 69.4844L152.174 68.9394C152.44 68.5184 152.632 68.0553 152.743 67.5699H153.483C153.616 67.5701 153.744 67.5188 153.841 67.4268C153.937 67.3348 153.994 67.2092 154 67.0762ZM148.629 68.781C148.178 68.8277 147.723 68.7333 147.327 68.5109C146.931 68.2885 146.613 67.9489 146.418 67.5388C146.223 67.1287 146.16 66.6683 146.237 66.2208C146.314 65.7732 146.528 65.3605 146.849 65.0394C147.17 64.7183 147.583 64.5045 148.03 64.4274C148.478 64.3503 148.938 64.4136 149.348 64.6088C149.758 64.8039 150.098 65.1213 150.32 65.5172C150.543 65.9132 150.637 66.3682 150.59 66.82C150.537 67.3207 150.312 67.7877 149.955 68.143C149.599 68.4982 149.13 68.7202 148.629 68.7717V68.781Z" fill="#263238"/>
<path d="M75.4975 4.56471V4.07095C75.4975 4.0363 75.4906 4.002 75.4772 3.97004C75.4638 3.93808 75.4442 3.90912 75.4194 3.88483C75.3947 3.86055 75.3654 3.84143 75.3332 3.8286C75.301 3.81577 75.2666 3.80948 75.232 3.8101H74.8547C74.7961 3.56112 74.697 3.32348 74.5612 3.10673L74.8314 2.84122C74.8803 2.79155 74.9077 2.72462 74.9077 2.6549C74.9077 2.58518 74.8803 2.51825 74.8314 2.46858L74.482 2.11923C74.4331 2.07059 74.367 2.04328 74.298 2.04328C74.2291 2.04328 74.1629 2.07059 74.114 2.11923L73.8439 2.38939C73.6271 2.25362 73.3895 2.15447 73.1405 2.09594V1.71863C73.1405 1.64902 73.1132 1.58218 73.0644 1.53252C73.0156 1.48286 72.9493 1.45435 72.8796 1.45312H72.3859C72.3163 1.45435 72.2499 1.48286 72.2011 1.53252C72.1524 1.58218 72.125 1.64902 72.125 1.71863V2.09594C71.8759 2.1539 71.6381 2.25308 71.4217 2.38939L71.1515 2.11923C71.1018 2.0703 71.0349 2.04287 70.9652 2.04287C70.8955 2.04287 70.8285 2.0703 70.7789 2.11923L70.4342 2.46858C70.3852 2.51825 70.3578 2.58518 70.3578 2.6549C70.3578 2.72462 70.3852 2.79155 70.4342 2.84122L70.6997 3.10673C70.5655 3.32379 70.468 3.56141 70.4109 3.8101H70.0289C69.9597 3.8101 69.8934 3.83758 69.8445 3.8865C69.7955 3.93542 69.7681 4.00177 69.7681 4.07095V4.56471C69.7681 4.63432 69.7954 4.70116 69.8442 4.75082C69.893 4.80048 69.9593 4.82899 70.0289 4.83022H70.4109C70.4672 5.07769 70.5648 5.3139 70.6997 5.52892L70.4342 5.79909C70.3852 5.84876 70.3578 5.91569 70.3578 5.98541C70.3578 6.05514 70.3852 6.12206 70.4342 6.17173L70.7789 6.52109C70.8285 6.57002 70.8955 6.59744 70.9652 6.59744C71.0349 6.59744 71.1018 6.57002 71.1515 6.52109L71.4217 6.25092C71.6374 6.38773 71.8754 6.48549 72.125 6.53972V6.92168C72.125 6.99086 72.1525 7.05721 72.2014 7.10613C72.2504 7.15505 72.3167 7.18253 72.3859 7.18253H72.8796C72.9488 7.18253 73.0152 7.15505 73.0641 7.10613C73.113 7.05721 73.1405 6.99086 73.1405 6.92168V6.52109C73.3898 6.46595 73.6277 6.36825 73.8439 6.23229L74.114 6.50246C74.1629 6.5511 74.2291 6.5784 74.298 6.5784C74.367 6.5784 74.4331 6.5511 74.482 6.50246L74.8314 6.1531C74.8803 6.10343 74.9077 6.0365 74.9077 5.96678C74.9077 5.89706 74.8803 5.83013 74.8314 5.78046L74.5612 5.51029C74.6975 5.29549 74.7967 5.05929 74.8547 4.81158H75.232C75.2993 4.81175 75.3641 4.78635 75.4134 4.74052C75.4627 4.69469 75.4927 4.63185 75.4975 4.56471ZM72.7492 5.44042C72.5173 5.46919 72.2822 5.42517 72.0764 5.31446C71.8706 5.20375 71.7043 5.03182 71.6005 4.82245C71.4967 4.61308 71.4605 4.37663 71.497 4.14581C71.5335 3.91499 71.6408 3.70121 71.8041 3.53405C71.9674 3.36688 72.1786 3.2546 72.4085 3.21273C72.6384 3.17087 72.8756 3.20148 73.0874 3.30035C73.2991 3.39922 73.4749 3.56145 73.5904 3.7646C73.7059 3.96774 73.7554 4.20176 73.7321 4.43428C73.7057 4.68826 73.5943 4.92588 73.4159 5.10854C73.2375 5.29119 73.0025 5.40816 72.7492 5.44042Z" fill="#263238"/>
<path d="M15.5762 37.1807H12.4087V40.3481H15.5762V37.1807ZM13.0515 37.8235H14.9147V39.71H13.0515V37.8235Z" fill="#263238"/>
<path d="M143.524 99.0815H140.343V102.249H143.51L143.524 99.0815ZM140.995 99.7244H142.881V101.611H140.995V99.7244Z" fill="#263238"/>
<path d="M96.0027 8.34717H92.8306V11.5146H95.998L96.0027 8.34717ZM93.4734 8.98532H95.3599V10.8485H93.4734V8.98532Z" fill="#263238"/>
<path d="M13.7134 87.7622H10.5459V90.9343H13.7134V87.7622ZM11.1841 88.405H13.0473V90.2682H11.1841V88.405Z" fill="#263238"/>
<path opacity="0.9" d="M106.199 30.2771C105.822 30.2762 105.453 30.3871 105.139 30.5959C104.825 30.8047 104.58 31.1019 104.435 31.4499C104.291 31.798 104.252 32.1812 104.325 32.5511C104.398 32.9209 104.579 33.2608 104.845 33.5277C105.112 33.7946 105.451 33.9766 105.821 34.0504C106.191 34.1243 106.574 34.0869 106.922 33.9428C107.271 33.7988 107.568 33.5546 107.778 33.2412C107.987 32.9278 108.099 32.5592 108.099 32.1822C108.099 31.6778 107.899 31.1939 107.543 30.8368C107.187 30.4796 106.703 30.2783 106.199 30.2771ZM106.199 33.3235C105.973 33.3235 105.753 33.2565 105.565 33.1311C105.377 33.0057 105.231 32.8275 105.145 32.619C105.058 32.4104 105.036 32.181 105.08 31.9596C105.124 31.7382 105.232 31.5349 105.392 31.3753C105.552 31.2157 105.755 31.107 105.976 31.063C106.198 31.0189 106.427 31.0415 106.636 31.1279C106.844 31.2143 107.022 31.3605 107.148 31.5482C107.273 31.7359 107.34 31.9565 107.34 32.1822C107.335 32.4817 107.213 32.7672 106.999 32.9772C106.786 33.1872 106.498 33.3049 106.199 33.3048V33.3235Z" fill="#263238"/>
<path d="M72.3347 39.2118L68.068 33.3054C68.8504 33.3029 69.6002 32.991 70.1535 32.4377C70.7068 31.8844 71.0187 31.1346 71.0212 30.3522V14.2725C71.0175 13.4904 70.7052 12.7414 70.1521 12.1884C69.5991 11.6353 68.8501 11.323 68.068 11.3193H30.9898C30.2074 11.3218 29.4576 11.6337 28.9043 12.187C28.351 12.7403 28.0391 13.4901 28.0366 14.2725V30.3522C28.0379 31.135 28.3494 31.8855 28.903 32.439C29.4565 32.9926 30.207 33.3041 30.9898 33.3054H63.0512L72.3347 39.2118Z" fill="#263238"/>
<path d="M40.3573 21.6557C40.3573 21.2983 40.2513 20.9488 40.0527 20.6516C39.8542 20.3544 39.5719 20.1228 39.2416 19.986C38.9114 19.8492 38.548 19.8134 38.1974 19.8831C37.8468 19.9529 37.5248 20.125 37.272 20.3777C37.0193 20.6305 36.8471 20.9525 36.7774 21.3031C36.7077 21.6537 36.7435 22.0171 36.8803 22.3473C37.017 22.6776 37.2487 22.9599 37.5459 23.1584C37.8431 23.357 38.1925 23.463 38.55 23.463C38.7873 23.463 39.0224 23.4163 39.2416 23.3255C39.4609 23.2346 39.6602 23.1015 39.828 22.9337C39.9958 22.7659 40.1289 22.5666 40.2198 22.3473C40.3106 22.1281 40.3573 21.8931 40.3573 21.6557Z" fill="#4F8647"/>
<path d="M51.0194 21.6557C51.0194 21.2981 50.9133 20.9484 50.7145 20.6511C50.5157 20.3538 50.2332 20.1222 49.9027 19.9855C49.5721 19.8489 49.2085 19.8133 48.8578 19.8835C48.5071 19.9536 48.1851 20.1262 47.9325 20.3794C47.6799 20.6326 47.5082 20.9551 47.4389 21.306C47.3697 21.6569 47.4062 22.0204 47.5437 22.3506C47.6812 22.6807 47.9136 22.9627 48.2114 23.1607C48.5092 23.3587 48.8591 23.464 49.2168 23.463C49.4539 23.463 49.6887 23.4163 49.9077 23.3254C50.1267 23.2345 50.3256 23.1013 50.4931 22.9334C50.6605 22.7655 50.7932 22.5662 50.8836 22.347C50.9739 22.1277 51.02 21.8928 51.0194 21.6557Z" fill="#4F8647"/>
<path d="M61.6864 21.6557C61.6864 21.2983 61.5804 20.9488 61.3818 20.6516C61.1832 20.3544 60.901 20.1228 60.5707 19.986C60.2405 19.8492 59.8771 19.8134 59.5265 19.8831C59.1759 19.9529 58.8539 20.125 58.6011 20.3777C58.3484 20.6305 58.1762 20.9525 58.1065 21.3031C58.0368 21.6537 58.0726 22.0171 58.2094 22.3473C58.3461 22.6776 58.5778 22.9599 58.875 23.1584C59.1722 23.357 59.5216 23.463 59.8791 23.463C60.1164 23.463 60.3515 23.4163 60.5707 23.3255C60.79 23.2346 60.9892 23.1015 61.1571 22.9337C61.3249 22.7659 61.458 22.5666 61.5489 22.3473C61.6397 22.1281 61.6864 21.8931 61.6864 21.6557Z" fill="#4F8647"/>
</svg>
