<svg width="26" height="26" viewBox="0 0 26 26" fill="none" xmlns="http://www.w3.org/2000/svg">
<circle cx="13" cy="13" r="13" fill="#F3F3F3"/>
<path d="M18.3332 15.8306C18.3332 15.6337 18.2944 15.4387 18.219 15.2567C18.1436 15.0748 18.0331 14.9095 17.8938 14.7702C17.7545 14.631 17.5891 14.5206 17.4071 14.4453C17.2252 14.3699 17.0301 14.3312 16.8332 14.3313H9.1665C8.9695 14.3312 8.7744 14.37 8.59238 14.4453C8.41035 14.5207 8.24495 14.6312 8.10565 14.7705C7.96634 14.9098 7.85586 15.0752 7.78051 15.2572C7.70516 15.4392 7.66642 15.6343 7.6665 15.8313V16.216C7.6665 16.8113 7.87917 17.3866 8.26517 17.8393C9.30984 19.062 10.9005 19.666 12.9972 19.666C15.0945 19.666 16.6858 19.0626 17.7318 17.84C18.1198 17.3871 18.3331 16.8104 18.3332 16.214V15.8306ZM9.16584 15.3313H16.8332C17.1085 15.3313 17.3318 15.5546 17.3318 15.8313V16.2146C17.3319 16.5723 17.2043 16.9182 16.9718 17.19C16.1338 18.1686 14.8225 18.6653 12.9965 18.6653C11.1712 18.6653 9.8605 18.1686 9.02517 17.19C8.79328 16.9184 8.66586 16.5731 8.66584 16.216V15.8306C8.66601 15.6983 8.71868 15.5714 8.81228 15.4778C8.90589 15.3842 9.03346 15.3315 9.16584 15.3313ZM16.3312 9.66798C16.3313 8.96595 16.1097 8.28181 15.6981 7.71312C15.2864 7.14443 14.7058 6.72021 14.0389 6.50096C13.372 6.28171 12.6528 6.27862 11.9841 6.49213C11.3153 6.70564 10.731 7.12485 10.3145 7.68998C10.2662 7.67468 10.2158 7.66681 10.1652 7.66665H8.49984C8.36723 7.66665 8.24005 7.71932 8.14628 7.81309C8.05252 7.90686 7.99984 8.03404 7.99984 8.16665V11.832C7.99966 12.0728 8.04695 12.3114 8.13901 12.534C8.23106 12.7566 8.36608 12.9588 8.53634 13.1292C8.70659 13.2996 8.90876 13.4347 9.13128 13.527C9.35379 13.6192 9.5923 13.6666 9.83317 13.6666H9.99984V13.664H10.0065C10.1195 13.6642 10.2306 13.6356 10.3294 13.5809C10.4283 13.5263 10.5116 13.4474 10.5715 13.3516C10.6314 13.2559 10.666 13.1465 10.6719 13.0337C10.6779 12.9209 10.655 12.8084 10.6055 12.7069C10.556 12.6054 10.4814 12.5182 10.3889 12.4534C10.2963 12.3887 10.1888 12.3486 10.0764 12.3369C9.9641 12.3252 9.85063 12.3423 9.74672 12.3866C9.64281 12.4308 9.55188 12.5008 9.4825 12.59C9.33813 12.523 9.21596 12.4161 9.13042 12.2819C9.04489 12.1477 8.99958 11.9918 8.99984 11.8326V11.6666H9.4985C9.75184 11.6666 9.98717 11.5853 10.1785 11.448C10.5641 12.0593 11.1379 12.5287 11.8135 12.7855C12.4891 13.0423 13.2299 13.0725 13.9242 12.8717C14.6185 12.6708 15.2287 12.2497 15.6628 11.6719C16.097 11.094 16.3315 10.3907 16.3312 9.66798ZM9.6645 9.59731C9.66353 9.64442 9.66353 9.69154 9.6645 9.73865V10.4993C9.6645 10.5435 9.64694 10.5859 9.61569 10.6172C9.58443 10.6484 9.54204 10.666 9.49784 10.666H8.99984V8.66731H9.66517L9.6645 9.59731ZM10.6645 9.72731V9.60865C10.6801 8.99514 10.9368 8.41249 11.3789 7.9869C11.8211 7.5613 12.4131 7.32703 13.0268 7.33483C13.6404 7.34264 14.2263 7.59189 14.6575 8.02859C15.0886 8.46529 15.3304 9.05428 15.3304 9.66798C15.3304 10.2817 15.0886 10.8707 14.6575 11.3074C14.2263 11.7441 13.6404 11.9933 13.0268 12.0011C12.4131 12.0089 11.8211 11.7747 11.3789 11.3491C10.9368 10.9235 10.6801 10.3408 10.6645 9.72731Z" fill="#121212"/>
</svg>
