<svg width="17" height="17" viewBox="0 0 17 17" fill="none" xmlns="http://www.w3.org/2000/svg">
<path fill-rule="evenodd" clip-rule="evenodd" d="M13.75 16.4993H10.8167C10.6645 16.4993 10.5417 16.3765 10.5417 16.2243V12.3743C10.5417 11.1084 9.51592 10.0827 8.25 10.0827C6.98408 10.0827 5.95833 11.1084 5.95833 12.3743V16.2243C5.95833 16.3765 5.83545 16.4993 5.68329 16.4993H2.75C0.916667 16.4993 0 15.5827 0 13.7493V7.92943C0 6.09793 0.479466 5.81657 1.31088 5.1199L6.77787 0.535562C7.62946 -0.178521 8.87155 -0.178521 9.72313 0.535562L15.1901 5.1199C16.0206 5.81657 16.5009 6.09793 16.5009 7.92943V13.7493C16.5 15.5827 15.5833 16.4993 13.75 16.4993Z" fill="#878787"/>
</svg>
