<svg width="30" height="30" viewBox="0 0 30 30" fill="none" xmlns="http://www.w3.org/2000/svg">
<g clip-path="url(#clip0_2155_5559)">
<path d="M23.226 0H6.77402C3.03283 0 0 3.04688 0 6.80539V23.1946C0 26.9531 3.03283 30 6.77402 30H23.226C26.9672 30 30 26.9531 30 23.1946V6.80539C30 3.04688 26.9672 0 23.226 0Z" fill="#F58634"/>
<path fill-rule="evenodd" clip-rule="evenodd" d="M12.0098 11.6284H15.8002V13.5804H15.8553C16.3832 12.6292 17.674 11.6284 19.5988 11.6284C23.6014 11.6284 24.3414 14.1308 24.3414 17.386V24.2685H20.3887L20.3881 18.1389C20.3881 16.7374 20.3594 14.9337 18.3326 14.9337C16.2748 14.9337 15.959 16.4589 15.959 18.0371V24.2685H12.0098V11.6284ZM9.76973 7.79692C9.76973 8.93655 8.84863 9.86191 7.71426 9.86191C6.5793 9.86191 5.6582 8.93655 5.6582 7.79692C5.6582 6.6567 6.5793 5.73193 7.71426 5.73193C8.84863 5.73193 9.76973 6.6567 9.76973 7.79692ZM5.6582 11.6284H9.76973V24.2685H5.6582V11.6284Z" fill="white"/>
</g>
<defs>
<clipPath id="clip0_2155_5559">
<rect width="30" height="30" fill="white"/>
</clipPath>
</defs>
</svg>
