<svg width="19" height="19" viewBox="0 0 19 19" fill="none" xmlns="http://www.w3.org/2000/svg">
<path d="M9.13715 16.2592L9.13605 16.2584C7.9169 15.4532 6.44389 14.4777 5.27092 13.2285C4.10437 11.9861 3.271 10.5111 3.271 8.70835C3.271 5.27395 6.06576 2.47919 9.50016 2.47919C12.9346 2.47919 15.7292 5.27395 15.7277 8.70814V8.70835C15.7277 10.5111 14.8944 11.9861 13.7278 13.2285C12.5549 14.4777 11.0818 15.4532 9.86269 16.2584L9.86159 16.2592L9.49937 16.4998L9.13715 16.2592ZM7.021 8.70835C7.021 10.0778 8.13073 11.1875 9.50016 11.1875C10.8696 11.1875 11.9793 10.0778 11.9793 8.70835C11.9793 7.33892 10.8696 6.22919 9.50016 6.22919C8.13073 6.22919 7.021 7.33892 7.021 8.70835Z" stroke="#121212"/>
</svg>
