<svg width="26" height="26" viewBox="0 0 26 26" fill="none" xmlns="http://www.w3.org/2000/svg">
<circle cx="13" cy="13" r="13" fill="#F3F3F3"/>
<path d="M15.5 16.3333V17C15.5 18.612 14.612 19.5 13 19.5H9C7.388 19.5 6.5 18.612 6.5 17V9C6.5 7.388 7.388 6.5 9 6.5H13C14.612 6.5 15.5 7.388 15.5 9V9.66667C15.5 9.94267 15.276 10.1667 15 10.1667C14.724 10.1667 14.5 9.94267 14.5 9.66667V9C14.5 7.94867 14.0513 7.5 13 7.5H9C7.94867 7.5 7.5 7.94867 7.5 9V17C7.5 18.0513 7.94867 18.5 9 18.5H13C14.0513 18.5 14.5 18.0513 14.5 17V16.3333C14.5 16.0573 14.724 15.8333 15 15.8333C15.276 15.8333 15.5 16.0573 15.5 16.3333ZM19.4613 13.1913C19.512 13.0693 19.512 12.9313 19.4613 12.8093C19.436 12.748 19.3994 12.6927 19.3534 12.6467L17.3534 10.6467C17.158 10.4513 16.8413 10.4513 16.646 10.6467C16.4507 10.842 16.4507 11.1587 16.646 11.354L17.7927 12.5007H10.3333C10.0573 12.5007 9.83333 12.7247 9.83333 13.0007C9.83333 13.2767 10.0573 13.5007 10.3333 13.5007H17.7927L16.646 14.6473C16.4507 14.8427 16.4507 15.1593 16.646 15.3547C16.7433 15.452 16.8713 15.5013 16.9993 15.5013C17.1273 15.5013 17.2553 15.4527 17.3527 15.3547L19.3527 13.3547C19.3993 13.3073 19.436 13.252 19.4613 13.1913Z" fill="#EC1C24"/>
</svg>
