<svg width="26" height="26" viewBox="0 0 26 26" fill="none" xmlns="http://www.w3.org/2000/svg">
<g clip-path="url(#clip0_2188_1416)">
<path d="M13 26C20.1797 26 26 20.1797 26 13C26 5.8203 20.1797 0 13 0C5.8203 0 0 5.8203 0 13C0 20.1797 5.8203 26 13 26Z" fill="#F3F3F3"/>
<path d="M11.9908 18.9998C11.9908 19.4598 11.6642 19.8331 11.2617 19.8331C10.8598 19.8331 10.5296 19.4598 10.5296 18.9998C10.5296 18.5398 10.8533 18.1665 11.2558 18.1665H11.2617C11.6642 18.1665 11.9908 18.5398 11.9908 18.9998ZM15.9283 18.1665H15.9225C15.52 18.1665 15.1963 18.5398 15.1963 18.9998C15.1963 19.4598 15.5258 19.8331 15.9283 19.8331C16.3308 19.8331 16.6575 19.4598 16.6575 18.9998C16.6575 18.5398 16.3308 18.1665 15.9283 18.1665ZM18.6612 10.6612L18.0698 14.7718C17.9164 15.7358 17.5348 16.8331 15.9167 16.8331H11.0948C10.3021 16.8331 9.61898 16.1565 9.50698 15.2592L8.62614 8.21582C8.57481 7.80782 8.26509 7.50049 7.90459 7.50049H7.75C7.5085 7.50049 7.3125 7.27649 7.3125 7.00049C7.3125 6.72449 7.5085 6.50049 7.75 6.50049H7.90516C8.69791 6.50049 9.38102 7.17715 9.49302 8.07448L9.54664 8.50049H17.0833C17.5605 8.50049 18.0097 8.74048 18.3154 9.15915C18.6205 9.57715 18.747 10.1252 18.6612 10.6612ZM17.2076 14.6018L17.27 14.1665H13.5833C13.3418 14.1665 13.1458 13.9425 13.1458 13.6665C13.1458 13.3905 13.3418 13.1665 13.5833 13.1665H17.4141L17.7991 10.4905C17.8394 10.2385 17.7822 9.98915 17.6427 9.79915C17.5033 9.60915 17.2998 9.49982 17.0828 9.49982H9.6709L10.3732 15.1178C10.4246 15.5258 10.7343 15.8331 11.0948 15.8331H15.9167C16.8482 15.8331 17.0752 15.4358 17.2076 14.6018Z" fill="#121212"/>
</g>
<defs>
<clipPath id="clip0_2188_1416">
<rect width="26" height="26" fill="white"/>
</clipPath>
</defs>
</svg>
