<svg width="26" height="26" viewBox="0 0 26 26" fill="none" xmlns="http://www.w3.org/2000/svg">
<circle cx="13" cy="13" r="13" fill="#F3F3F3"/>
<path d="M19.1912 9.58797C19.1906 9.58663 19.1913 9.58531 19.1906 9.58398C19.1893 9.58064 19.1859 9.57864 19.1846 9.57531C18.9266 9.10664 18.5246 8.71997 18.0166 8.49397L14.0166 6.71598C13.3706 6.42931 12.6313 6.42931 11.9853 6.71598L7.98527 8.49397C7.4766 8.71997 7.07522 9.10664 6.81722 9.57531C6.81589 9.57864 6.81261 9.58064 6.81128 9.58398C6.81061 9.58531 6.81121 9.58663 6.81055 9.58797C6.61521 9.9473 6.50195 10.3526 6.50195 10.778V15.2226C6.50195 16.2093 7.08457 17.106 7.98657 17.5073L11.9866 19.2853C12.3079 19.428 12.6526 19.4986 12.9972 19.5C12.9992 19.5 13.0006 19.5006 13.0026 19.5006C13.0046 19.5006 13.0059 19.5 13.0079 19.5C13.3526 19.4993 13.6972 19.428 14.0186 19.2853L18.0186 17.5073C18.9206 17.1066 19.5033 16.21 19.5033 15.2226V10.778C19.4999 10.3526 19.3866 9.94663 19.1912 9.58797ZM12.3906 7.62931C12.584 7.54331 12.7926 7.49997 12.9999 7.49997C13.2073 7.49997 13.4159 7.54264 13.6092 7.62864L17.6092 9.40663C17.7225 9.4573 17.8219 9.52731 17.9172 9.60131L16.0952 10.4113L11.2559 8.13331L12.3906 7.62931ZM10.0486 8.66998L14.8879 10.948L13.6133 11.5146C13.2226 11.6846 12.7752 11.6846 12.3899 11.516L8.0826 9.60131C8.17793 9.52731 8.27729 9.45663 8.39062 9.40663L10.0486 8.66998ZM8.39062 16.5926C7.84929 16.352 7.49992 15.814 7.49992 15.222V10.7773C7.49992 10.6673 7.52388 10.562 7.54655 10.458L11.9866 12.4313C12.1526 12.5033 12.3246 12.556 12.4999 12.5906V18.4053C12.4639 18.3926 12.426 18.3853 12.3906 18.37L8.39062 16.5926ZM18.4999 15.222C18.4999 15.814 18.1505 16.352 17.6092 16.5926L13.6092 18.3706C13.5739 18.3866 13.5359 18.3933 13.4999 18.406V12.5906C13.6759 12.5553 13.8493 12.5026 14.016 12.43L15.5859 11.732V12.9266C15.5859 13.2026 15.8099 13.4266 16.0859 13.4266C16.3619 13.4266 16.5859 13.2026 16.5859 12.9266V11.288L18.4526 10.4586C18.4759 10.5633 18.4993 10.668 18.4993 10.778V15.222H18.4999Z" fill="#121212"/>
</svg>
