<svg width="26" height="26" viewBox="0 0 26 26" fill="none" xmlns="http://www.w3.org/2000/svg">
<rect width="26" height="26" rx="13" fill="#F3F3F3"/>
<path d="M12.333 16.4998H8.33301C7.28167 16.4998 6.83301 16.0512 6.83301 14.9998V11.4998H17.833V11.6665C17.833 11.9425 18.057 12.1665 18.333 12.1665C18.609 12.1665 18.833 11.9425 18.833 11.6665V9.6665C18.833 8.0545 17.945 7.1665 16.333 7.1665H8.33301C6.72101 7.1665 5.83301 8.0545 5.83301 9.6665V14.9998C5.83301 16.6118 6.72101 17.4998 8.33301 17.4998H12.333C12.609 17.4998 12.833 17.2758 12.833 16.9998C12.833 16.7238 12.609 16.4998 12.333 16.4998ZM8.33301 8.1665H16.333C17.3843 8.1665 17.833 8.61517 17.833 9.6665V10.4998H6.83301V9.6665C6.83301 8.61517 7.28167 8.1665 8.33301 8.1665ZM10.9997 13.8332C11.2757 13.8332 11.4997 14.0572 11.4997 14.3332C11.4997 14.6092 11.2757 14.8332 10.9997 14.8332H8.99967C8.72367 14.8332 8.49967 14.6092 8.49967 14.3332C8.49967 14.0572 8.72367 13.8332 8.99967 13.8332H10.9997ZM16.9997 13.1665C15.2537 13.1665 13.833 14.5872 13.833 16.3332C13.833 18.0792 15.2537 19.4998 16.9997 19.4998C18.7457 19.4998 20.1663 18.0792 20.1663 16.3332C20.1663 14.5872 18.7457 13.1665 16.9997 13.1665ZM16.9997 18.4998C15.805 18.4998 14.833 17.5278 14.833 16.3332C14.833 15.1385 15.805 14.1665 16.9997 14.1665C18.1943 14.1665 19.1663 15.1385 19.1663 16.3332C19.1663 17.5278 18.1943 18.4998 16.9997 18.4998ZM18.1863 15.4238C18.3817 15.6185 18.3817 15.9359 18.1863 16.1312L17.075 17.2425C16.981 17.3365 16.8543 17.3892 16.7217 17.3892C16.589 17.3892 16.4617 17.3365 16.3683 17.2425L15.813 16.6872C15.6177 16.4918 15.6177 16.1752 15.813 15.9798C16.0083 15.7845 16.325 15.7845 16.5203 15.9798L16.7223 16.1818L17.4797 15.4238C17.675 15.2285 17.991 15.2285 18.1863 15.4238Z" fill="black"/>
</svg>
