<svg width="26" height="26" viewBox="0 0 26 26" fill="none" xmlns="http://www.w3.org/2000/svg">
<rect width="26" height="26" rx="13" fill="#F3F3F3"/>
<path d="M12.333 17.8335H8.33301C7.28167 17.8335 6.83301 17.3848 6.83301 16.3335V10.8335H17.833V12.3335C17.833 12.6095 18.057 12.8335 18.333 12.8335C18.609 12.8335 18.833 12.6095 18.833 12.3335V9.3335C18.833 7.7215 17.945 6.8335 16.333 6.8335H15.4997V6.3335C15.4997 6.0575 15.2757 5.8335 14.9997 5.8335C14.7237 5.8335 14.4997 6.0575 14.4997 6.3335V6.8335H10.1663V6.3335C10.1663 6.0575 9.94234 5.8335 9.66634 5.8335C9.39034 5.8335 9.16634 6.0575 9.16634 6.3335V6.8335H8.33301C6.72101 6.8335 5.83301 7.7215 5.83301 9.3335V16.3335C5.83301 17.9455 6.72101 18.8335 8.33301 18.8335H12.333C12.609 18.8335 12.833 18.6095 12.833 18.3335C12.833 18.0575 12.609 17.8335 12.333 17.8335ZM8.33301 7.8335H9.16634V8.3335C9.16634 8.6095 9.39034 8.8335 9.66634 8.8335C9.94234 8.8335 10.1663 8.6095 10.1663 8.3335V7.8335H14.4997V8.3335C14.4997 8.6095 14.7237 8.8335 14.9997 8.8335C15.2757 8.8335 15.4997 8.6095 15.4997 8.3335V7.8335H16.333C17.3843 7.8335 17.833 8.28216 17.833 9.3335V9.8335H6.83301V9.3335C6.83301 8.28216 7.28167 7.8335 8.33301 7.8335ZM10.3464 13.0002C10.3464 13.3682 10.0484 13.6668 9.67969 13.6668C9.31169 13.6668 9.0096 13.3682 9.0096 13.0002C9.0096 12.6322 9.30501 12.3335 9.67301 12.3335H9.67969C10.0477 12.3335 10.3464 12.6322 10.3464 13.0002ZM13.013 13.0002C13.013 13.3682 12.715 13.6668 12.3464 13.6668C11.9784 13.6668 11.6763 13.3682 11.6763 13.0002C11.6763 12.6322 11.9717 12.3335 12.3397 12.3335H12.3464C12.7144 12.3335 13.013 12.6322 13.013 13.0002ZM16.9997 13.8335C15.2537 13.8335 13.833 15.2542 13.833 17.0002C13.833 18.7462 15.2537 20.1668 16.9997 20.1668C18.7457 20.1668 20.1663 18.7462 20.1663 17.0002C20.1663 15.2542 18.7457 13.8335 16.9997 13.8335ZM16.9997 19.1668C15.805 19.1668 14.833 18.1948 14.833 17.0002C14.833 15.8055 15.805 14.8335 16.9997 14.8335C18.1943 14.8335 19.1663 15.8055 19.1663 17.0002C19.1663 18.1948 18.1943 19.1668 16.9997 19.1668ZM10.3464 15.6668C10.3464 16.0348 10.0484 16.3335 9.67969 16.3335C9.31169 16.3335 9.0096 16.0348 9.0096 15.6668C9.0096 15.2988 9.30501 15.0002 9.67301 15.0002H9.67969C10.0477 15.0002 10.3464 15.2988 10.3464 15.6668ZM18.0677 17.3608C18.263 17.5555 18.263 17.8729 18.0677 18.0682C17.9704 18.1655 17.8424 18.2148 17.7144 18.2148C17.5864 18.2148 17.4583 18.1662 17.361 18.0682L16.647 17.3542C16.553 17.2602 16.5003 17.1335 16.5003 17.0008V16.0008C16.5003 15.7248 16.7243 15.5008 17.0003 15.5008C17.2763 15.5008 17.5003 15.7248 17.5003 16.0008V16.7935L18.0677 17.3608Z" fill="black"/>
</svg>
