<svg width="26" height="17" viewBox="0 0 26 17" fill="none" xmlns="http://www.w3.org/2000/svg">
<path d="M25.7405 0.827999V3.688H23.2445V17H19.8125C19.3272 16.0813 18.6425 15.2927 17.7585 14.634C16.8918 13.958 16.0512 13.4033 15.2365 12.97L16.7445 10.76C17.4032 11.1413 18.0012 11.5487 18.5385 11.982C19.0932 12.398 19.5438 12.8053 19.8905 13.204C19.8732 13.0133 19.8558 12.8227 19.8385 12.632C19.8385 12.4413 19.8298 12.242 19.8125 12.034C19.8125 11.8087 19.8125 11.5833 19.8125 11.358V3.688H0.260508V0.827999H25.7405ZM10.8685 14.868C9.44718 14.868 8.11251 14.5907 6.86451 14.036C5.63384 13.4813 4.51584 12.5453 3.51051 11.228C2.52251 9.91067 1.65584 8.12533 0.910508 5.872L4.16051 4.962C4.71517 6.574 5.29584 7.89133 5.90251 8.914C6.50917 9.93667 7.20251 10.6907 7.98251 11.176C8.76251 11.644 9.67251 11.878 10.7125 11.878C11.5272 11.878 12.1945 11.774 12.7145 11.566C13.2518 11.358 13.6505 11.0547 13.9105 10.656C14.1705 10.2573 14.3005 9.78933 14.3005 9.252C14.3005 8.59333 14.1185 8.082 13.7545 7.718C13.4078 7.33667 12.9572 7.146 12.4025 7.146C12.0212 7.146 11.7265 7.24133 11.5185 7.432C11.3105 7.62267 11.2065 7.874 11.2065 8.186C11.2065 8.32467 11.2238 8.48067 11.2585 8.654C11.2932 8.81 11.3365 8.95733 11.3885 9.096L8.16451 9.564C8.02584 9.23467 7.92184 8.914 7.85251 8.602C7.78317 8.29 7.74851 8.02133 7.74851 7.796C7.74851 6.94667 7.94784 6.27933 8.34651 5.794C8.74517 5.29133 9.26517 4.92733 9.90651 4.702C10.5652 4.47667 11.2498 4.364 11.9605 4.364C13.1565 4.364 14.1878 4.598 15.0545 5.066C15.9212 5.51667 16.5798 6.14067 17.0305 6.938C17.4985 7.73533 17.7325 8.63667 17.7325 9.642C17.7325 10.578 17.4985 11.4447 17.0305 12.242C16.5625 13.0393 15.8172 13.6807 14.7945 14.166C13.7892 14.634 12.4805 14.868 10.8685 14.868ZM9.23051 5.872C9.16118 5.3 8.90984 4.806 8.47651 4.39C8.04318 3.974 7.41917 3.67067 6.60451 3.48L8.55451 2.336L9.75051 2.622C10.7212 3.02067 11.4232 3.46267 11.8565 3.948C12.2898 4.43333 12.5498 5.04867 12.6365 5.794L9.23051 5.872Z" fill="#6D6D6D"/>
</svg>
