<svg width="196" height="189" viewBox="0 0 196 189" fill="none" xmlns="http://www.w3.org/2000/svg">
<path d="M185 39C185.34 39.33 185.68 39.66 186 40L185 39Z" fill="#E2EBFF"/>
<path fill-rule="evenodd" clip-rule="evenodd" d="M18.3289 185.494L0.0540164 72.5084C-0.217495 70.8355 0.550715 69.1652 1.99449 68.2836L50.263 38.7735C51.2127 38.1935 52.3528 38.0169 53.4311 38.2837L112.972 53.033C114.088 53.3088 115.268 53.1103 116.233 52.4852L156.064 26.6714C158.406 25.1532 161.548 26.3273 162.323 29.0119L195.836 144.905C196.326 146.603 195.695 148.425 194.263 149.455L157.592 175.777C156.598 176.489 155.343 176.729 154.158 176.433L84.4079 158.968C83.4325 158.724 82.4005 158.841 81.5062 159.299L24.3318 188.541C21.8174 189.826 18.7819 188.286 18.3289 185.494Z" fill="#C0E0B9"/>
<path fill-rule="evenodd" clip-rule="evenodd" d="M141.774 32.6423C135.981 32.6423 131.286 27.9457 131.286 22.153C131.286 16.3602 135.981 11.6636 141.774 11.6636C147.568 11.6636 152.263 16.3602 152.263 22.153C152.263 27.9457 147.568 32.6423 141.774 32.6423ZM141.774 0.00879894C129.884 -0.327868 119.971 9.0384 119.635 20.9284C119.626 21.2663 119.625 21.6056 119.631 21.9435C119.631 40.3111 140.142 57.3038 141.005 58.0028C141.441 58.3768 142.084 58.3768 142.52 58.0028C143.429 57.1881 163.918 38.4929 163.918 21.9435C164.142 10.0497 154.683 0.227247 142.789 0.00494398C142.451 -0.00148095 142.113 -0.000195968 141.774 0.00879894Z" fill="#F7A467"/>
<path d="M59 133.626L94.6343 142.857C98.3837 143.828 101.333 139.654 99.1305 136.49C86.8298 118.827 63.807 82.2205 85.469 83.7573C113.976 85.7794 108.546 111.341 114.654 114.734C120.764 118.127 157.415 110.548 158.772 97.1539C160.13 83.7573 155.379 77.0186 145.876 72.9757C136.374 68.9314 141.144 58 141.144 58" stroke="#0E1D25" stroke-dasharray="5 5"/>
<path fill-rule="evenodd" clip-rule="evenodd" d="M13.598 87.3632L11.1523 77.803C10.6117 75.6916 11.5429 73.4774 13.4273 72.3943L43.2334 55.2724C43.4688 55.1372 43.7132 55.0228 43.9667 54.9292L53.8464 51.2952C54.7013 50.9806 55.6286 50.9155 56.5198 51.1093L78.1985 55.825C79.9355 56.202 81.3232 57.51 81.8108 59.2262C82.7407 62.4975 80.114 65.6855 76.7449 65.3773L67.2078 64.5062C64.1569 64.2267 61.6258 66.8452 61.9905 69.9032L62.8687 77.2609C63.1351 79.492 61.8392 81.6138 59.7401 82.3848L39.7013 89.7425C38.289 90.26 36.7189 90.0857 35.4527 89.2718L29.9573 85.738C27.7134 84.2935 24.7297 84.9566 23.2993 87.2163L22.3241 88.757C20.0621 92.3298 14.6482 91.4652 13.598 87.3632Z" fill="#ACC8A7"/>
<path fill-rule="evenodd" clip-rule="evenodd" d="M144.129 130.231L151.101 159.307C151.902 162.649 155.96 164.102 158.796 162.062L182.009 145.366C183.633 144.2 184.355 142.186 183.832 140.289L178.386 120.54C177.667 117.929 174.866 116.419 172.212 117.211L147.472 124.581C145.003 125.315 143.543 127.785 144.129 130.231Z" fill="#ACC8A7"/>
<path fill-rule="evenodd" clip-rule="evenodd" d="M117.073 140.01L132.531 141.03C134.556 141.164 136.277 142.602 136.818 144.615L139.822 155.785C140.789 159.379 137.66 162.723 134.133 161.864L118.833 158.134C117.302 157.762 116.048 156.634 115.484 155.124L112.323 146.663C111.076 143.326 113.607 139.783 117.073 140.01Z" fill="#ACC8A7"/>
<path fill-rule="evenodd" clip-rule="evenodd" d="M44.8806 132.629C38.6086 132.629 33.5239 127.544 33.5239 121.274C33.5239 115.002 38.6086 109.917 44.8806 109.917C51.1527 109.917 56.2361 115.002 56.2361 121.274C56.2361 127.544 51.1527 132.629 44.8806 132.629ZM44.8803 97.2996C32.006 96.9347 21.2763 107.074 20.9114 119.947C20.9011 120.314 20.8998 120.68 20.9063 121.046C20.9063 140.931 43.1134 159.328 44.0476 160.085C44.5192 160.49 45.2157 160.49 45.6872 160.085C46.6728 159.203 68.853 138.964 68.853 121.046C69.0959 108.171 58.8545 97.536 45.9777 97.2944C45.6114 97.288 45.2452 97.2893 44.8803 97.2996Z" fill="#F58634"/>
</svg>
