<svg width="186" height="186" viewBox="0 0 186 186" fill="none" xmlns="http://www.w3.org/2000/svg">
<path d="M172.962 45.4237C181.442 59.898 185.94 76.3502 186 93.1155C186.055 113.406 179.44 133.154 167.168 149.334C158.479 160.74 147.262 169.986 134.395 176.346C121.528 182.707 107.36 186.011 92.9999 185.999C41.7921 186.245 0.000190616 144.507 0.000190616 93.1155C-0.0245618 80.9086 2.36157 68.8163 7.02239 57.5297C11.6832 46.243 18.5273 35.9831 27.1637 27.336C35.8001 18.689 46.0596 11.8242 57.356 7.13398C68.6524 2.44374 80.7643 0.0198869 92.9999 0.000927496C111.005 -0.0798842 128.636 5.12173 143.701 14.9588C152.674 20.8264 160.596 28.1541 167.139 36.6369C168.834 39.0504 170.514 41.4639 171.963 43.8629" fill="#E4F4E1"/>
<path opacity="0.75" d="M158.308 136.723C158.308 145.827 150.903 153.235 141.796 153.235H43.94C41.2541 153.235 39.0775 151.059 39.0775 148.373C39.0775 145.687 41.2541 143.51 43.94 143.51H141.796C145.538 143.51 148.581 140.467 148.581 136.725C148.581 132.982 145.538 129.939 141.796 129.939H137.059L139.729 123.375C141.219 123.679 142.759 123.836 144.338 123.836C146.591 123.836 148.768 123.515 150.827 122.912C155.329 125.862 158.306 130.953 158.306 136.727L158.308 136.723Z" fill="#F7A467"/>
<path d="M141.796 153.753H43.94C40.9727 153.753 38.5596 151.34 38.5596 148.373C38.5596 145.406 40.9727 142.992 43.94 142.992H141.796C145.251 142.992 148.063 140.181 148.063 136.725C148.063 133.269 145.251 130.457 141.796 130.457H136.291L139.414 122.781L139.835 122.867C141.302 123.166 142.818 123.318 144.34 123.318C146.501 123.318 148.635 123.014 150.684 122.415L150.913 122.348L151.113 122.479C155.943 125.645 158.828 130.97 158.828 136.727C158.828 146.117 151.188 153.757 141.797 153.757L141.796 153.753ZM43.94 144.026C41.5441 144.026 39.5953 145.975 39.5953 148.371C39.5953 150.767 41.5441 152.716 43.94 152.716H141.796C150.615 152.716 157.79 145.54 157.79 136.721C157.79 131.394 155.16 126.459 150.741 123.471C148.669 124.055 146.517 124.35 144.34 124.35C142.893 124.35 141.454 124.219 140.05 123.962L137.831 129.42H141.797C145.824 129.42 149.101 132.696 149.101 136.723C149.101 140.75 145.824 144.026 141.797 144.026H43.94Z" fill="#F2C489"/>
<path d="M158.691 76.7771L156.86 81.2806C153.252 78.9503 148.954 77.5987 144.338 77.5987C131.572 77.5987 121.22 87.9488 121.22 100.715C121.22 111.906 129.171 121.238 139.729 123.373L137.059 129.937L136.902 130.322C135.751 133.157 132.996 135.009 129.935 135.009H54.4661C51.1622 135.009 48.245 132.853 47.2749 129.694L30.842 76.147C29.3592 71.3121 32.9755 66.4202 38.0331 66.4202H151.726C153.504 66.4202 155.096 67.0191 156.351 68.0048C158.864 69.9726 160.032 73.4767 158.691 76.7754V76.7771Z" fill="#F7A467"/>
<path d="M129.935 135.529H54.4661C50.9119 135.529 47.8239 133.245 46.7813 129.848L30.3483 76.3009C29.5922 73.8377 30.0393 71.2364 31.5704 69.1633C33.1015 67.0919 35.4577 65.9043 38.0348 65.9043H151.728C153.549 65.9043 155.258 66.4895 156.672 67.5994C159.535 69.8434 160.54 73.6098 159.173 76.9724L157.105 82.0559L156.58 81.7176C152.933 79.3631 148.7 78.1186 144.34 78.1186C131.877 78.1186 121.739 88.2563 121.739 100.717C121.739 111.432 129.35 120.748 139.835 122.867L140.448 122.992L137.384 130.521C136.148 133.563 133.225 135.53 129.939 135.53L129.935 135.529ZM38.0331 66.94C35.7891 66.94 33.7367 67.9757 32.4024 69.7795C31.0681 71.5851 30.6797 73.8498 31.3374 75.9971L47.7703 129.544C48.68 132.504 51.3711 134.493 54.4661 134.493H129.937C132.801 134.493 135.347 132.781 136.424 130.129L136.583 129.743L139.02 123.749C128.37 121.3 120.704 111.713 120.704 100.716C120.704 87.6832 131.308 77.0811 144.34 77.0811C148.692 77.0811 152.922 78.267 156.615 80.5145L158.215 76.5823C159.406 73.653 158.529 70.3699 156.035 68.4159C154.806 67.4509 153.316 66.9417 151.73 66.9417H38.0331V66.94Z" fill="#F2C489"/>
<path opacity="0.75" d="M67.1188 175.482C72.6129 175.482 77.0667 171.028 77.0667 165.534C77.0667 160.04 72.6129 155.586 67.1188 155.586C61.6248 155.586 57.171 160.04 57.171 165.534C57.171 171.028 61.6248 175.482 67.1188 175.482Z" fill="#F7A467"/>
<path d="M67.1188 170.62C64.3155 170.62 62.0336 168.339 62.0336 165.534C62.0336 162.729 64.3155 160.449 67.1188 160.449C69.9221 160.449 72.2041 162.731 72.2041 165.534C72.2041 168.338 69.9221 170.62 67.1188 170.62Z" fill="#F2C489"/>
<path opacity="0.75" d="M121.22 175.482C126.714 175.482 131.168 171.028 131.168 165.534C131.168 160.04 126.714 155.586 121.22 155.586C115.726 155.586 111.272 160.04 111.272 165.534C111.272 171.028 115.726 175.482 121.22 175.482Z" fill="#F7A467"/>
<path d="M67.1189 176C61.3483 176 56.6532 171.305 56.6532 165.534C56.6532 159.764 61.3483 155.069 67.1189 155.069C72.8894 155.069 77.5845 159.764 77.5845 165.534C77.5845 171.305 72.8894 176 67.1189 176ZM67.1189 156.103C61.9197 156.103 57.6889 160.333 57.6889 165.533C57.6889 170.732 61.9197 174.963 67.1189 174.963C72.318 174.963 76.5488 170.732 76.5488 165.533C76.5488 160.333 72.318 156.103 67.1189 156.103Z" fill="#F7A467"/>
<path d="M121.22 176C115.449 176 110.754 171.305 110.754 165.534H111.79C111.79 170.734 116.021 174.964 121.22 174.964C126.419 174.964 130.65 170.734 130.65 165.534H131.686C131.686 171.305 126.99 176 121.22 176Z" fill="#F7A467"/>
<path d="M121.22 170.62C118.417 170.62 116.135 168.339 116.135 165.534C116.135 162.729 118.417 160.449 121.22 160.449C124.023 160.449 126.305 162.731 126.305 165.534C126.305 168.338 124.023 170.62 121.22 170.62Z" fill="#F2C489"/>
<path d="M99.7552 72.8811H36.7852V73.9168H99.7552V72.8811Z" fill="#F2C489"/>
<path d="M116.135 78.3789H90.1785V79.4146H116.135V78.3789Z" fill="#F2C489"/>
<path d="M128.492 128.047H52.5726V129.083H128.492V128.047Z" fill="#F2C489"/>
<path d="M167.374 59.5777H164.755C162.525 59.5777 160.455 60.7843 159.352 62.7227L156.351 68.0082C155.096 67.0243 153.504 66.4236 151.726 66.4236H146.065L150.896 57.9206C153.722 52.9441 159.033 49.8525 164.757 49.8525H167.206C166.431 51.249 165.988 52.8578 165.988 54.5701C165.988 56.4016 166.495 58.1156 167.376 59.5794L167.374 59.5777Z" fill="#F7A467"/>
<g opacity="0.5">
<path d="M184.912 54.0265C184.912 59.4035 180.553 63.762 175.176 63.762C171.631 63.762 168.527 61.8684 166.825 59.0358C165.945 57.572 165.437 55.858 165.437 54.0265C165.437 52.3159 165.879 50.7054 166.656 49.3089C168.316 46.3175 171.51 44.291 175.176 44.291C180.553 44.291 184.912 48.6496 184.912 54.0265Z" fill="#F7A467"/>
</g>
<path d="M175.725 64.8219C172.145 64.8219 168.775 62.9145 166.93 59.8437C165.974 58.2539 165.468 56.4293 165.468 54.5686C165.468 52.8286 165.912 51.1111 166.751 49.599C168.56 46.34 171.998 44.3135 175.723 44.3135C181.376 44.3135 185.977 48.9137 185.977 54.5668C185.977 60.22 181.376 64.8202 175.723 64.8202L175.725 64.8219ZM175.725 45.3509C172.376 45.3509 169.285 47.172 167.659 50.103C166.904 51.4615 166.506 53.0047 166.506 54.5686C166.506 56.2429 166.96 57.8828 167.819 59.3103C169.504 62.1136 172.459 63.7862 175.727 63.7862C180.81 63.7862 184.944 59.6504 184.944 54.5686C184.944 49.4868 180.808 45.3509 175.727 45.3509H175.725Z" fill="#F58634"/>
<path d="M156.86 81.2808C153.252 78.9505 148.954 77.5989 144.338 77.5989C131.572 77.5989 121.22 87.9489 121.22 100.716C121.22 111.906 129.171 121.238 139.729 123.373H139.731C141.221 123.677 142.759 123.834 144.337 123.834C146.589 123.834 148.766 123.513 150.825 122.91C160.436 120.105 167.455 111.231 167.455 100.716C167.455 92.5612 163.233 85.3959 156.858 81.2808H156.86ZM153.325 103.072C153.325 106.553 152.543 109.239 150.979 111.128C149.415 113.016 147.211 113.96 144.366 113.96C141.521 113.96 139.277 113.011 137.708 111.11C136.137 109.21 135.354 106.531 135.354 103.072V98.3611C135.354 94.8794 136.136 92.1935 137.699 90.3051C139.263 88.4167 141.473 87.4725 144.33 87.4725C147.186 87.4725 149.399 88.4236 150.97 90.3241C152.539 92.2246 153.325 94.9105 153.325 98.38V103.072Z" fill="#ACC8A7"/>
<path d="M144.33 92.0762C143.303 92.0762 142.555 92.5008 142.089 93.3501C141.623 94.1993 141.373 95.4871 141.337 97.2098V103.797C141.337 105.721 141.578 107.128 142.063 108.019C142.547 108.91 143.315 109.357 144.366 109.357C145.417 109.357 146.13 108.923 146.615 108.055C147.098 107.187 147.347 105.827 147.359 103.975V97.5999C147.359 95.746 147.117 94.3633 146.632 93.4485C146.149 92.5336 145.381 92.0762 144.33 92.0762Z" fill="#F7A467"/>
<path d="M103.67 55.7786C104.095 54.5081 104.573 53.5536 105.106 52.9149C105.64 52.2762 106.318 51.7946 107.141 51.4701C107.965 51.1456 108.619 50.8159 109.104 50.4793C109.589 50.1427 109.921 49.706 110.102 49.1657C110.54 47.8521 110.195 47.0063 109.064 46.6283C108.543 46.4539 108.056 46.504 107.608 46.7784C107.157 47.0529 106.815 47.5138 106.579 48.1611L102.168 46.6869C102.767 44.9539 103.769 43.7818 105.172 43.1725C106.575 42.5632 108.25 42.5839 110.198 43.2364C112.147 43.8888 113.49 44.8348 114.257 46.088C115.023 47.3394 115.128 48.7928 114.576 50.4448C114.334 51.1663 113.972 51.7756 113.487 52.271C113.002 52.7665 112.339 53.217 111.498 53.6226L109.53 54.5168C108.968 54.7826 108.531 55.1037 108.222 55.4782C107.913 55.8528 107.639 56.3689 107.4 57.0232L103.668 55.7751L103.67 55.7786ZM101.809 59.5658C102.025 58.9219 102.434 58.4714 103.037 58.2142C103.641 57.957 104.29 57.9449 104.985 58.1762C105.681 58.4093 106.192 58.8097 106.52 59.3776C106.846 59.9473 106.903 60.5531 106.687 61.197C106.472 61.8408 106.063 62.2914 105.458 62.5486C104.854 62.8058 104.205 62.8178 103.51 62.5865C102.814 62.3535 102.301 61.953 101.975 61.3851C101.647 60.8172 101.592 60.2096 101.808 59.5658H101.809Z" fill="#F58634"/>
<path d="M86.1756 53.393C86.1756 51.6686 86.3706 50.3083 86.7607 49.3089C87.1508 48.3112 87.7826 47.4464 88.6561 46.7128C89.5295 45.9809 90.1941 45.3111 90.6498 44.7018C91.1037 44.0942 91.3316 43.4227 91.3316 42.6908C91.3316 40.9077 90.5635 40.0153 89.0289 40.0153C88.3195 40.0153 87.7464 40.2759 87.3097 40.7955C86.8729 41.3151 86.6416 42.0176 86.6192 42.9031H80.6312C80.6553 40.5418 81.3993 38.7017 82.8631 37.3846C84.3269 36.0676 86.3827 35.4099 89.0289 35.4099C91.663 35.4099 93.7033 36.0175 95.1498 37.2345C96.5964 38.4514 97.3196 40.181 97.3196 42.425C97.3196 43.4055 97.1246 44.2979 96.7344 45.1005C96.3443 45.9032 95.7177 46.7249 94.8564 47.5638L92.8195 49.4591C92.2413 50.0149 91.8391 50.5845 91.6147 51.168C91.3903 51.7531 91.266 52.4937 91.2418 53.3913H86.1756V53.393ZM85.4489 58.7786C85.4489 57.9051 85.7647 57.1871 86.3965 56.6261C87.0283 56.0651 87.8171 55.7854 88.7613 55.7854C89.7056 55.7854 90.4944 56.0668 91.1262 56.6261C91.7579 57.1871 92.0738 57.9051 92.0738 58.7786C92.0738 59.652 91.7579 60.3701 91.1262 60.9311C90.4944 61.4921 89.7056 61.7717 88.7613 61.7717C87.8171 61.7717 87.0283 61.4921 86.3965 60.9311C85.7647 60.3701 85.4489 59.652 85.4489 58.7786Z" fill="#F58634"/>
<path d="M56.0663 117.249C54.9823 117.249 53.9932 116.522 53.7066 115.426L46.4706 87.8126C46.1288 86.5077 46.909 85.1733 48.214 84.8316C49.5173 84.4898 50.8533 85.27 51.1951 86.575L58.4311 114.188C58.7729 115.493 57.9927 116.828 56.6877 117.169C56.4806 117.223 56.2717 117.249 56.068 117.249H56.0663Z" fill="#F2C489"/>
<path d="M70.5919 117.249C69.4267 117.249 68.3945 116.412 68.1891 115.224L63.4093 87.6108C63.1798 86.2816 64.0705 85.0181 65.3979 84.7885C66.727 84.5589 67.9906 85.4496 68.2201 86.777L72.9999 114.39C73.2294 115.719 72.3387 116.983 71.0113 117.213C70.8698 117.237 70.73 117.249 70.5919 117.249Z" fill="#F2C489"/>
<path d="M83.0806 117.249C81.7324 117.249 80.6398 116.156 80.6398 114.808V87.1947C80.6398 85.8466 81.7324 84.7539 83.0806 84.7539C84.4287 84.7539 85.5213 85.8466 85.5213 87.1947V114.808C85.5213 116.156 84.4287 117.249 83.0806 117.249Z" fill="#F2C489"/>
<path d="M144.338 123.834C142.759 123.834 141.221 123.677 139.733 123.373H139.731C141.221 123.677 142.761 123.834 144.34 123.834H144.338Z" fill="#E4F4E1"/>
<path d="M150.979 111.128C152.543 109.239 153.325 106.553 153.325 103.072V98.38C153.325 94.9104 152.539 92.2245 150.97 90.324C149.399 88.4235 147.186 87.4724 144.33 87.4724C141.473 87.4724 139.263 88.4166 137.7 90.305C136.136 92.1934 135.354 94.8793 135.354 98.361V103.072C135.354 106.531 136.139 109.21 137.708 111.11C139.277 113.011 141.497 113.96 144.366 113.96C147.235 113.96 149.415 113.016 150.979 111.128ZM142.063 108.021C141.578 107.13 141.337 105.721 141.337 103.798V97.2114C141.371 95.4887 141.623 94.201 142.089 93.3517C142.555 92.5024 143.303 92.0778 144.33 92.0778C145.357 92.0778 146.147 92.5352 146.632 93.4501C147.116 94.3649 147.359 95.7493 147.359 97.6015V103.976C147.347 105.83 147.1 107.19 146.615 108.057C146.13 108.925 145.381 109.358 144.366 109.358C143.351 109.358 142.548 108.913 142.063 108.021Z" fill="#E4F4E1"/>
</svg>
