<svg width="22" height="22" viewBox="0 0 22 22" fill="none" xmlns="http://www.w3.org/2000/svg">
<path d="M11.0001 19.9375C10.0944 19.9375 9.28043 19.4673 8.82027 18.6798C8.6296 18.3517 8.7396 17.9309 9.06777 17.7393C9.3941 17.5487 9.81577 17.6587 10.0083 17.9868C10.429 18.7082 11.5712 18.7082 11.9919 17.9868C12.1835 17.6587 12.6052 17.5487 12.9324 17.7393C13.2606 17.93 13.3715 18.3517 13.1799 18.6798C12.7198 19.4673 11.9058 19.9375 11.0001 19.9375ZM18.9522 16.7979C19.0668 16.5596 19.0347 16.2772 18.8706 16.071C18.8532 16.0499 17.183 13.9233 17.183 11.4583V8.24541C17.183 4.83633 14.4092 2.0625 11.0001 2.0625C7.59102 2.0625 4.81719 4.83633 4.81719 8.24541V11.4583C4.81719 13.9233 3.14702 16.0499 3.12961 16.071C2.96552 16.2772 2.93344 16.5605 3.04802 16.7979C3.1626 17.0353 3.40277 17.1875 3.66677 17.1875H18.3334C18.5974 17.1875 18.8376 17.0353 18.9522 16.7979ZM6.19219 11.4583V8.24541C6.19219 5.59441 8.3491 3.4375 11.0001 3.4375C13.6511 3.4375 15.808 5.59441 15.808 8.24541V11.4583C15.808 13.233 16.4955 14.8115 17.062 15.8125H4.93727C5.50469 14.8115 6.19219 13.233 6.19219 11.4583Z" fill="#878787"/>
</svg>
