<svg width="26" height="26" viewBox="0 0 26 26" fill="none" xmlns="http://www.w3.org/2000/svg">
<circle cx="13" cy="13" r="13" fill="#F3F3F3"/>
<path d="M12.9998 19.5C12.3411 19.5 11.7491 19.158 11.4145 18.5853C11.2758 18.3467 11.3558 18.0407 11.5945 17.9013C11.8318 17.7627 12.1385 17.8427 12.2785 18.0813C12.5845 18.606 13.4151 18.606 13.7211 18.0813C13.8605 17.8427 14.1671 17.7627 14.4051 17.9013C14.6438 18.04 14.7245 18.3467 14.5851 18.5853C14.2505 19.158 13.6585 19.5 12.9998 19.5ZM18.7831 17.2167C18.8665 17.0433 18.8431 16.838 18.7238 16.688C18.7111 16.6727 17.4965 15.126 17.4965 13.3333V10.9967C17.4965 8.51733 15.4791 6.5 12.9998 6.5C10.5205 6.5 8.50314 8.51733 8.50314 10.9967V13.3333C8.50314 15.126 7.28848 16.6727 7.27581 16.688C7.15648 16.838 7.13314 17.044 7.21647 17.2167C7.29981 17.3893 7.47448 17.5 7.66648 17.5H18.3331C18.5251 17.5 18.6998 17.3893 18.7831 17.2167ZM9.50314 13.3333V10.9967C9.50314 9.06866 11.0718 7.5 12.9998 7.5C14.9278 7.5 16.4965 9.06866 16.4965 10.9967V13.3333C16.4965 14.624 16.9965 15.772 17.4085 16.5H8.59048C9.00314 15.772 9.50314 14.624 9.50314 13.3333Z" fill="#121212"/>
</svg>
