<svg width="36" height="36" viewBox="0 0 36 36" fill="none" xmlns="http://www.w3.org/2000/svg">
<g clip-path="url(#clip0_263_1193)">
<path d="M19.6875 16.3125H7.875C7.56563 16.3125 7.3125 16.5656 7.3125 16.875V30.375C7.3125 30.6844 7.56563 30.9375 7.875 30.9375H19.6875V33.1875H0.5625V2.8125C0.5625 1.56938 1.56938 0.5625 2.8125 0.5625H3.9375L4.75312 2.18813C4.94438 2.57063 5.3325 2.8125 5.76 2.8125H14.0625C14.4169 2.8125 14.7488 2.64375 14.9625 2.3625L16.3125 0.5625H17.4375C18.6806 0.5625 19.6875 1.56938 19.6875 2.8125V16.3125ZM15.75 14.625C16.0594 14.625 16.3406 14.5013 16.5431 14.2931C16.7512 14.0906 16.875 13.8094 16.875 13.5C16.875 12.8813 16.3687 12.375 15.75 12.375C15.75 9.65812 13.815 7.38562 11.25 6.8625V5.90625C11.25 5.43937 10.8731 5.0625 10.4062 5.0625H9.84375C9.37687 5.0625 9 5.43937 9 5.90625V6.8625C6.435 7.38562 4.5 9.65812 4.5 12.375C4.19062 12.375 3.90938 12.4987 3.70688 12.7069C3.49875 12.9094 3.375 13.1906 3.375 13.5C3.375 14.1187 3.88125 14.625 4.5 14.625H15.75Z" fill="#02AF9E"/>
<path d="M18.2812 32.3438H1.96875C1.65825 32.3438 1.40625 32.0917 1.40625 31.7812V2.8125C1.40625 2.03569 2.03569 1.40625 2.8125 1.40625H3.41663L4.00106 2.57119C4.33519 3.23606 5.01581 3.65625 5.76 3.65625H14.0625C14.6739 3.65625 15.2618 3.36319 15.6341 2.87269L16.7344 1.40625H17.4375C18.2143 1.40625 18.8438 2.03569 18.8438 2.8125V31.7812C18.8438 32.0917 18.5917 32.3438 18.2812 32.3438Z" fill="#0DCEBB"/>
<path d="M0.5625 33.1875H19.6875C19.6875 34.4306 18.6806 35.4375 17.4375 35.4375H2.8125C1.56938 35.4375 0.5625 34.4306 0.5625 33.1875ZM16.3125 0.5625L14.9625 2.3625C14.7488 2.64375 14.4169 2.8125 14.0625 2.8125H5.76C5.3325 2.8125 4.94438 2.57063 4.75312 2.18813L3.9375 0.5625H16.3125Z" fill="#E2DEDE"/>
<path d="M15.75 12.375C16.3687 12.375 16.875 12.8812 16.875 13.5C16.875 13.8094 16.7513 14.0906 16.5431 14.2931C16.3406 14.5013 16.0594 14.625 15.75 14.625H4.5C3.88125 14.625 3.375 14.1187 3.375 13.5C3.375 13.1906 3.49875 12.9094 3.70688 12.7069C3.90938 12.4988 4.19063 12.375 4.5 12.375H15.75Z" fill="#999999"/>
<path d="M16.875 13.5C16.875 13.8094 16.7513 14.0906 16.5431 14.2931C16.3406 14.5013 16.0594 14.625 15.75 14.625H4.5C3.88125 14.625 3.375 14.1187 3.375 13.5H14.0625C14.3719 13.5 14.6531 13.3762 14.8556 13.1681C15.0638 12.9656 15.1875 12.6844 15.1875 12.375H15.75C16.3687 12.375 16.875 12.8812 16.875 13.5Z" fill="#808080"/>
<path d="M15.75 12.375H4.5C4.5 9.65812 6.435 7.38562 9 6.8625C9.36 6.78937 9.73688 6.75 10.125 6.75C10.5131 6.75 10.89 6.78937 11.25 6.8625C13.815 7.38562 15.75 9.65812 15.75 12.375Z" fill="#CCCCCC"/>
<path d="M15.75 12.375H13.5C13.5 9.65812 11.565 7.38562 9 6.8625C9.36 6.78937 9.73687 6.75 10.125 6.75C10.5131 6.75 10.89 6.78937 11.25 6.8625C13.815 7.38562 15.75 9.65812 15.75 12.375Z" fill="#B3B3B3"/>
<path d="M4.5 12.3749H6.75C6.75 11.1087 7.17187 9.93984 7.88119 8.99934C8.2755 8.47678 8.10731 7.74159 7.55494 7.38947L7.54256 7.38159C5.7375 8.31984 4.5 10.2042 4.5 12.3749Z" fill="#E6E6E6"/>
<path d="M11.25 5.90625V6.8625C10.89 6.78937 10.5131 6.75 10.125 6.75C9.73687 6.75 9.36 6.78937 9 6.8625V5.90625C9 5.43938 9.37688 5.0625 9.84375 5.0625H10.4062C10.8731 5.0625 11.25 5.43938 11.25 5.90625Z" fill="#999999"/>
<path d="M11.25 5.90625V6.8625C10.89 6.78937 10.5131 6.75 10.125 6.75V5.90625C10.125 5.54063 9.88875 5.22563 9.5625 5.11313C9.6525 5.07938 9.7425 5.0625 9.84375 5.0625H10.4062C10.8731 5.0625 11.25 5.43938 11.25 5.90625Z" fill="#808080"/>
<path d="M8.89081 7.59375C8.44418 7.59375 8.21637 8.15625 8.66356 8.15625C9.10962 8.15625 9.338 7.59375 8.89081 7.59375Z" fill="white"/>
<path d="M18.5625 14.625C18.5625 14.9344 18.4388 15.2156 18.2306 15.4181C18.0281 15.6263 17.7469 15.75 17.4375 15.75H6.1875C5.56875 15.75 5.0625 15.2437 5.0625 14.625H15.75C16.0594 14.625 16.3406 14.5013 16.5431 14.2931C16.7513 14.0906 16.875 13.8094 16.875 13.5H17.4375C18.0562 13.5 18.5625 14.0062 18.5625 14.625ZM17.4375 13.5H16.875C16.875 12.8812 16.3687 12.375 15.75 12.375C15.75 10.7888 15.0919 9.36 14.0344 8.33625C16.0369 9.19687 17.4375 11.1881 17.4375 13.5ZM12.9375 7.03125V7.50938C12.42 7.20563 11.8519 6.98625 11.25 6.8625V6.23813C11.34 6.20438 11.43 6.1875 11.5312 6.1875H12.0938C12.5606 6.1875 12.9375 6.56438 12.9375 7.03125Z" fill="#02AF9E"/>
<path d="M19.6875 33.1875C19.6875 34.4306 18.6806 35.4375 17.4375 35.4375H2.81248C1.97436 35.4375 1.24311 34.9762 0.85498 34.2956C0.94498 34.3069 1.03498 34.3125 1.12498 34.3125H15.75C16.5825 34.3125 17.3081 33.8625 17.6962 33.1875H19.6875ZM16.3125 0.5625L14.9625 2.3625C14.7487 2.64375 14.4169 2.8125 14.0625 2.8125H5.75998C5.33248 2.8125 4.94436 2.57063 4.75311 2.18813L4.49998 1.6875H12.375C12.7294 1.6875 13.0612 1.51875 13.275 1.2375L13.7812 0.5625H16.3125Z" fill="#C1AEAE"/>
<path d="M33.1875 19.6875V27.5625C32.5688 27.5625 32.0625 28.0688 32.0625 28.6875H21.375C24.1706 28.6875 26.4375 26.4206 26.4375 23.625C26.4375 20.8294 24.1706 18.5625 21.375 18.5625H32.0625C32.0625 19.1813 32.5688 19.6875 33.1875 19.6875ZM10.6875 18.5625H21.375C18.5794 18.5625 16.3125 20.8294 16.3125 23.625C16.3125 26.4206 18.5794 28.6875 21.375 28.6875H10.6875C10.6875 28.0688 10.1813 27.5625 9.5625 27.5625V19.6875C10.1813 19.6875 10.6875 19.1813 10.6875 18.5625Z" fill="#7AA822"/>
<path d="M33.1875 19.6875V27.5625C32.5688 27.5625 32.0625 28.0688 32.0625 28.6875H21.375C22.8713 28.6875 24.2213 28.035 25.1438 27H30.375C30.375 26.3812 30.8813 25.875 31.5 25.875V18.5625H32.0625C32.0625 19.1813 32.5688 19.6875 33.1875 19.6875ZM21.375 28.6875H10.6875C10.6875 28.0688 10.1813 27.5625 9.5625 27.5625V27H17.6062C18.5287 28.035 19.8787 28.6875 21.375 28.6875Z" fill="#607F0A"/>
<path d="M35.4375 16.875V30.375C35.4375 30.6844 35.1844 30.9375 34.875 30.9375H19.6875H7.875C7.56562 30.9375 7.3125 30.6844 7.3125 30.375V16.875C7.3125 16.5656 7.56562 16.3125 7.875 16.3125H19.6875H34.875C35.1844 16.3125 35.4375 16.5656 35.4375 16.875ZM33.1875 27.5625V19.6875C32.5688 19.6875 32.0625 19.1813 32.0625 18.5625H21.375H10.6875C10.6875 19.1813 10.1813 19.6875 9.5625 19.6875V27.5625C10.1813 27.5625 10.6875 28.0688 10.6875 28.6875H21.375H32.0625C32.0625 28.0688 32.5688 27.5625 33.1875 27.5625Z" fill="#ACDB52"/>
<path d="M35.4375 16.875V30.375C35.4375 30.6844 35.1844 30.9375 34.875 30.9375H7.875C7.56562 30.9375 7.3125 30.6844 7.3125 30.375V29.25H33.1875C33.4969 29.25 33.75 28.9969 33.75 28.6875V16.3125H34.875C35.1844 16.3125 35.4375 16.5656 35.4375 16.875Z" fill="#8AC926"/>
<path d="M21.375 28.6875C24.1709 28.6875 26.4375 26.4209 26.4375 23.625C26.4375 20.8291 24.1709 18.5625 21.375 18.5625C18.5791 18.5625 16.3125 20.8291 16.3125 23.625C16.3125 26.4209 18.5791 28.6875 21.375 28.6875Z" fill="#ACDB52"/>
<path d="M26.4375 23.6249C26.4375 26.4205 24.1707 28.6874 21.375 28.6874C20.5032 28.6874 19.6819 28.468 18.9619 28.0743C19.1982 28.108 19.44 28.1249 19.6875 28.1249C22.4832 28.1249 24.75 25.858 24.75 23.0624C24.75 21.1387 23.6813 19.468 22.1007 18.613C24.5532 18.9674 26.4375 21.0768 26.4375 23.6249Z" fill="#8AC926"/>
<path d="M2.38434 3.96912C3.28546 3.82624 3.23203 2.05549 2.32921 2.19893C1.42809 2.34181 1.48153 4.11256 2.38434 3.96912ZM2.36971 4.87418C2.82028 4.80274 2.71003 4.10243 2.2589 4.17387C1.80834 4.24531 1.91859 4.94562 2.36971 4.87418Z" fill="#59EFD2"/>
</g>
<defs>
<clipPath id="clip0_263_1193">
<rect width="36" height="36" fill="white"/>
</clipPath>
</defs>
</svg>
