<svg width="19" height="19" viewBox="0 0 19 19" fill="none" xmlns="http://www.w3.org/2000/svg">
<path d="M13.1037 17.2203C12.7403 17.2203 12.3746 17.1712 12.0136 17.0722C7.13301 15.7327 3.26888 11.871 1.92859 6.99355C1.62379 5.88442 1.79079 4.72858 2.40038 3.74058C3.01234 2.74783 4.01859 2.0472 5.16097 1.8192C5.92097 1.6672 6.67225 2.00604 7.0578 2.656L8.29516 4.74599C8.89604 5.7609 8.59748 7.06795 7.61502 7.72186L6.71975 8.31721C7.55654 10.0351 8.96401 11.4467 10.6748 12.2827L11.2782 11.3825C11.9361 10.4017 13.2431 10.108 14.2572 10.712L16.3496 11.9597C16.9972 12.346 17.332 13.102 17.1848 13.8399C16.9568 14.9822 16.2561 15.9884 15.2642 16.6004C14.5976 17.0105 13.8558 17.2203 13.1037 17.2203ZM5.52433 2.9687C5.48554 2.9687 5.44598 2.97267 5.40798 2.98059C4.57356 3.14763 3.85077 3.65032 3.41219 4.36361C2.97756 5.06819 2.858 5.89075 3.07492 6.67845C4.30438 11.1537 7.85024 14.698 12.3279 15.9267C13.1164 16.1428 13.9365 16.0225 14.6403 15.5887C15.3528 15.1493 15.8564 14.4257 16.0203 13.6055C16.0694 13.3593 15.9577 13.1068 15.7408 12.9777L13.6492 11.7301C13.1781 11.4498 12.5701 11.5868 12.2645 12.042L11.3818 13.3601C11.2235 13.596 10.918 13.6863 10.6599 13.577C8.31421 12.5962 6.40549 10.6835 5.42382 8.32907C5.31457 8.06624 5.40629 7.76383 5.643 7.60628L6.95806 6.73148C7.41406 6.42828 7.55257 5.82107 7.27311 5.35003L6.03574 3.26082C5.92728 3.07715 5.73095 2.9687 5.52433 2.9687Z" fill="#121212"/>
</svg>
