<svg width="26" height="26" viewBox="0 0 26 26" fill="none" xmlns="http://www.w3.org/2000/svg">
<circle cx="13" cy="13" r="13" fill="#F3F3F3"/>
<path d="M13 20.1667C12.9467 20.1667 12.8933 20.158 12.842 20.1406C11.7826 19.7873 6.5 17.748 6.5 12.2586V8.33333C6.5 8.09533 6.66802 7.88926 6.90202 7.84326C10.1554 7.19259 11.3087 6.62066 12.7694 5.89599C12.91 5.82599 13.0966 5.81671 13.2373 5.88671C14.678 6.61271 15.816 7.18659 19.0986 7.84326C19.3326 7.88992 19.5007 8.09533 19.5007 8.33333V12.2593C19.5007 17.7486 14.218 19.7879 13.1587 20.1413C13.1067 20.1579 13.0533 20.1667 13 20.1667ZM7.5 8.74137V12.2586C7.5 16.8353 11.7787 18.6987 13 19.1367C14.2213 18.6987 18.5 16.8346 18.5 12.2586V8.74137C15.5527 8.1247 14.3133 7.54592 13.0099 6.89192C11.6253 7.57659 10.4233 8.1307 7.5 8.74137ZM12.6947 14.6867L15.3613 12.02C15.5567 11.8247 15.5567 11.508 15.3613 11.3127C15.166 11.1173 14.8493 11.1173 14.654 11.3127L12.3407 13.626L11.3607 12.646C11.1653 12.4507 10.8487 12.4507 10.6533 12.646C10.458 12.8413 10.458 13.158 10.6533 13.3533L11.9867 14.6867C12.084 14.784 12.212 14.8333 12.34 14.8333C12.468 14.8333 12.5973 14.7847 12.6947 14.6867Z" fill="#121212"/>
</svg>
