<svg width="18" height="18" viewBox="0 0 18 18" fill="none" xmlns="http://www.w3.org/2000/svg">
<path d="M17.513 4.30809C17.512 4.30625 17.513 4.30444 17.5121 4.3026C17.5102 4.29802 17.5056 4.29527 17.5038 4.29069C17.149 3.64627 16.5963 3.11459 15.8978 2.80384L10.3978 0.359102C9.50958 -0.0350651 8.493 -0.0350651 7.60475 0.359102L2.10475 2.80384C1.40533 3.11459 0.853428 3.64627 0.498678 4.29069C0.496844 4.29527 0.492342 4.29802 0.490509 4.3026C0.489592 4.30444 0.490419 4.30625 0.489502 4.30809C0.220919 4.80217 0.0651855 5.35951 0.0651855 5.94434V12.0558C0.0651855 13.4124 0.866287 14.6453 2.10654 15.1972L7.60654 17.6419C8.04837 17.8381 8.52228 17.9353 8.9962 17.9371C8.99895 17.9371 9.00083 17.938 9.00358 17.938C9.00633 17.938 9.0081 17.9371 9.01085 17.9371C9.48477 17.9362 9.95868 17.8381 10.4005 17.6419L15.9005 15.1972C17.1408 14.6463 17.942 13.4134 17.942 12.0558V5.94434C17.9374 5.35951 17.7815 4.80125 17.513 4.30809ZM8.16211 1.61493C8.42794 1.49668 8.7148 1.4371 8.99989 1.4371C9.28497 1.4371 9.57183 1.49576 9.83767 1.61401L15.3377 4.05875C15.4935 4.12842 15.6301 4.22469 15.7612 4.32644L13.2559 5.44018L6.60192 2.30794L8.16211 1.61493ZM4.9418 3.04585L11.5959 6.17809L9.84326 6.95727C9.3061 7.19102 8.69094 7.191 8.1611 6.95908L2.23858 4.32644C2.36966 4.22469 2.50628 4.1275 2.66211 4.05875L4.9418 3.04585ZM2.66211 13.9395C1.91778 13.6086 1.43739 12.8689 1.43739 12.0549V5.94342C1.43739 5.79217 1.47034 5.64736 1.50151 5.50436L7.60654 8.21768C7.83479 8.31668 8.07131 8.38908 8.31239 8.43675V16.4319C8.26289 16.4145 8.21069 16.4044 8.16211 16.3833L2.66211 13.9395ZM16.5624 12.0549C16.5624 12.8689 16.082 13.6086 15.3377 13.9395L9.83767 16.3843C9.78908 16.4063 9.73689 16.4154 9.68739 16.4329V8.43675C9.92939 8.38817 10.1678 8.31575 10.3969 8.21584L12.5557 7.25609V8.89878C12.5557 9.27828 12.8637 9.58628 13.2432 9.58628C13.6227 9.58628 13.9307 9.27828 13.9307 8.89878V6.6456L16.4973 5.50525C16.5293 5.64917 16.5615 5.79309 16.5615 5.94434V12.0549H16.5624Z" fill="#878787"/>
</svg>
