<svg width="26" height="26" viewBox="0 0 26 26" fill="none" xmlns="http://www.w3.org/2000/svg">
<circle cx="13" cy="13" r="13" fill="#F3F3F3"/>
<path d="M20.1663 13.0002C20.1663 9.04816 16.9517 5.8335 12.9997 5.8335C9.04767 5.8335 5.83301 9.04816 5.83301 13.0002C5.83301 15.3135 6.939 17.3682 8.64567 18.6795C8.64834 18.6822 8.65236 18.6835 8.65503 18.6862C9.86236 19.6109 11.3657 20.1668 13.0003 20.1668C14.635 20.1668 16.1384 19.6109 17.3457 18.6862C17.3484 18.6835 17.3523 18.6822 17.355 18.6795C19.0603 17.3682 20.1663 15.3135 20.1663 13.0002ZM6.83301 13.0002C6.83301 9.5995 9.59901 6.8335 12.9997 6.8335C16.4003 6.8335 19.1663 9.5995 19.1663 13.0002C19.1663 14.6822 18.4877 16.2082 17.3917 17.3215C17.0923 16.0542 16.1343 14.8801 14.1396 14.8801H11.8597C9.86503 14.8801 8.90633 16.0542 8.60767 17.3215C7.51167 16.2082 6.83301 14.6822 6.83301 13.0002ZM9.5057 18.0762C9.54436 17.3922 9.85703 15.8801 11.8597 15.8801H14.1396C16.1423 15.8801 16.455 17.3922 16.4937 18.0762C15.4997 18.7628 14.2963 19.1668 12.9997 19.1668C11.703 19.1668 10.4997 18.7622 9.5057 18.0762ZM13.005 14.1668C14.383 14.1668 15.505 13.0455 15.505 11.6668C15.505 10.2882 14.383 9.16683 13.005 9.16683C11.627 9.16683 10.505 10.2882 10.505 11.6668C10.505 13.0455 11.6264 14.1668 13.005 14.1668ZM13.005 10.1668C13.8317 10.1668 14.505 10.8395 14.505 11.6668C14.505 12.4942 13.8317 13.1668 13.005 13.1668C12.1784 13.1668 11.505 12.4942 11.505 11.6668C11.505 10.8395 12.1784 10.1668 13.005 10.1668Z" fill="#121212"/>
</svg>
