<svg width="26" height="26" viewBox="0 0 26 26" fill="none" xmlns="http://www.w3.org/2000/svg">
<rect width="26" height="26" rx="13" fill="#F3F3F3"/>
<path d="M18 11.1667H16.8333V9C16.8333 7.388 15.9453 6.5 14.3333 6.5H9C7.388 6.5 6.5 7.388 6.5 9V17C6.5 18.612 7.388 19.5 9 19.5H17.6667C18.678 19.5 19.5 18.678 19.5 17.6667V12.6667C19.5 11.8393 18.8267 11.1667 18 11.1667ZM9 18.5C7.94867 18.5 7.5 18.0513 7.5 17V9C7.5 7.94867 7.94867 7.5 9 7.5H14.3333C15.3847 7.5 15.8333 7.94867 15.8333 9V17.6667C15.8333 17.9667 15.9054 18.25 16.034 18.5H9ZM18.5 17.6667C18.5 18.126 18.126 18.5 17.6667 18.5C17.2073 18.5 16.8333 18.126 16.8333 17.6667V12.1667H18C18.2753 12.1667 18.5 12.3907 18.5 12.6667V17.6667ZM14.5 10.3333C14.5 10.6093 14.276 10.8333 14 10.8333H11C10.724 10.8333 10.5 10.6093 10.5 10.3333C10.5 10.0573 10.724 9.83333 11 9.83333H14C14.276 9.83333 14.5 10.0573 14.5 10.3333ZM14.5 13C14.5 13.276 14.276 13.5 14 13.5H11C10.724 13.5 10.5 13.276 10.5 13C10.5 12.724 10.724 12.5 11 12.5H14C14.276 12.5 14.5 12.724 14.5 13ZM14.5 15.6667C14.5 15.9427 14.276 16.1667 14 16.1667H11C10.724 16.1667 10.5 15.9427 10.5 15.6667C10.5 15.3907 10.724 15.1667 11 15.1667H14C14.276 15.1667 14.5 15.3907 14.5 15.6667ZM9.83333 10.3333C9.83333 10.6093 9.60933 10.8333 9.33333 10.8333C9.05733 10.8333 8.83333 10.6093 8.83333 10.3333C8.83333 10.0573 9.05733 9.83333 9.33333 9.83333C9.60933 9.83333 9.83333 10.0573 9.83333 10.3333ZM9.83333 13C9.83333 13.276 9.60933 13.5 9.33333 13.5C9.05733 13.5 8.83333 13.276 8.83333 13C8.83333 12.724 9.05733 12.5 9.33333 12.5C9.60933 12.5 9.83333 12.724 9.83333 13ZM9.83333 15.6667C9.83333 15.9427 9.60933 16.1667 9.33333 16.1667C9.05733 16.1667 8.83333 15.9427 8.83333 15.6667C8.83333 15.3907 9.05733 15.1667 9.33333 15.1667C9.60933 15.1667 9.83333 15.3907 9.83333 15.6667Z" fill="black"/>
</svg>
