<svg width="26" height="26" viewBox="0 0 26 26" fill="none" xmlns="http://www.w3.org/2000/svg">
<g clip-path="url(#clip0_2466_1406)">
<mask id="mask0_2466_1406" style="mask-type:luminance" maskUnits="userSpaceOnUse" x="0" y="0" width="26" height="26">
<path d="M26 0H0V26H26V0Z" fill="white"/>
</mask>
<g mask="url(#mask0_2466_1406)">
<path d="M13 26C20.1797 26 26 20.1797 26 13C26 5.8203 20.1797 0 13 0C5.8203 0 0 5.8203 0 13C0 20.1797 5.8203 26 13 26Z" fill="#F3F3F3"/>
<path d="M16.2361 19.5C16.0434 19.5 15.85 19.454 15.6707 19.36L13.0788 18.0033C13.0294 17.9773 12.9707 17.9773 12.9214 18.0033L10.3314 19.3587C9.91869 19.5747 9.42809 19.5387 9.05076 19.264C8.67542 18.99 8.49007 18.536 8.56874 18.078L9.06272 15.2107C9.07205 15.1567 9.05402 15.102 9.01536 15.064L6.85471 12.9667C6.53404 12.6553 6.42008 12.1973 6.55808 11.7713C6.69608 11.3453 7.05736 11.0407 7.50136 10.976L10.4894 10.544C10.5441 10.536 10.5907 10.502 10.6147 10.4533L11.91 7.84135C12.1167 7.42468 12.5341 7.16602 12.9994 7.16602C13.4647 7.16602 13.8821 7.42468 14.0888 7.84135L15.3834 10.4527C15.408 10.502 15.4547 10.536 15.5094 10.544L18.4974 10.976C18.9414 11.04 19.3027 11.3447 19.4407 11.7713C19.5787 12.1973 19.4647 12.6553 19.144 12.9667L16.984 15.0633C16.944 15.102 16.9268 15.1567 16.9361 15.2107L17.4301 18.0793C17.5087 18.5367 17.3247 18.9907 16.9487 19.264C16.7367 19.4207 16.4867 19.5 16.2361 19.5ZM13.0001 16.984C13.1861 16.984 13.3727 17.028 13.542 17.1167L16.1341 18.4733C16.2374 18.528 16.3214 18.486 16.3614 18.4567C16.4014 18.428 16.4647 18.362 16.4454 18.25L15.9514 15.3807C15.8861 15.0007 16.0127 14.614 16.2894 14.346L18.4487 12.25C18.5134 12.1873 18.5027 12.1166 18.4907 12.0806C18.4787 12.044 18.4454 11.98 18.3554 11.9667L15.3674 11.5347C14.9867 11.48 14.6581 11.2413 14.4881 10.8973L13.1941 8.28666C13.1427 8.18266 13.0507 8.16732 13.0007 8.16732C12.9507 8.16732 12.8588 8.18266 12.8074 8.28666L11.5128 10.898C11.3434 11.2413 11.0148 11.48 10.6341 11.5347L7.64605 11.9667C7.55605 11.98 7.52205 12.0433 7.51072 12.0806C7.49872 12.1173 7.48871 12.1873 7.55271 12.25L9.7127 14.3467C9.9887 14.614 10.1154 15.0007 10.05 15.3807L9.55604 18.248C9.53671 18.3607 9.60076 18.4267 9.64076 18.456C9.6821 18.4853 9.76336 18.5267 9.86936 18.4727L12.4594 17.1174C12.6274 17.0287 12.8141 16.984 13.0001 16.984Z" fill="#121212"/>
</g>
</g>
<defs>
<clipPath id="clip0_2466_1406">
<rect width="26" height="26" fill="white"/>
</clipPath>
</defs>
</svg>
