<svg width="26" height="26" viewBox="0 0 26 26" fill="none" xmlns="http://www.w3.org/2000/svg">
<rect width="26" height="26" rx="13" fill="#F3F3F3"/>
<path d="M19.5188 15.6572C19.023 15.3767 18.4335 15.3827 17.943 15.6775L16.4655 16.564C16.2337 15.9085 15.6075 15.4375 14.874 15.4375H10.749C10.2683 15.4375 9.83101 15.61 9.48001 15.8867C9.23926 15.6137 8.89127 15.4375 8.49902 15.4375H6.99902C6.27527 15.4375 5.68652 16.0262 5.68652 16.75V19.75C5.68652 20.4738 6.27527 21.0625 6.99902 21.0625H8.49902C8.89052 21.0625 9.23926 20.8863 9.48001 20.6133C9.83101 20.89 10.2683 21.0625 10.749 21.0625H14.9467C15.753 21.0625 16.5435 20.785 17.1727 20.2817L19.725 18.2395C20.0978 17.941 20.3115 17.4955 20.3115 17.0185C20.3123 16.4478 20.0153 15.9392 19.5188 15.6572ZM8.68726 19.75C8.68726 19.8535 8.60326 19.9375 8.49976 19.9375H6.99976C6.89626 19.9375 6.81226 19.8535 6.81226 19.75V16.75C6.81226 16.6465 6.89626 16.5625 6.99976 16.5625H8.49976C8.60326 16.5625 8.68726 16.6465 8.68726 16.75V17.5V19V19.75ZM19.0223 17.3612L16.47 19.4035C16.0402 19.7477 15.4988 19.9375 14.9475 19.9375H10.7498C10.233 19.9375 9.81226 19.5168 9.81226 19V17.5C9.81226 16.9832 10.233 16.5625 10.7498 16.5625H14.8748C15.1845 16.5625 15.4373 16.8145 15.4373 17.125C15.4373 17.4355 15.1845 17.6875 14.8748 17.6875H12.2498C11.9393 17.6875 11.6873 17.9395 11.6873 18.25C11.6873 18.5605 11.9393 18.8125 12.2498 18.8125H14.8748C15.507 18.8125 16.059 18.463 16.3485 17.947L18.522 16.6428C18.7215 16.5228 18.8985 16.5992 18.9645 16.6375C19.0313 16.675 19.1873 16.7883 19.1873 17.0193C19.1873 17.1528 19.1273 17.278 19.0223 17.3612ZM13.0035 8.6875C14.0378 8.6875 14.8785 7.846 14.8785 6.8125C14.8785 5.779 14.0378 4.9375 13.0035 4.9375C11.9693 4.9375 11.1285 5.779 11.1285 6.8125C11.1285 7.846 11.9693 8.6875 13.0035 8.6875ZM13.0035 6.0625C13.4175 6.0625 13.7535 6.39925 13.7535 6.8125C13.7535 7.22575 13.4175 7.5625 13.0035 7.5625C12.5895 7.5625 12.2535 7.22575 12.2535 6.8125C12.2535 6.39925 12.5895 6.0625 13.0035 6.0625ZM11.5005 13.5625H14.499C15.5558 13.5625 16.1873 12.934 16.1873 11.8818C16.1873 10.6645 15.4335 9.4375 13.7498 9.4375H12.2498C10.566 9.4375 9.81226 10.6653 9.81226 11.8818C9.81226 12.934 10.4437 13.5625 11.5005 13.5625ZM12.2498 10.5625H13.7498C14.8913 10.5625 15.0623 11.389 15.0623 11.8818C15.0623 12.313 14.9363 12.4375 14.499 12.4375H11.5005C11.0632 12.4375 10.9373 12.313 10.9373 11.8818C10.9373 11.389 11.1083 10.5625 12.2498 10.5625Z" fill="#121212"/>
</svg>
