<svg width="30" height="30" viewBox="0 0 30 30" fill="none" xmlns="http://www.w3.org/2000/svg">
<path d="M15 2C7.83126 2 2 7.83246 2 15C2 22.1675 7.83126 28 15 28C22.1687 28 28 22.1675 28 15C28 7.83246 22.1687 2 15 2ZM15 26.186C8.83135 26.186 3.81395 21.1687 3.81395 15C3.81395 8.83135 8.83135 3.81395 15 3.81395C21.1687 3.81395 26.186 8.83135 26.186 15C26.186 21.1687 21.1687 26.186 15 26.186ZM19.2688 12.0131L16.2819 15L19.2688 17.9869C19.6232 18.3413 19.6232 18.9157 19.2688 19.2701C19.0923 19.4466 18.8601 19.5361 18.6279 19.5361C18.3957 19.5361 18.1635 19.4478 17.987 19.2701L15 16.283L12.013 19.2701C11.8365 19.4466 11.6043 19.5361 11.3721 19.5361C11.1399 19.5361 10.9077 19.4478 10.7312 19.2701C10.3768 18.9157 10.3768 18.3413 10.7312 17.9869L13.7181 15L10.7312 12.0131C10.3768 11.6587 10.3768 11.0843 10.7312 10.7299C11.0855 10.3756 11.6599 10.3756 12.0142 10.7299L15.0012 13.717L17.9882 10.7299C18.3425 10.3756 18.9169 10.3756 19.2713 10.7299C19.6232 11.0843 19.6232 11.6599 19.2688 12.0131Z" fill="#FF0000"/>
</svg>
