<svg width="13" height="14" viewBox="0 0 13 14" fill="none" xmlns="http://www.w3.org/2000/svg">
<path d="M9.66667 3.16667H10.8979C9.87662 2.114 8.47593 1.5 6.98193 1.5C3.95927 1.5 1.49935 3.96733 1.49935 7C1.49935 10.0327 3.9586 12.5 6.98193 12.5C9.08193 12.5 10.9606 11.3299 11.884 9.44662C12.006 9.19928 12.3047 9.09527 12.5534 9.21794C12.8014 9.33927 12.9034 9.63872 12.7827 9.88672C11.6894 12.1154 9.46741 13.5 6.98275 13.5C3.40875 13.5 0.5 10.584 0.5 7C0.5 3.416 3.40808 0.5 6.98275 0.5C8.85675 0.5 10.6127 1.3093 11.8333 2.69596V1C11.8333 0.724 12.0573 0.5 12.3333 0.5C12.6093 0.5 12.8333 0.724 12.8333 1V3.66667C12.8333 3.94267 12.6093 4.16667 12.3333 4.16667H9.66667C9.39067 4.16667 9.16667 3.94267 9.16667 3.66667C9.16667 3.39067 9.39067 3.16667 9.66667 3.16667ZM7 3.83333C6.724 3.83333 6.5 4.05733 6.5 4.33333V7C6.5 7.13267 6.55265 7.26002 6.64665 7.35335L7.97998 8.68669C8.07731 8.78402 8.20533 8.83333 8.33333 8.83333C8.46133 8.83333 8.58935 8.78469 8.68669 8.68669C8.88202 8.49135 8.88202 8.17466 8.68669 7.97933L7.5 6.79264V4.33333C7.5 4.05733 7.276 3.83333 7 3.83333Z" fill="#8C8C8C"/>
</svg>
