<svg width="26" height="26" viewBox="0 0 26 26" fill="none" xmlns="http://www.w3.org/2000/svg">
<circle cx="13" cy="13" r="13" fill="#F3F3F3"/>
<path d="M13.0003 6.5C9.78366 6.5 7.16699 9.11667 7.16699 12.3333C7.16699 15.7453 10.2983 17.8133 12.3703 19.182L12.723 19.416C12.807 19.472 12.9037 19.5 13.0003 19.5C13.097 19.5 13.1937 19.472 13.2777 19.416L13.6303 19.182C15.7023 17.8133 18.8337 15.7453 18.8337 12.3333C18.8337 9.11667 16.217 6.5 13.0003 6.5ZM13.0797 18.3473L13.0003 18.4001L12.921 18.3473C10.9143 17.022 8.16699 15.2073 8.16699 12.3333C8.16699 9.668 10.335 7.5 13.0003 7.5C15.6657 7.5 17.8337 9.668 17.8337 12.3333C17.8337 15.2073 15.0857 17.0227 13.0797 18.3473ZM13.0003 10.1667C11.8057 10.1667 10.8337 11.1387 10.8337 12.3333C10.8337 13.528 11.8057 14.5 13.0003 14.5C14.195 14.5 15.167 13.528 15.167 12.3333C15.167 11.1387 14.195 10.1667 13.0003 10.1667ZM13.0003 13.5C12.357 13.5 11.8337 12.9767 11.8337 12.3333C11.8337 11.69 12.357 11.1667 13.0003 11.1667C13.6437 11.1667 14.167 11.69 14.167 12.3333C14.167 12.9767 13.6437 13.5 13.0003 13.5Z" fill="#121212"/>
</svg>
