<svg width="19" height="19" viewBox="0 0 19 19" fill="none" xmlns="http://www.w3.org/2000/svg">
<path d="M17.0446 16.2054L14.0038 13.1646C15.0203 11.9589 15.6354 10.4049 15.6354 8.70833C15.6354 4.88854 12.5281 1.78125 8.70833 1.78125C4.88854 1.78125 1.78125 4.88854 1.78125 8.70833C1.78125 12.5281 4.88854 15.6354 8.70833 15.6354C10.4049 15.6354 11.9589 15.0203 13.1646 14.0038L16.2054 17.0446C16.321 17.1602 16.473 17.2188 16.625 17.2188C16.777 17.2188 16.929 17.161 17.0446 17.0446C17.2766 16.8134 17.2766 16.4374 17.0446 16.2054ZM2.96875 8.70833C2.96875 5.54325 5.54325 2.96875 8.70833 2.96875C11.8734 2.96875 14.4479 5.54325 14.4479 8.70833C14.4479 11.8734 11.8734 14.4479 8.70833 14.4479C5.54325 14.4479 2.96875 11.8734 2.96875 8.70833Z" fill="#121212"/>
</svg>
