<svg width="22" height="20" viewBox="0 0 22 20" fill="none" xmlns="http://www.w3.org/2000/svg">
<path d="M21.3755 0.76V3.568H18.4895V20H15.1355V12.538L12.0935 12.512C12.1455 12.8413 12.1715 13.162 12.1715 13.474C12.1715 14.9993 11.6862 16.2213 10.7155 17.14C9.74484 18.0587 8.45351 18.518 6.84151 18.518C5.66284 18.518 4.61417 18.2927 3.69551 17.842C2.79417 17.3913 2.09217 16.7587 1.58951 15.944C1.08684 15.112 0.835508 14.1673 0.835508 13.11H3.98151C3.98151 13.838 4.22417 14.4447 4.70951 14.93C5.19484 15.398 5.82751 15.632 6.60751 15.632C7.38751 15.632 8.00284 15.4067 8.45351 14.956C8.90417 14.488 9.12951 13.89 9.12951 13.162C9.12951 12.4513 8.88684 11.8533 8.40151 11.368C7.91617 10.8653 7.19684 10.614 6.24351 10.614H5.12551V7.91H6.24351C7.07551 7.91 7.72551 7.69333 8.19351 7.26C8.66151 6.82667 8.89551 6.298 8.89551 5.674C8.89551 4.98067 8.67018 4.426 8.21951 4.01C7.78617 3.57667 7.24017 3.36 6.58151 3.36C5.87084 3.36 5.28151 3.568 4.81351 3.984C4.34551 4.4 4.11151 4.93733 4.11151 5.596H1.01751C1.01751 4.59067 1.25151 3.70667 1.71951 2.944C2.18751 2.164 2.83751 1.566 3.66951 1.15C4.51884 0.734 5.48951 0.526 6.58151 0.526C8.17617 0.526 9.45884 0.950666 10.4295 1.8C11.4002 2.64933 11.8855 3.78467 11.8855 5.206C11.8855 6.15933 11.6342 6.99133 11.1315 7.702C10.6288 8.39533 9.91817 8.88067 8.99951 9.158V9.21C9.45018 9.29667 9.88351 9.47867 10.2995 9.756H15.1355V0.76H21.3755Z" fill="#6D6D6D"/>
</svg>
