<svg width="26" height="26" viewBox="0 0 26 26" fill="none" xmlns="http://www.w3.org/2000/svg">
<rect width="26" height="26" rx="13" fill="#F3F3F3"/>
<path d="M18 9.64423L17.6689 10.6635H9L9.32107 9.64423H18ZM15.01 20L9.82274 14.0865L9.81271 13.2308H11.398C12.1739 13.2308 12.8161 13.0897 13.3244 12.8077C13.8328 12.5256 14.2174 12.1538 14.4783 11.6923C14.7391 11.2308 14.8696 10.734 14.8696 10.2019C14.8696 9.5609 14.7258 9.00321 14.4381 8.52885C14.1505 8.05449 13.7291 7.6859 13.1739 7.42308C12.6187 7.15385 11.9365 7.01923 11.1271 7.01923H9.1505L9.49164 6H11.1271C12.1706 6 13.0635 6.16667 13.806 6.5C14.5485 6.82692 15.1137 7.30449 15.5017 7.93269C15.8963 8.5609 16.0936 9.32051 16.0936 10.2115C16.0936 10.9359 15.9365 11.6058 15.6221 12.2212C15.3144 12.8301 14.8227 13.3205 14.1472 13.6923C13.4783 14.0577 12.5987 14.2404 11.5084 14.2404L16.4348 19.875V20H15.01ZM18 6L17.6689 7.01923H9.89298L10.2241 6H18Z" fill="black"/>
</svg>
