<svg width="16" height="16" viewBox="0 0 16 16" fill="none" xmlns="http://www.w3.org/2000/svg">
<path d="M12.5007 9.6875C11.4822 9.6875 10.5965 10.2372 10.103 11.051L6.10468 9.05226C6.23668 8.72676 6.31323 8.37275 6.31323 8C6.31323 7.62725 6.23668 7.27324 6.10468 6.94774L10.103 4.94901C10.5965 5.76201 11.4822 6.3125 12.5007 6.3125C14.051 6.3125 15.3132 5.051 15.3132 3.5C15.3132 1.949 14.051 0.6875 12.5007 0.6875C10.9505 0.6875 9.68823 1.949 9.68823 3.5C9.68823 3.62975 9.70925 3.75426 9.7265 3.87951L5.47772 6.00351C4.96922 5.49951 4.271 5.1875 3.5 5.1875C1.94975 5.1875 0.6875 6.449 0.6875 8C0.6875 9.551 1.94975 10.8125 3.5 10.8125C4.27025 10.8125 4.96922 10.4997 5.47772 9.99649L9.7265 12.1205C9.70925 12.2457 9.68823 12.3702 9.68823 12.5C9.68823 14.051 10.9505 15.3125 12.5007 15.3125C14.051 15.3125 15.3132 14.051 15.3132 12.5C15.3132 10.949 14.051 9.6875 12.5007 9.6875ZM12.5007 1.8125C13.4307 1.8125 14.1882 2.56925 14.1882 3.5C14.1882 4.43075 13.4307 5.1875 12.5007 5.1875C11.5707 5.1875 10.8132 4.43075 10.8132 3.5C10.8132 2.56925 11.5707 1.8125 12.5007 1.8125ZM3.50073 9.6875C2.57073 9.6875 1.81323 8.93075 1.81323 8C1.81323 7.06925 2.57073 6.3125 3.50073 6.3125C4.43073 6.3125 5.18823 7.06925 5.18823 8C5.18823 8.93075 4.43073 9.6875 3.50073 9.6875ZM12.5007 14.1875C11.5707 14.1875 10.8132 13.4307 10.8132 12.5C10.8132 11.5693 11.5707 10.8125 12.5007 10.8125C13.4307 10.8125 14.1882 11.5693 14.1882 12.5C14.1882 13.4307 13.4307 14.1875 12.5007 14.1875Z" fill="#696969"/>
</svg>
