<svg width="18" height="18" viewBox="0 0 18 18" fill="none" xmlns="http://www.w3.org/2000/svg">
<path d="M7.8707 11.2914V14.0414C7.8707 14.4209 7.5627 14.7289 7.1832 14.7289C6.8037 14.7289 6.4957 14.4209 6.4957 14.0414V11.2914C6.4957 10.9119 6.8037 10.6039 7.1832 10.6039C7.5627 10.6039 7.8707 10.9119 7.8707 11.2914ZM10.8499 10.6039C10.4704 10.6039 10.1624 10.9119 10.1624 11.2914V14.0414C10.1624 14.4209 10.4704 14.7289 10.8499 14.7289C11.2294 14.7289 11.5374 14.4209 11.5374 14.0414V11.2914C11.5374 10.9119 11.2294 10.6039 10.8499 10.6039ZM16.5415 8.49373L15.9072 14.8417C15.6991 16.9243 14.5807 17.9372 12.487 17.9372H5.54792C3.45426 17.9372 2.33505 16.9252 2.12788 14.8417L1.49532 8.51298C0.651071 8.10506 0.0634766 7.24799 0.0634766 6.24974C0.0634766 4.85915 1.19373 3.7289 2.58431 3.7289H4.56154L6.57917 0.394069C6.77534 0.0695688 7.19612 -0.0349367 7.52337 0.162147C7.84787 0.358313 7.9523 0.781826 7.75522 1.10633L6.16851 3.72983H11.8069L10.244 1.10265C10.0497 0.776314 10.157 0.354648 10.4833 0.160314C10.8096 -0.0349357 11.2312 0.0741491 11.4256 0.399566L13.4074 3.73074H15.4167C16.8073 3.73074 17.9376 4.86099 17.9376 6.25157C17.9376 7.23332 17.3656 8.07848 16.5415 8.49373ZM1.43758 6.24974C1.43758 6.88132 1.95183 7.39557 2.58341 7.39557H15.4167C16.0483 7.39557 16.5626 6.88132 16.5626 6.24974C16.5626 5.61815 16.0483 5.1039 15.4167 5.1039H2.58341C1.95183 5.1039 1.43758 5.61815 1.43758 6.24974ZM15.1325 8.77057H2.90154L3.4946 14.7051C3.6156 15.9096 3.97769 16.5622 5.54703 16.5622H12.4861C14.0472 16.5622 14.4203 15.8812 14.5386 14.7051L15.1325 8.77057Z" fill="#878787"/>
</svg>
