<svg width="22" height="22" viewBox="0 0 22 22" fill="none" xmlns="http://www.w3.org/2000/svg">
<path d="M9.41418 19.2501C9.41418 19.8826 8.90085 20.3959 8.26835 20.3959C7.63677 20.3959 7.11793 19.8826 7.11793 19.2501C7.11793 18.6176 7.62668 18.1042 8.25918 18.1042H8.26835C8.90085 18.1042 9.41418 18.6176 9.41418 19.2501ZM15.6017 18.1042H15.5925C14.96 18.1042 14.4513 18.6176 14.4513 19.2501C14.4513 19.8826 14.9692 20.3959 15.6017 20.3959C16.2342 20.3959 16.7475 19.8826 16.7475 19.2501C16.7475 18.6176 16.2342 18.1042 15.6017 18.1042ZM19.8962 7.78439L18.9668 13.4366C18.7257 14.7621 18.1262 16.2709 15.5833 16.2709H8.00618C6.76043 16.2709 5.68697 15.3405 5.51097 14.1066L4.12679 4.42206C4.04612 3.86106 3.55943 3.43848 2.99293 3.43848H2.75C2.3705 3.43848 2.0625 3.13048 2.0625 2.75098C2.0625 2.37148 2.3705 2.06348 2.75 2.06348H2.99383C4.23958 2.06348 5.31303 2.99389 5.48903 4.22772L5.57329 4.81348H17.4167C18.1665 4.81348 18.8724 5.14347 19.3527 5.71914C19.8321 6.29389 20.031 7.04739 19.8962 7.78439ZM17.6119 13.2028L17.71 12.6042H11.9167C11.5372 12.6042 11.2292 12.2962 11.2292 11.9167C11.2292 11.5372 11.5372 11.2292 11.9167 11.2292H17.9364L18.5415 7.54971C18.6047 7.20321 18.5148 6.86039 18.2957 6.59914C18.0767 6.33789 17.7568 6.18755 17.4158 6.18755H5.76855L6.8722 13.9123C6.95287 14.4733 7.43967 14.8959 8.00618 14.8959H15.5833C17.0473 14.8959 17.4038 14.3496 17.6119 13.2028Z" fill="#878787"/>
</svg>
