<svg width="23" height="14" viewBox="0 0 23 14" fill="none" xmlns="http://www.w3.org/2000/svg">
<path d="M11.8033 13.312C9.87927 13.312 8.22394 13.1213 6.83727 12.74C5.46794 12.3587 4.34994 11.83 3.48327 11.154C2.63394 10.478 2.00127 9.698 1.58527 8.814C1.18661 7.91267 0.987273 6.942 0.987273 5.902C0.987273 4.68867 1.22127 3.64 1.68927 2.756C2.15727 1.872 2.81594 1.196 3.66527 0.727999C4.53194 0.242666 5.53727 0 6.68127 0C7.58261 0 8.33661 0.173333 8.94327 0.52C9.56727 0.866666 10.0353 1.326 10.3473 1.898C10.6766 2.47 10.8413 3.10267 10.8413 3.796C10.8413 4.628 10.6679 5.33 10.3213 5.902C9.99194 6.45667 9.48927 6.88133 8.81327 7.176C8.13727 7.45333 7.30527 7.592 6.31727 7.592C5.41594 7.592 4.63594 7.39267 3.97727 6.994C3.33594 6.578 2.81594 6.19667 2.41727 5.85L3.01527 3.406C3.22327 3.666 3.46594 3.926 3.74327 4.186C4.03794 4.446 4.36727 4.66267 4.73127 4.836C5.09527 4.992 5.48527 5.07 5.90127 5.07C6.42127 5.07 6.84594 4.97467 7.17527 4.784C7.52194 4.576 7.69527 4.238 7.69527 3.77C7.69527 3.47533 7.59127 3.20667 7.38327 2.964C7.17527 2.704 6.87194 2.574 6.47327 2.574C5.86661 2.574 5.36394 2.834 4.96527 3.354C4.56661 3.85667 4.36727 4.46333 4.36727 5.174V6.214C4.36727 6.89 4.60127 7.53133 5.06927 8.138C5.53727 8.74467 6.31727 9.23867 7.40927 9.62C8.51861 9.984 10.0179 10.166 11.9073 10.166C14.5073 10.166 16.4053 9.81933 17.6013 9.126C18.7973 8.41533 19.3953 7.228 19.3953 5.564C19.3953 5.02667 19.3086 4.56733 19.1353 4.186C18.9619 3.78733 18.7106 3.484 18.3813 3.276C18.0693 3.05067 17.6879 2.938 17.2373 2.938C16.8213 2.938 16.4746 3.05933 16.1973 3.302C15.9199 3.54467 15.7813 3.89133 15.7813 4.342C15.7813 4.77533 15.9286 5.15667 16.2233 5.486C16.5353 5.798 16.9599 6.04067 17.4973 6.214V8.528H10.3733V5.876H14.1953L13.7533 5.98C13.4239 5.63333 13.1726 5.23467 12.9993 4.784C12.8259 4.316 12.7393 3.91733 12.7393 3.588C12.7393 2.92933 12.9039 2.33133 13.2333 1.794C13.5799 1.23933 14.0826 0.805999 14.7413 0.493999C15.3999 0.164666 16.1886 0 17.1073 0C18.3033 0 19.3433 0.234 20.2273 0.701999C21.1113 1.17 21.7959 1.82867 22.2813 2.678C22.7666 3.52733 23.0093 4.524 23.0093 5.668C23.0093 6.916 22.7579 8.01667 22.2553 8.97C21.7526 9.906 21.0159 10.7033 20.0453 11.362C19.0919 12.0033 17.9219 12.4887 16.5353 12.818C15.1486 13.1473 13.5713 13.312 11.8033 13.312Z" fill="#6D6D6D"/>
</svg>
