<svg width="26" height="26" viewBox="0 0 26 26" fill="none" xmlns="http://www.w3.org/2000/svg">
<circle cx="13" cy="13" r="13" fill="#F3F3F3"/>
<path d="M16.3337 6.5H9.66699C8.05499 6.5 7.16699 7.388 7.16699 9V17C7.16699 18.612 8.05499 19.5 9.66699 19.5H16.3337C17.9457 19.5 18.8337 18.612 18.8337 17V9C18.8337 7.388 17.9457 6.5 16.3337 6.5ZM17.8337 17C17.8337 18.0513 17.385 18.5 16.3337 18.5H9.66699C8.61566 18.5 8.16699 18.0513 8.16699 17V9C8.16699 7.94867 8.61566 7.5 9.66699 7.5H16.3337C17.385 7.5 17.8337 7.94867 17.8337 9V17ZM16.5003 10.3333C16.5003 10.6093 16.2763 10.8333 16.0003 10.8333H13.3337C13.0577 10.8333 12.8337 10.6093 12.8337 10.3333C12.8337 10.0573 13.0577 9.83333 13.3337 9.83333H16.0003C16.2763 9.83333 16.5003 10.0573 16.5003 10.3333ZM16.5003 13C16.5003 13.276 16.2763 13.5 16.0003 13.5H13.3337C13.0577 13.5 12.8337 13.276 12.8337 13C12.8337 12.724 13.0577 12.5 13.3337 12.5H16.0003C16.2763 12.5 16.5003 12.724 16.5003 13ZM11.687 9.53532C11.8823 9.73065 11.8823 10.0473 11.687 10.2427L10.7983 11.1313C10.701 11.2287 10.573 11.278 10.445 11.278C10.3177 11.278 10.189 11.2293 10.0916 11.132L9.64697 10.6873C9.45164 10.492 9.45164 10.1753 9.64697 9.97998C9.84164 9.78531 10.1583 9.78465 10.3543 9.97998L10.4456 10.0713L10.981 9.53601C11.1756 9.34001 11.4917 9.33999 11.687 9.53532ZM11.687 12.202C11.8823 12.3973 11.8823 12.714 11.687 12.9093L10.7983 13.798C10.701 13.8953 10.573 13.9447 10.445 13.9447C10.3177 13.9447 10.189 13.896 10.0916 13.7987L9.64697 13.354C9.45164 13.1587 9.45164 12.842 9.64697 12.6466C9.84164 12.452 10.1583 12.4513 10.3543 12.6466L10.4456 12.738L10.981 12.2027C11.1756 12.0067 11.4917 12.0067 11.687 12.202ZM16.5003 15.6667C16.5003 15.9427 16.2763 16.1667 16.0003 16.1667H13.3337C13.0577 16.1667 12.8337 15.9427 12.8337 15.6667C12.8337 15.3907 13.0577 15.1667 13.3337 15.1667H16.0003C16.2763 15.1667 16.5003 15.3907 16.5003 15.6667ZM11.687 14.8687C11.8823 15.064 11.8823 15.3807 11.687 15.576L10.7983 16.4647C10.701 16.562 10.573 16.6113 10.445 16.6113C10.3177 16.6113 10.189 16.5627 10.0916 16.4653L9.64697 16.0207C9.45164 15.8253 9.45164 15.5086 9.64697 15.3133C9.84164 15.1186 10.1583 15.118 10.3543 15.3133L10.4456 15.4047L10.981 14.8693C11.1756 14.6733 11.4917 14.6733 11.687 14.8687Z" fill="#121212"/>
</svg>
