<svg width="25" height="16" viewBox="0 0 25 16" fill="none" xmlns="http://www.w3.org/2000/svg">
<path d="M8.82241 13.478C8.07708 13.478 7.34041 13.3653 6.61241 13.14C5.88441 12.9147 5.19108 12.5333 4.53241 11.996C3.87375 11.4413 3.24975 10.696 2.66041 9.76L3.25841 7.472C4.17708 7.33333 4.90508 7.082 5.44241 6.718C5.99708 6.354 6.27441 5.782 6.27441 5.002C6.27441 4.41267 6.06641 3.97067 5.65041 3.676C5.23441 3.364 4.65375 3.208 3.90841 3.208C3.52708 3.208 3.11975 3.25133 2.68641 3.338C2.27041 3.40733 1.83708 3.53733 1.38641 3.728L0.398414 1.128C0.970414 0.885333 1.57708 0.694666 2.21841 0.555999C2.87708 0.399999 3.55308 0.321999 4.24641 0.321999C5.39041 0.321999 6.36108 0.512666 7.15841 0.893999C7.97308 1.27533 8.58841 1.82133 9.00441 2.532C9.43775 3.22533 9.65441 4.05733 9.65441 5.028C9.65441 6.10267 9.36841 7.03867 8.79641 7.836C8.22441 8.63333 7.44441 9.24867 6.45641 9.682C5.46841 10.1153 4.35041 10.332 3.10241 10.332C2.54775 10.332 2.07108 10.2453 1.67241 10.072C1.27375 9.89867 0.970414 9.64733 0.762414 9.318C0.554414 8.98867 0.450414 8.60733 0.450414 8.174C0.450414 7.63667 0.632414 7.19467 0.996414 6.848C1.37775 6.50133 1.89775 6.328 2.55641 6.328C3.11108 6.328 3.62241 6.44067 4.09041 6.666C4.55841 6.874 5.01775 7.24667 5.46841 7.784L5.59841 8.72C6.10108 9.48267 6.61241 9.98533 7.13241 10.228C7.66975 10.4533 8.20708 10.566 8.74441 10.566C9.38575 10.566 9.90575 10.488 10.3044 10.332C10.7204 10.176 11.0671 9.93333 11.3444 9.604C11.7951 9.06667 12.0811 8.46867 12.2024 7.81C12.3237 7.15133 12.3844 6.34533 12.3844 5.392V4.352L15.8684 4.638V6.692C15.8684 8.00933 15.6171 9.17933 15.1144 10.202C14.6291 11.2247 13.8664 12.0307 12.8264 12.62C11.8037 13.192 10.4691 13.478 8.82241 13.478ZM16.9084 10.696C16.4404 10.696 15.9637 10.6007 15.4784 10.41C15.0104 10.202 14.5771 9.80333 14.1784 9.214C13.7797 8.62467 13.4591 7.74067 13.2164 6.562L15.4784 5.886C15.5651 6.49267 15.7124 6.952 15.9204 7.264C16.1457 7.576 16.4837 7.732 16.9344 7.732C17.3504 7.732 17.7577 7.61933 18.1564 7.394C18.5551 7.15133 18.9537 6.75267 19.3524 6.198L19.7684 9.37C19.5084 9.682 19.1531 9.98533 18.7024 10.28C18.2691 10.5573 17.6711 10.696 16.9084 10.696ZM23.1744 16C22.1171 16 21.3024 15.8873 20.7304 15.662C20.1584 15.4193 19.7251 15.1073 19.4304 14.726C19.1531 14.362 18.9451 13.9373 18.8064 13.452C18.6851 12.9493 18.6244 12.2647 18.6244 11.398V0.321999L22.1084 0.608V11.138C22.1084 11.5193 22.1344 11.84 22.1864 12.1C22.2384 12.3427 22.3251 12.5247 22.4464 12.646C22.6371 12.8193 22.8451 12.932 23.0704 12.984C23.2957 13.0187 23.6511 13.036 24.1364 13.036L23.8764 16H23.1744Z" fill="#6D6D6D"/>
</svg>
