<svg width="16" height="17" viewBox="0 0 16 17" fill="none" xmlns="http://www.w3.org/2000/svg">
<path d="M10.6665 2.5H0.666504V11.1667H10.6665V2.5Z" stroke="black" stroke-linecap="round" stroke-linejoin="round"/>
<path d="M10.6665 5.83337H13.3332L15.3332 7.83337V11.1667H10.6665V5.83337Z" stroke="black" stroke-linecap="round" stroke-linejoin="round"/>
<path d="M3.66667 14.5C4.58714 14.5 5.33333 13.7538 5.33333 12.8333C5.33333 11.9128 4.58714 11.1666 3.66667 11.1666C2.74619 11.1666 2 11.9128 2 12.8333C2 13.7538 2.74619 14.5 3.66667 14.5Z" stroke="black" stroke-linecap="round" stroke-linejoin="round"/>
<path d="M12.3332 14.5C13.2536 14.5 13.9998 13.7538 13.9998 12.8333C13.9998 11.9128 13.2536 11.1666 12.3332 11.1666C11.4127 11.1666 10.6665 11.9128 10.6665 12.8333C10.6665 13.7538 11.4127 14.5 12.3332 14.5Z" stroke="black" stroke-linecap="round" stroke-linejoin="round"/>
</svg>
