<svg width="30" height="30" viewBox="0 0 30 30" fill="none" xmlns="http://www.w3.org/2000/svg">
<path d="M26.9287 8.87945C26.9462 9.1432 26.9462 9.4082 26.9462 9.67445C26.9462 17.8082 20.7537 27.187 9.43375 27.187V27.182C6.09 27.187 2.815 26.2294 0 24.4232C0.48625 24.4819 0.975 24.5107 1.465 24.512C4.2375 24.5145 6.93 23.5844 9.10875 21.8719C6.475 21.8219 4.165 20.1044 3.35875 17.5969C4.28125 17.7744 5.23125 17.7382 6.1375 17.4919C3.265 16.9119 1.2 14.3882 1.2 11.4582C1.2 11.4319 1.2 11.4057 1.2 11.3807C2.05625 11.8582 3.01375 12.1219 3.99375 12.1507C1.28875 10.3444 0.45375 6.74695 2.0875 3.93445C5.2125 7.77945 9.82375 10.1169 14.7725 10.3657C14.2762 8.2282 14.955 5.9882 16.5525 4.48445C19.0312 2.1532 22.93 2.2732 25.2612 4.75195C26.64 4.4807 27.9613 3.97445 29.17 3.2582C28.71 4.6832 27.7487 5.8932 26.4637 6.6632C27.685 6.51695 28.8763 6.1907 30 5.6932C29.1737 6.92945 28.1337 8.0082 26.9287 8.87945Z" fill="#F58634"/>
</svg>
