<svg width="30" height="30" viewBox="0 0 30 30" fill="none" xmlns="http://www.w3.org/2000/svg">
<path d="M25 7.34928V5C25 3.34533 23.6968 2 22.0968 2H7.90323C6.30323 2 5 3.34533 5 5V7.34147C5 10.2481 6.18715 10.9465 7.44393 11.6865L13.0737 15L7.44393 18.3135C6.18715 19.0535 5 19.7519 5 22.6585V25C5 26.6547 6.30323 28 7.90323 28H22.0968C23.6968 28 25 26.6547 25 25V22.6507C25 19.7534 23.8193 19.0548 22.5677 18.3135L16.9742 15L22.5677 11.6865C23.8193 10.9452 25 10.2466 25 7.34928ZM21.605 20.0495C22.7263 20.7135 23.0645 20.9134 23.0645 22.652V25.0013C23.0645 25.5533 22.6297 26.0013 22.0968 26.0013H7.90323C7.37032 26.0013 6.93548 25.5533 6.93548 25.0013V22.6602C6.93548 20.9162 7.27611 20.7161 8.40127 20.0534L15.0284 16.1533L21.605 20.0495ZM21.605 9.95052L15.0271 13.848L8.40001 9.94792C7.27485 9.28525 6.93422 9.08547 6.93422 7.34147V5C6.93422 4.448 7.36906 4 7.90197 4H22.0955C22.6284 4 23.0633 4.448 23.0633 5V7.34928C23.0645 9.08662 22.7263 9.28652 21.605 9.95052Z" fill="#3387FF"/>
</svg>
