<svg width="30" height="30" viewBox="0 0 30 30" fill="none" xmlns="http://www.w3.org/2000/svg">
<path d="M23.4375 7.87125V7.5C23.4375 4.4775 21.7725 2.8125 18.75 2.8125H6.25C4.35375 2.8125 2.8125 4.35375 2.8125 6.25V22.5C2.8125 25.5225 4.4775 27.1875 7.5 27.1875H22.5C25.5225 27.1875 27.1875 25.5225 27.1875 22.5V12.5C27.1875 9.80625 25.865 8.19125 23.4375 7.87125ZM25.3125 19.6875H20.625C19.4188 19.6875 18.4375 18.7062 18.4375 17.5C18.4375 16.2938 19.4188 15.3125 20.625 15.3125H25.3125V19.6875ZM6.25 4.6875H18.75C20.7213 4.6875 21.5625 5.52875 21.5625 7.5V7.8125H6.25C5.38875 7.8125 4.6875 7.11125 4.6875 6.25C4.6875 5.38875 5.38875 4.6875 6.25 4.6875ZM22.5 25.3125H7.5C5.52875 25.3125 4.6875 24.4713 4.6875 22.5V9.31122C5.15625 9.55122 5.6875 9.6875 6.25 9.6875H22.5C24.4713 9.6875 25.3125 10.5287 25.3125 12.5V13.4375H20.625C18.385 13.4375 16.5625 15.26 16.5625 17.5C16.5625 19.74 18.385 21.5625 20.625 21.5625H25.3125V22.5C25.3125 24.4713 24.4713 25.3125 22.5 25.3125ZM21.2625 16.25H21.275C21.9663 16.25 22.525 16.81 22.525 17.5C22.525 18.19 21.9663 18.75 21.275 18.75C20.585 18.75 20.0188 18.19 20.0188 17.5C20.0188 16.81 20.5725 16.25 21.2625 16.25Z" fill="#D1D1D1"/>
</svg>
