<svg width="26" height="26" viewBox="0 0 26 26" fill="none" xmlns="http://www.w3.org/2000/svg">
<rect width="26" height="26" rx="13" fill="#F3F3F3"/>
<path d="M18.0625 8.72275V8.5C18.0625 6.6865 17.0635 5.6875 15.25 5.6875H7.75C6.61225 5.6875 5.6875 6.61225 5.6875 7.75V17.5C5.6875 19.3135 6.6865 20.3125 8.5 20.3125H17.5C19.3135 20.3125 20.3125 19.3135 20.3125 17.5V11.5C20.3125 9.88375 19.519 8.91475 18.0625 8.72275ZM19.1875 15.8125H16.375C15.6512 15.8125 15.0625 15.2238 15.0625 14.5C15.0625 13.7762 15.6512 13.1875 16.375 13.1875H19.1875V15.8125ZM7.75 6.8125H15.25C16.4327 6.8125 16.9375 7.31725 16.9375 8.5V8.6875H7.75C7.23325 8.6875 6.8125 8.26675 6.8125 7.75C6.8125 7.23325 7.23325 6.8125 7.75 6.8125ZM17.5 19.1875H8.5C7.31725 19.1875 6.8125 18.6827 6.8125 17.5V9.58673C7.09375 9.73073 7.4125 9.8125 7.75 9.8125H17.5C18.6827 9.8125 19.1875 10.3172 19.1875 11.5V12.0625H16.375C15.031 12.0625 13.9375 13.156 13.9375 14.5C13.9375 15.844 15.031 16.9375 16.375 16.9375H19.1875V17.5C19.1875 18.6827 18.6827 19.1875 17.5 19.1875ZM16.7575 13.75H16.765C17.1798 13.75 17.515 14.086 17.515 14.5C17.515 14.914 17.1798 15.25 16.765 15.25C16.351 15.25 16.0113 14.914 16.0113 14.5C16.0113 14.086 16.3435 13.75 16.7575 13.75Z" fill="#121212"/>
</svg>
