<svg width="32" height="32" viewBox="0 0 32 32" fill="none" xmlns="http://www.w3.org/2000/svg">
<path d="M27.1628 4.77459C25.7112 3.3083 23.9821 2.14573 22.0765 1.35467C20.1709 0.563608 18.1269 0.159899 16.0636 0.167087C7.41859 0.167087 0.372761 7.21292 0.372761 15.8579C0.372761 18.6288 1.10109 21.3204 2.46276 23.6954L0.246094 31.8338L8.55859 29.6488C10.8544 30.8996 13.4353 31.5646 16.0636 31.5646C24.7086 31.5646 31.7544 24.5188 31.7544 15.8738C31.7544 11.6779 30.1236 7.73542 27.1628 4.77459ZM16.0636 28.9046C13.7203 28.9046 11.4244 28.2713 9.41359 27.0838L8.93859 26.7987L3.99859 28.0971L5.31276 23.2838L4.99609 22.7929C3.69419 20.714 3.0029 18.3109 3.00109 15.8579C3.00109 8.66959 8.85943 2.81125 16.0478 2.81125C19.5311 2.81125 22.8086 4.17292 25.2628 6.64292C26.4779 7.85253 27.441 9.2913 28.096 10.8758C28.751 12.4604 29.085 14.1592 29.0786 15.8738C29.1103 23.0621 23.2519 28.9046 16.0636 28.9046ZM23.2203 19.1513C22.8244 18.9613 20.8928 18.0113 20.5444 17.8688C20.1803 17.7421 19.9269 17.6788 19.6578 18.0588C19.3886 18.4546 18.6444 19.3413 18.4228 19.5946C18.2011 19.8638 17.9636 19.8954 17.5678 19.6896C17.1719 19.4996 15.9053 19.0721 14.4169 17.7421C13.2453 16.6971 12.4694 15.4146 12.2319 15.0188C12.0103 14.6229 12.2003 14.4171 12.4061 14.2113C12.5803 14.0371 12.8019 13.7521 12.9919 13.5304C13.1819 13.3088 13.2611 13.1346 13.3878 12.8813C13.5144 12.6121 13.4511 12.3904 13.3561 12.2004C13.2611 12.0104 12.4694 10.0788 12.1528 9.28709C11.8361 8.52709 11.5036 8.62209 11.2661 8.60625H10.5061C10.2369 8.60625 9.82526 8.70125 9.46109 9.09709C9.11276 9.49292 8.09943 10.4429 8.09943 12.3746C8.09943 14.3063 9.50859 16.1746 9.69859 16.4279C9.88859 16.6971 12.4694 20.6554 16.3961 22.3496C17.3303 22.7613 18.0586 22.9988 18.6286 23.1729C19.5628 23.4738 20.4178 23.4263 21.0986 23.3312C21.8586 23.2204 23.4261 22.3813 23.7428 21.4629C24.0753 20.5446 24.0753 19.7688 23.9644 19.5946C23.8536 19.4204 23.6161 19.3413 23.2203 19.1513Z" fill="#4F8647"/>
</svg>
