<svg width="26" height="26" viewBox="0 0 26 26" fill="none" xmlns="http://www.w3.org/2000/svg">
<g clip-path="url(#clip0_2188_1402)">
<path d="M13 26C20.1797 26 26 20.1797 26 13C26 5.8203 20.1797 0 13 0C5.8203 0 0 5.8203 0 13C0 20.1797 5.8203 26 13 26Z" fill="#F3F3F3"/>
<path d="M13 19.5002C12.9293 19.5002 12.8586 19.4855 12.7926 19.4555C12.5746 19.3562 7.444 16.9769 6.62134 12.7395C6.30334 11.1002 6.62267 9.50086 7.47534 8.46219C8.16534 7.62086 9.15731 7.17352 10.3446 7.16752C10.3506 7.16752 10.3566 7.16752 10.362 7.16752C11.7166 7.16752 12.5427 7.93887 12.9993 8.59553C13.458 7.9362 14.2906 7.16152 15.654 7.16752C16.842 7.17352 17.8346 7.62086 18.5253 8.46219C19.3766 9.50019 19.6953 11.0995 19.3766 12.7402C18.5553 16.9775 13.424 19.3575 13.206 19.4562C13.1413 19.4855 13.0707 19.5002 13 19.5002ZM10.3613 8.16686C10.3573 8.16686 10.354 8.16686 10.35 8.16686C9.45802 8.17086 8.75136 8.48352 8.2487 9.09619C7.5827 9.90752 7.34202 11.1982 7.60335 12.5489C8.24002 15.8315 12.062 17.9648 13 18.4435C13.938 17.9648 17.76 15.8315 18.396 12.5489C18.6587 11.1975 18.418 9.90685 17.7533 9.09619C17.2507 8.48419 16.544 8.17218 15.65 8.16752C15.646 8.16752 15.642 8.16752 15.6387 8.16752C14.0573 8.16752 13.4967 9.7522 13.474 9.81953C13.4047 10.0215 13.214 10.1588 13.0007 10.1588C12.9993 10.1588 12.9986 10.1588 12.998 10.1588C12.784 10.1582 12.5933 10.0215 12.5253 9.81819C12.5033 9.75152 11.942 8.16686 10.3613 8.16686Z" fill="#121212"/>
</g>
<defs>
<clipPath id="clip0_2188_1402">
<rect width="26" height="26" fill="white"/>
</clipPath>
</defs>
</svg>
