<svg width="30" height="30" viewBox="0 0 30 30" fill="none" xmlns="http://www.w3.org/2000/svg">
<path fill-rule="evenodd" clip-rule="evenodd" d="M29.6938 8.55255C29.6938 8.55255 29.401 6.4847 28.4996 5.57675C27.3575 4.38254 26.0786 4.37481 25.4939 4.30562C21.299 4 14.9986 4 14.9986 4H14.9875C14.9875 4 8.6899 4 4.49274 4.30562C3.90588 4.37701 2.62865 4.38202 1.48703 5.57675C0.585176 6.4847 0.298401 8.55255 0.298401 8.55255C0.298401 8.55255 0 10.9791 0 13.4107V15.6845C0 18.1111 0.298401 20.5427 0.298401 20.5427C0.298401 20.5427 0.59127 22.6105 1.48703 23.5202C2.62865 24.7144 4.129 24.6756 4.79893 24.803C7.20061 25.0322 15.0008 25.1014 15.0008 25.1014C15.0008 25.1014 21.3067 25.0903 25.5016 24.7902C26.0885 24.721 27.3652 24.7138 28.5073 23.519C29.4092 22.6111 29.7015 20.541 29.7015 20.541C29.7015 20.541 30 18.1145 30 15.6829V13.4091C29.9939 10.9825 29.6955 8.55091 29.6955 8.55091L29.6938 8.55255ZM11.891 18.4433V10.012L19.9952 14.2418L11.891 18.4433Z" fill="#F58634"/>
</svg>
